<svg xmlns="http://www.w3.org/2000/svg" viewBox="0 0 453.3 66.46"><g id="レイヤー_2" data-name="レイヤー 2"><g id="レイヤー_1-2" data-name="レイヤー 1"><path d="M23.76,37.08v3.17a11.44,11.44,0,0,1-.9,4.5,12.7,12.7,0,0,1-2.48,3.78,12.21,12.21,0,0,1-3.71,2.63,11,11,0,0,1-4.57,1,16.16,16.16,0,0,1-4.25-.58,10,10,0,0,1-3.89-2,11.14,11.14,0,0,1-2.84-3.71A13.06,13.06,0,0,1,0,40V11.81A12.6,12.6,0,0,1,.86,7.13,11.23,11.23,0,0,1,3.31,3.38,11.55,11.55,0,0,1,7.09.9,12.74,12.74,0,0,1,12,0a11.16,11.16,0,0,1,8.43,3.38,12.23,12.23,0,0,1,2.48,3.93,13.22,13.22,0,0,1,.9,4.93v2.88H16.42V12.67a5.9,5.9,0,0,0-1.23-3.74,4,4,0,0,0-3.31-1.59c-1.82,0-3,.57-3.64,1.7a9,9,0,0,0-.9,4.28V39.53a6.76,6.76,0,0,0,1,3.74,3.81,3.81,0,0,0,3.49,1.51,5.31,5.31,0,0,0,1.55-.25,4.54,4.54,0,0,0,1.54-.83A4.17,4.17,0,0,0,16,42.12a6.36,6.36,0,0,0,.44-2.52V37.08Z"/><path d="M29.3,51.7V.43h7.35V18.72h.14a10.42,10.42,0,0,1,2.77-2.84,7.1,7.1,0,0,1,4.14-1.12,8.44,8.44,0,0,1,2.74.47,6.34,6.34,0,0,1,2.45,1.55,7.89,7.89,0,0,1,1.73,2.77,11.69,11.69,0,0,1,.64,4.14v28H43.92V26.42A4.82,4.82,0,0,0,43,23.26a3.23,3.23,0,0,0-2.66-1.16,3.11,3.11,0,0,0-2.88,1.3,7.2,7.2,0,0,0-.79,3.74V51.7Z"/><path d="M56.66,27.43a27.27,27.27,0,0,1,.29-4.1,9.76,9.76,0,0,1,4.79-7.13,11.25,11.25,0,0,1,5.87-1.44,11.28,11.28,0,0,1,5.87,1.44,9.79,9.79,0,0,1,4.78,7.13,27.27,27.27,0,0,1,.29,4.1v12a27.37,27.37,0,0,1-.29,4.1,9.79,9.79,0,0,1-4.78,7.13,11.28,11.28,0,0,1-5.87,1.44,11.25,11.25,0,0,1-5.87-1.44A9.76,9.76,0,0,1,57,43.56a27.37,27.37,0,0,1-.29-4.1ZM64,40.61a4.45,4.45,0,0,0,1,3.13,3.85,3.85,0,0,0,5.26,0,4.49,4.49,0,0,0,1-3.13V26.28a4.48,4.48,0,0,0-1-3.13,3.82,3.82,0,0,0-5.26,0,4.43,4.43,0,0,0-1,3.13Z"/><path d="M83.3,27.43a27.27,27.27,0,0,1,.29-4.1,9.76,9.76,0,0,1,4.79-7.13,12.66,12.66,0,0,1,11.73,0,9.76,9.76,0,0,1,4.79,7.13,27.27,27.27,0,0,1,.29,4.1v12a27.37,27.37,0,0,1-.29,4.1,9.76,9.76,0,0,1-4.79,7.13,12.66,12.66,0,0,1-11.73,0,9.76,9.76,0,0,1-4.79-7.13,27.37,27.37,0,0,1-.29-4.1Zm7.35,13.18a4.45,4.45,0,0,0,1,3.13,3.85,3.85,0,0,0,5.26,0,4.49,4.49,0,0,0,1-3.13V26.28a4.48,4.48,0,0,0-1-3.13,3.82,3.82,0,0,0-5.26,0,4.43,4.43,0,0,0-1,3.13Z"/><path d="M123.91,25.42a3.64,3.64,0,0,0-1.19-2.81,3.82,3.82,0,0,0-2.55-.94,3.28,3.28,0,0,0-2.67,1.12,3.86,3.86,0,0,0-.93,2.55,4.16,4.16,0,0,0,.5,2,4.71,4.71,0,0,0,2.59,1.77L124,30.82a10.4,10.4,0,0,1,5.65,4.32,11.82,11.82,0,0,1,1.55,6,10.87,10.87,0,0,1-.83,4.29,11.34,11.34,0,0,1-2.26,3.49,10.25,10.25,0,0,1-3.46,2.37,11,11,0,0,1-4.39.87,10.6,10.6,0,0,1-7.49-2.81,10.33,10.33,0,0,1-2.45-3.42,12.33,12.33,0,0,1-1-4.79h6.92a6.94,6.94,0,0,0,1,2.81,3.2,3.2,0,0,0,2.92,1.3,4.33,4.33,0,0,0,2.84-1,3.57,3.57,0,0,0,1.26-2.91,4.27,4.27,0,0,0-.79-2.6,6.27,6.27,0,0,0-2.88-1.87l-3.53-1.29a12.06,12.06,0,0,1-5.44-3.86,9.85,9.85,0,0,1-2-6.22,10.55,10.55,0,0,1,.87-4.29,10.44,10.44,0,0,1,2.37-3.42,9.62,9.62,0,0,1,3.39-2.19,11.27,11.27,0,0,1,4.17-.76,10.64,10.64,0,0,1,4.14.79,9.41,9.41,0,0,1,3.28,2.23A10.71,10.71,0,0,1,130,21.2a11.23,11.23,0,0,1,.79,4.22Z"/><path d="M157.17,36.22H142.63v5a3.53,3.53,0,0,0,1,2.67,3.64,3.64,0,0,0,2.63.93A2.89,2.89,0,0,0,149,43.56a6.6,6.6,0,0,0,.83-2.45h7.34a10.51,10.51,0,0,1-2.95,7.78,10.21,10.21,0,0,1-3.45,2.37,12.51,12.51,0,0,1-10.41-.57,9.93,9.93,0,0,1-3.71-3.82,10.07,10.07,0,0,1-1.08-3.31,27.43,27.43,0,0,1-.28-4.1v-12a27.33,27.33,0,0,1,.28-4.1A10.07,10.07,0,0,1,136.65,20a9.93,9.93,0,0,1,3.71-3.82,11.28,11.28,0,0,1,5.87-1.44,11.78,11.78,0,0,1,4.57.86A10.25,10.25,0,0,1,154.29,18a11.79,11.79,0,0,1,2.88,8.14Zm-14.54-5.76h7.2V26.28a4.43,4.43,0,0,0-1-3.13,3.82,3.82,0,0,0-5.26,0,4.43,4.43,0,0,0-1,3.13Z"/><path d="M172.87,15.19h7.77l5,22.75h.15l5-22.75h7.56L187.84,58a12.29,12.29,0,0,1-1.62,4,10.05,10.05,0,0,1-2.41,2.6,8.5,8.5,0,0,1-2.91,1.4,13.13,13.13,0,0,1-3.21.4h-2V59.54h1.65a5.5,5.5,0,0,0,1.87-.28,3.07,3.07,0,0,0,1.44-1.3,12.1,12.1,0,0,0,1.08-2.84c.34-1.23.72-2.92,1.16-5.08Z"/><path d="M200.66,27.43a27.27,27.27,0,0,1,.29-4.1,9.76,9.76,0,0,1,4.79-7.13,12.66,12.66,0,0,1,11.73,0,9.76,9.76,0,0,1,4.79,7.13,27.27,27.27,0,0,1,.29,4.1v12a27.37,27.37,0,0,1-.29,4.1,9.76,9.76,0,0,1-4.79,7.13,12.66,12.66,0,0,1-11.73,0A9.76,9.76,0,0,1,201,43.56a27.37,27.37,0,0,1-.29-4.1ZM208,40.61a4.45,4.45,0,0,0,1,3.13,3.83,3.83,0,0,0,5.25,0,4.45,4.45,0,0,0,1-3.13V26.28a4.43,4.43,0,0,0-1-3.13,3.81,3.81,0,0,0-5.25,0,4.43,4.43,0,0,0-1,3.13Z"/><path d="M249.91,15.19V51.7h-7.35V48.17h-.14A10.42,10.42,0,0,1,239.65,51a7.1,7.1,0,0,1-4.14,1.12,8.44,8.44,0,0,1-2.74-.47,6.34,6.34,0,0,1-2.45-1.55,7.73,7.73,0,0,1-1.72-2.77A11.46,11.46,0,0,1,228,43.2v-28h7.34V40.46a4.83,4.83,0,0,0,.94,3.17,3.22,3.22,0,0,0,2.66,1.15,3.11,3.11,0,0,0,2.88-1.29,7.24,7.24,0,0,0,.79-3.75V15.19Z"/><path d="M256,51.7V15.19h7.35v3.89a22.6,22.6,0,0,1,4.39-3.17A11.2,11.2,0,0,1,273,14.76v7.78a6,6,0,0,0-2.23-.44,8.94,8.94,0,0,0-2.49.4,6.43,6.43,0,0,0-2.41,1.33A7,7,0,0,0,264,26.28,8.69,8.69,0,0,0,263.3,30V51.7Z"/><path d="M290.3,51.7V21h-3.6V15.19h3.6v-5a11.36,11.36,0,0,1,.79-4.5,8.74,8.74,0,0,1,2.16-3.06,7.31,7.31,0,0,1,3-1.72,12,12,0,0,1,3.49-.51h3.38V7.34H299.8q-2.16,0-2.16,2.52v5.33h5.47V21h-5.47V51.7Z"/><path d="M319.24,51.7V48h-.14a13.54,13.54,0,0,1-2.92,3.1A6.89,6.89,0,0,1,312,52.13a9,9,0,0,1-2.63-.4,6.66,6.66,0,0,1-2.55-1.47,7,7,0,0,1-2-2.92,13.44,13.44,0,0,1-.76-4.93,26.46,26.46,0,0,1,.5-5.44,8.6,8.6,0,0,1,1.88-3.92A7.78,7.78,0,0,1,310,30.78a18.17,18.17,0,0,1,5.69-.76h.79a3.94,3.94,0,0,1,.8.08,5.14,5.14,0,0,0,.86.07,8.25,8.25,0,0,1,1.08.07V26.42a5.56,5.56,0,0,0-.79-3.09,3.17,3.17,0,0,0-2.88-1.23,4.18,4.18,0,0,0-2.63.94,4.45,4.45,0,0,0-1.55,2.74h-7.13a11.74,11.74,0,0,1,3.32-7.92A10.41,10.41,0,0,1,311,15.59a11.92,11.92,0,0,1,4.54-.83,12.8,12.8,0,0,1,4.32.72,9.92,9.92,0,0,1,3.53,2.16,10.46,10.46,0,0,1,2.3,3.6,13.44,13.44,0,0,1,.86,5V51.7Zm0-15.7a12.63,12.63,0,0,0-2-.22,7.22,7.22,0,0,0-4.06,1.12c-1.13.74-1.7,2.1-1.7,4.07a5.35,5.35,0,0,0,1,3.38,3.34,3.34,0,0,0,2.81,1.3,3.63,3.63,0,0,0,2.92-1.23,5.17,5.17,0,0,0,1-3.45Z"/><path d="M354.38,15.19,344.87,51.7h-6.48l-9.5-36.51h7.77l4.9,23.33h.14l4.9-23.33Z"/><path d="M356.68,27.43a27.27,27.27,0,0,1,.29-4.1,9.76,9.76,0,0,1,4.79-7.13,12.66,12.66,0,0,1,11.73,0,9.76,9.76,0,0,1,4.79,7.13,27.27,27.27,0,0,1,.29,4.1v12a27.37,27.37,0,0,1-.29,4.1,9.76,9.76,0,0,1-4.79,7.13,12.66,12.66,0,0,1-11.73,0A9.76,9.76,0,0,1,357,43.56a27.37,27.37,0,0,1-.29-4.1ZM364,40.61a4.45,4.45,0,0,0,1,3.13,3.83,3.83,0,0,0,5.25,0,4.45,4.45,0,0,0,1-3.13V26.28a4.43,4.43,0,0,0-1-3.13,3.81,3.81,0,0,0-5.25,0,4.43,4.43,0,0,0-1,3.13Z"/><path d="M384,51.7V15.19h7.34v3.89a22.6,22.6,0,0,1,4.39-3.17A11.2,11.2,0,0,1,401,14.76v7.78a5.91,5.91,0,0,0-2.23-.44,8.82,8.82,0,0,0-2.48.4,6.47,6.47,0,0,0-2.42,1.33A7,7,0,0,0,392,26.28a8.69,8.69,0,0,0-.72,3.74V51.7Z"/><path d="M404,7.78V.43h7.35V7.78Zm0,43.92V15.19h7.35V51.7Z"/><path d="M417.37,15.19V4.1h7.35V15.19h4.53V21h-4.53V41.18a6.3,6.3,0,0,0,.25,2,2,2,0,0,0,.83,1.08,3.12,3.12,0,0,0,1.4.43c.55,0,1.24.07,2.05.07V51.7h-3a9.88,9.88,0,0,1-4.21-.8,7.41,7.41,0,0,1-2.7-2,8,8,0,0,1-1.48-2.77,10.44,10.44,0,0,1-.47-3V21H413.7V15.19Z"/><path d="M453.3,36.22H438.76v5a3.53,3.53,0,0,0,1,2.67,3.64,3.64,0,0,0,2.63.93,2.89,2.89,0,0,0,2.77-1.22,6.6,6.6,0,0,0,.83-2.45h7.34a10.51,10.51,0,0,1-2.95,7.78,10.16,10.16,0,0,1-3.46,2.37,12.48,12.48,0,0,1-10.4-.57,9.76,9.76,0,0,1-4.79-7.13,27.37,27.37,0,0,1-.29-4.1v-12a27.27,27.27,0,0,1,.29-4.1,9.76,9.76,0,0,1,4.79-7.13,11.25,11.25,0,0,1,5.87-1.44,11.78,11.78,0,0,1,4.57.86A10.25,10.25,0,0,1,450.42,18a11.79,11.79,0,0,1,2.88,8.14Zm-14.54-5.76H446V26.28a4.48,4.48,0,0,0-1-3.13,3.82,3.82,0,0,0-5.26,0,4.43,4.43,0,0,0-1,3.13Z"/></g></g></svg>