<svg xmlns="http://www.w3.org/2000/svg" viewBox="0 0 600.18 51.7"><g id="レイヤー_2" data-name="レイヤー 2"><g id="レイヤー_1-2" data-name="レイヤー 1"><path d="M40.39,0,32.76,51.26H25.85L20.23,18h-.14L14.54,51.26H7.63L0,0H7.78l3.67,32.54h.14L17.35,0H23l6,33.34h.15L32.62,0Z"/><path d="M65.81,35.78H51.26v5a3.58,3.58,0,0,0,1,2.67,3.66,3.66,0,0,0,2.63.93c1.39,0,2.32-.4,2.77-1.22a6.42,6.42,0,0,0,.83-2.45h7.35a10.52,10.52,0,0,1-3,7.78,10.36,10.36,0,0,1-3.45,2.37,11.38,11.38,0,0,1-4.54.87A11.21,11.21,0,0,1,49,50.26a9.76,9.76,0,0,1-4.79-7.13A26.15,26.15,0,0,1,43.92,39V27a25.93,25.93,0,0,1,.29-4.1A9.72,9.72,0,0,1,49,15.77a11.21,11.21,0,0,1,5.86-1.44,11.83,11.83,0,0,1,4.58.86,10.35,10.35,0,0,1,3.49,2.38,11.79,11.79,0,0,1,2.88,8.13ZM51.26,30h7.2V25.85a4.43,4.43,0,0,0-1-3.13,3.82,3.82,0,0,0-5.26,0,4.48,4.48,0,0,0-1,3.13Z"/><path d="M70.77,0h7.35V41a4,4,0,0,0,.75,2.84,4.74,4.74,0,0,0,2.85,1V51.7a24,24,0,0,1-4.54-.4,7.79,7.79,0,0,1-3.45-1.55,6.67,6.67,0,0,1-2.2-3.06,15,15,0,0,1-.76-5.22Z"/><path d="M92.37,40.75a3.55,3.55,0,0,0,1,2.67,3.62,3.62,0,0,0,2.62.93c1.4,0,2.32-.4,2.78-1.22a6.57,6.57,0,0,0,.82-2.45h7.35a10.51,10.51,0,0,1-6.41,10.15A11.35,11.35,0,0,1,96,51.7a11.21,11.21,0,0,1-5.86-1.44,9.76,9.76,0,0,1-4.79-7.13A27.41,27.41,0,0,1,85,39V27a27.17,27.17,0,0,1,.29-4.1,9.72,9.72,0,0,1,4.79-7.13A11.21,11.21,0,0,1,96,14.33a11.83,11.83,0,0,1,4.58.86A10.35,10.35,0,0,1,104,17.57,12.21,12.21,0,0,1,106.92,26H99.57a4.65,4.65,0,0,0-1-3.27,3.81,3.81,0,0,0-5.25,0,4.43,4.43,0,0,0-1,3.13Z"/><path d="M110.59,27a27.17,27.17,0,0,1,.29-4.1,9.72,9.72,0,0,1,4.79-7.13,12.66,12.66,0,0,1,11.73,0,9.72,9.72,0,0,1,4.79,7.13,27.17,27.17,0,0,1,.29,4.1V39a27.41,27.41,0,0,1-.29,4.11,9.76,9.76,0,0,1-4.79,7.13,12.66,12.66,0,0,1-11.73,0,9.76,9.76,0,0,1-4.79-7.13,27.41,27.41,0,0,1-.29-4.11Zm7.34,13.18a4.45,4.45,0,0,0,1,3.13,3.83,3.83,0,0,0,5.25,0,4.45,4.45,0,0,0,1-3.13V25.85a4.43,4.43,0,0,0-1-3.13,3.81,3.81,0,0,0-5.25,0,4.43,4.43,0,0,0-1,3.13Z"/><path d="M137.88,51.26V14.76h7.34v3.53h.15a10.45,10.45,0,0,1,2.77-2.85,7.17,7.17,0,0,1,4.14-1.11,6.56,6.56,0,0,1,4,1.15A12,12,0,0,1,158.83,18a15.41,15.41,0,0,1,3-2.59,8.41,8.41,0,0,1,4.61-1.08,8.85,8.85,0,0,1,2.81.47,6.82,6.82,0,0,1,2.59,1.54,8,8,0,0,1,1.87,2.78,10.52,10.52,0,0,1,.72,4.14v28h-7.34V26a4.87,4.87,0,0,0-.94-3.17,3.25,3.25,0,0,0-2.66-1.15,3.09,3.09,0,0,0-2.88,1.3,7.2,7.2,0,0,0-.79,3.74V51.26h-7.35V26a4.93,4.93,0,0,0-.93-3.17,3.28,3.28,0,0,0-2.67-1.15A3.09,3.09,0,0,0,146,23a7.2,7.2,0,0,0-.79,3.74V51.26Z"/><path d="M201.74,35.78H187.2v5a3.54,3.54,0,0,0,1,2.67,3.64,3.64,0,0,0,2.63.93,2.89,2.89,0,0,0,2.77-1.22,6.78,6.78,0,0,0,.83-2.45h7.34a10.51,10.51,0,0,1-3,7.78,10.3,10.3,0,0,1-3.46,2.37,12.48,12.48,0,0,1-10.4-.57,9.76,9.76,0,0,1-4.79-7.13,27.41,27.41,0,0,1-.29-4.11V27a27.17,27.17,0,0,1,.29-4.1,9.72,9.72,0,0,1,4.79-7.13,11.25,11.25,0,0,1,5.87-1.44,11.78,11.78,0,0,1,4.57.86,10.25,10.25,0,0,1,3.49,2.38,11.79,11.79,0,0,1,2.88,8.13ZM187.2,30h7.2V25.85a4.43,4.43,0,0,0-1-3.13,3.81,3.81,0,0,0-5.25,0,4.43,4.43,0,0,0-1,3.13Z"/><path d="M220.53,14.76V3.67h7.35V14.76h4.53v5.76h-4.53V40.75a6.3,6.3,0,0,0,.25,2,1.94,1.94,0,0,0,.83,1.08,3.12,3.12,0,0,0,1.4.43c.55,0,1.23.07,2,.07v6.91h-3a9.86,9.86,0,0,1-4.21-.79,7.64,7.64,0,0,1-2.7-2A7.77,7.77,0,0,1,221,45.68a10.32,10.32,0,0,1-.47-3V20.52h-3.67V14.76Z"/><path d="M234.57,27a27.17,27.17,0,0,1,.29-4.1,9.72,9.72,0,0,1,4.79-7.13,12.66,12.66,0,0,1,11.73,0,9.72,9.72,0,0,1,4.79,7.13,27.17,27.17,0,0,1,.29,4.1V39a27.41,27.41,0,0,1-.29,4.11,9.76,9.76,0,0,1-4.79,7.13,12.66,12.66,0,0,1-11.73,0,9.76,9.76,0,0,1-4.79-7.13,27.41,27.41,0,0,1-.29-4.11Zm7.35,13.18a4.45,4.45,0,0,0,1,3.13,3.83,3.83,0,0,0,5.25,0,4.45,4.45,0,0,0,1-3.13V25.85a4.43,4.43,0,0,0-1-3.13,3.81,3.81,0,0,0-5.25,0,4.43,4.43,0,0,0-1,3.13Z"/><path d="M275.68,51.26V0h7.06l9.43,27.14h.14L301.67,0h7.13V51.26h-7.34V20.09h-.15l-7.27,22h-3.67l-7.2-22H283V51.26Z"/><path d="M337.24,14.76v36.5H329.9V47.74h-.15A10.42,10.42,0,0,1,327,50.58a7.17,7.17,0,0,1-4.14,1.12,8.43,8.43,0,0,1-2.73-.47,6.26,6.26,0,0,1-2.45-1.55,7.75,7.75,0,0,1-1.73-2.77,11.68,11.68,0,0,1-.65-4.14v-28h7.35V40a4.91,4.91,0,0,0,.93,3.17,3.24,3.24,0,0,0,2.67,1.15,3.11,3.11,0,0,0,2.88-1.29,7.37,7.37,0,0,0,.79-3.75V14.76Z"/><path d="M342.86,0h7.34V41a4,4,0,0,0,.76,2.84,4.68,4.68,0,0,0,2.84,1V51.7a23.85,23.85,0,0,1-4.53-.4,7.78,7.78,0,0,1-3.46-1.55,6.74,6.74,0,0,1-2.2-3.06,15,15,0,0,1-.75-5.22Z"/><path d="M377.92,35.78H363.38v5a3.54,3.54,0,0,0,1,2.67,3.64,3.64,0,0,0,2.63.93,2.89,2.89,0,0,0,2.77-1.22,6.78,6.78,0,0,0,.83-2.45h7.34A10.51,10.51,0,0,1,375,48.46a10.3,10.3,0,0,1-3.46,2.37,12.48,12.48,0,0,1-10.4-.57,9.76,9.76,0,0,1-4.79-7.13A27.41,27.41,0,0,1,356,39V27a27.17,27.17,0,0,1,.29-4.1,9.72,9.72,0,0,1,4.79-7.13A11.25,11.25,0,0,1,367,14.33a11.78,11.78,0,0,1,4.57.86A10.25,10.25,0,0,1,375,17.57a11.79,11.79,0,0,1,2.88,8.13ZM363.38,30h7.2V25.85a4.43,4.43,0,0,0-1-3.13,3.81,3.81,0,0,0-5.25,0,4.43,4.43,0,0,0-1,3.13Z"/><path d="M382.89,0h7.34V41a4,4,0,0,0,.76,2.84,4.68,4.68,0,0,0,2.84,1V51.7a23.85,23.85,0,0,1-4.53-.4,7.78,7.78,0,0,1-3.46-1.55,6.74,6.74,0,0,1-2.2-3.06,15,15,0,0,1-.75-5.22Z"/><path d="M418,35.78H403.41v5a3.54,3.54,0,0,0,1,2.67,3.64,3.64,0,0,0,2.63.93,2.89,2.89,0,0,0,2.77-1.22,6.78,6.78,0,0,0,.83-2.45H418A10.51,10.51,0,0,1,415,48.46a10.3,10.3,0,0,1-3.46,2.37,12.48,12.48,0,0,1-10.4-.57,10,10,0,0,1-3.71-3.82,9.84,9.84,0,0,1-1.08-3.31,27.41,27.41,0,0,1-.29-4.11V27a27.17,27.17,0,0,1,.29-4.1,9.72,9.72,0,0,1,4.79-7.13A11.25,11.25,0,0,1,407,14.33a11.78,11.78,0,0,1,4.57.86,10.25,10.25,0,0,1,3.49,2.38A11.79,11.79,0,0,1,418,25.7ZM403.41,30h7.2V25.85a4.48,4.48,0,0,0-1-3.13,3.82,3.82,0,0,0-5.26,0,4.43,4.43,0,0,0-1,3.13Z"/><path d="M423.35,12.67V0h7.34V7.34Z"/><path d="M450.06,25a3.63,3.63,0,0,0-1.19-2.8,3.82,3.82,0,0,0-2.55-.94,3.29,3.29,0,0,0-2.67,1.12,3.86,3.86,0,0,0-.93,2.55,4.34,4.34,0,0,0,.5,2,4.71,4.71,0,0,0,2.59,1.77l4.32,1.72a10.55,10.55,0,0,1,5.66,4.32,12,12,0,0,1,1.54,6,11,11,0,0,1-.82,4.28,11.48,11.48,0,0,1-2.27,3.5,10.3,10.3,0,0,1-3.46,2.37,11,11,0,0,1-4.39.87,10.6,10.6,0,0,1-7.49-2.81,10.33,10.33,0,0,1-2.45-3.42,12.19,12.19,0,0,1-1-4.79h6.91a7,7,0,0,0,1,2.81,3.19,3.19,0,0,0,2.92,1.29,4.32,4.32,0,0,0,2.84-1,3.59,3.59,0,0,0,1.26-2.92,4.26,4.26,0,0,0-.79-2.59,6.27,6.27,0,0,0-2.88-1.87l-3.53-1.3a11.94,11.94,0,0,1-5.43-3.85,9.86,9.86,0,0,1-2-6.23,10.49,10.49,0,0,1,3.24-7.7,9.74,9.74,0,0,1,3.38-2.2,11.53,11.53,0,0,1,4.18-.75,10.71,10.71,0,0,1,4.14.79A9.46,9.46,0,0,1,454,17.35a10.71,10.71,0,0,1,2.16,3.42A11.21,11.21,0,0,1,457,25Z"/><path d="M514,0l-7.64,51.26h-6.91L493.84,18h-.15l-5.54,33.26h-6.91L473.6,0h7.78l3.67,32.54h.15L491,0h5.61l6,33.34h.14L506.22,0Z"/><path d="M517.52,27a27.17,27.17,0,0,1,.29-4.1,9.72,9.72,0,0,1,4.79-7.13,12.68,12.68,0,0,1,11.74,0,9.74,9.74,0,0,1,4.78,7.13,27.17,27.17,0,0,1,.29,4.1V39a27.41,27.41,0,0,1-.29,4.11A9.84,9.84,0,0,1,538,46.44a10,10,0,0,1-3.7,3.82,12.68,12.68,0,0,1-11.74,0,10,10,0,0,1-3.71-3.82,9.84,9.84,0,0,1-1.08-3.31,27.41,27.41,0,0,1-.29-4.11Zm7.35,13.18a4.45,4.45,0,0,0,1,3.13,3.85,3.85,0,0,0,5.26,0,4.49,4.49,0,0,0,1-3.13V25.85a4.48,4.48,0,0,0-1-3.13,3.82,3.82,0,0,0-5.26,0,4.43,4.43,0,0,0-1,3.13Z"/><path d="M544.81,51.26V14.76h7.34v3.89a22.23,22.23,0,0,1,4.4-3.17,11.18,11.18,0,0,1,5.33-1.15V22.1a6.19,6.19,0,0,0-2.24-.43,8.58,8.58,0,0,0-2.48.4,6.43,6.43,0,0,0-2.41,1.33,6.75,6.75,0,0,0-1.87,2.45,8.69,8.69,0,0,0-.73,3.74V51.26Z"/><path d="M564.4,0h7.34V41a4,4,0,0,0,.75,2.84,4.74,4.74,0,0,0,2.85,1V51.7a24,24,0,0,1-4.54-.4,7.79,7.79,0,0,1-3.45-1.55,6.67,6.67,0,0,1-2.2-3.06,15,15,0,0,1-.75-5.22Z"/><path d="M592.83,51.26V48l-1.36,1.48A8.59,8.59,0,0,1,590,50.62a7,7,0,0,1-1.8.79,8.86,8.86,0,0,1-2.38.29c-3.07,0-5.21-1.16-6.41-3.46a9.77,9.77,0,0,1-.93-3,30.93,30.93,0,0,1-.29-4.83V26.5a58.1,58.1,0,0,1,.21-5.84,7,7,0,0,1,3.39-5.4,7.34,7.34,0,0,1,4.1-.93,7.54,7.54,0,0,1,3.85,1,8.93,8.93,0,0,1,2.92,2.77h.14V0h7.35V51.26Zm-7.27-11.88a6.62,6.62,0,0,0,.87,3.6,3,3,0,0,0,2.73,1.37,3.26,3.26,0,0,0,2.67-1.26,5.08,5.08,0,0,0,1-3.27V25.63a4,4,0,0,0-1-2.84,3.43,3.43,0,0,0-2.63-1.12,3,3,0,0,0-2.84,1.3,5.82,5.82,0,0,0-.76,3Z"/></g></g></svg>