<?xml version="1.0" encoding="utf-8"?>
<!-- Generator: Adobe Illustrator 26.0.1, SVG Export Plug-In . SVG Version: 6.00 Build 0)  -->
<svg version="1.1" id="レイヤー_1" xmlns="http://www.w3.org/2000/svg" xmlns:xlink="http://www.w3.org/1999/xlink" x="0px"
	 y="0px" viewBox="0 0 151.8 315.5" style="enable-background:new 0 0 151.8 315.5;" xml:space="preserve">
<style type="text/css">
	.st0{fill-rule:evenodd;clip-rule:evenodd;fill:#DDDDDD;}
</style>
<g id="レイヤー_2_00000108990995820291905470000002390216042865895553_">
	<g id="レイヤー_1-2">
		<path class="st0" d="M22.8,147.5c1.3-10,3.9-20.6,4-33c-8.4-4.1-24.9-3.6-26-15c-2.9-5.3,2.9-13.9,4-18l-1-6c1.8-9.6,5.4-20,10-27
			c0.9,0.3,28,3,28,3c4.8-2.8,0.5-5.8,3-11c0.9-1.8,2.8-0.9,4-5c3.8-0.5,4.2-1.4,8-2c4.6,4.8,8.8,2.8,17,2l1-1l2-19
			c0.8-1.8,4.4-4.8,5-7s-2.1-2.7-1-5c1.5-2.5,2.1-2,6-2c11.7-5.7,29.5,6.8,38,11l1,9c-10.9,11-8.8,37.5-29,38c-1.4-1-3.3-1-6-1
			c-0.7,1.9-1,4-1,6c4.4,6.8,3.8,20,7,27l10,2c5.9-0.9,23.1-8,30-6c3,0.8,4.8,4.6,7,6c4.2,2.6,6.2,2,8,7h-1c-3.7,2.3-9.3,1.6-14,3
			c-7.4,2.2-15.9,5.4-23,7l-13-1c-2.2,0.6-4.3,2.3-7,3c-3,7-7.5,15.6-9,23c6.6,5.5,0.5,10.5,3,19c2.7,9.2,8.1,20.4,9,32
			c0.3,3.7-3.3,4-4,6l5,30c1.8,8.5-2.4,15.7-4,21c-0.7,15.3-1.3,33.7-2,49c2.9,8.8,13.1,12.9,21,17l-1,1c-2,4.4-3.3,5.2-10,5H73.4
			c-3.1-5.4,2.3-24.6,1.4-34c-0.8-8-4.3-16.5-6-24c-2.8-12.2,5.6-26-3-33c-1-0.2-0.4-0.8-1,0c-5.1,6.7-6.3,16.2-11,23
			c-8.5,12.3-23.2,26-24,45c3.8,4.7,6,11.6,11,15c3,2,8,0.9,10,4h-1c-1.4,1.8-3.4,2.4-5,4c-16.8,0.6-35.8-7.5-36-22
			c5.5-6.4,3.5-18.6,8-26c1-1.7,5-2.1,6-4l3-21l3-2v-5c0.9-2.5,4.2-6.9,5-9c2-4.9,0-7.9,0-13l2-15c-1.4-6.5-4.1-16.9-6-23
			c-2.9-9.5-0.6-20.1-4-28H22.8z"/>
	</g>
</g>
</svg>
