<svg xmlns="http://www.w3.org/2000/svg" viewBox="0 0 370.64 95.97"><title>title-02</title><g id="レイヤー_2" data-name="レイヤー 2"><g id="title-02"><g id="あしたへ"><path d="M184.89,6.83c2.8.34,7.22,1.18,7.22,3.36s-3.42,2.8-8.57,3.86c-3.42.73-7.67,1.34-11.37,1.74-.22,2-.34,4.48-.45,7.11a28.76,28.76,0,0,1,9.18-1.23,5,5,0,0,0-.45-2.46l.45-.34a5.28,5.28,0,0,1,2.74,3c9.07,1.06,15.51,6.1,15.51,13.72,0,8.29-6.94,14-24.64,15.57l-.34-1.06c12.54-1.79,18.42-7.9,18.48-14.78,0-5.6-2.86-9.86-8.62-11.31v.45c0,2.69-3,9.18-8.23,14.62a5,5,0,0,1,.9,2.35c0,1.06-.56,3.19-2.41,3.19a3.8,3.8,0,0,1-2.69-1.79c-3.47,2.58-7.39,4.37-11.65,4.37-3,0-6.44-1.85-6.44-6,0-6.72,5.21-13.33,13.72-16.91.06-2.74.06-5.6.11-8.18-1.06.06-2.18.11-3.19.11-4.59,0-7.22-2.63-8-5.49l.5-.5c1.23,1.29,3.42,1.9,6.66,1.9,1.23,0,2.8-.11,4.14-.17.06-1.85.11-3.86.11-4.87,0-2.18-.56-3.14-4-2.86l-.11-.28a5,5,0,0,1,4.31-2.58c4.2,0,7,1.68,7,3.47,0,.9-1.06,1.79-1.34,3-.22,1-.39,2.13-.62,3.47C176,10.92,184.16,9.58,184.66,7Zm-22.79,35c2,0,4.54-1.18,6.94-3a31.49,31.49,0,0,1-1.79-11.76c-5.43,3.25-8.57,7.45-8.57,11.7C158.68,41.1,159.46,41.83,162.1,41.83Zm9.63-17c0,2.35,0,6.5,1.68,10.25a28.22,28.22,0,0,0,7.22-11.59,13.62,13.62,0,0,0-1.46-.06A25,25,0,0,0,171.73,24.86Z" style="fill:#333101"/><path d="M215.41,5.54a4.51,4.51,0,0,1,4.09-2.63c4.09,0,7.73,2.58,7.73,4.87-.06,1.46-1,1.62-1.62,4.76a141.44,141.44,0,0,0-2.07,21.9c0,7.34,3.75,9,10,9,8.06,0,15.29-4.2,20.5-12.94l.84.45c-4.54,13.1-12.77,18-21.78,18-8.12,0-14.45-3-14.45-14.34,0-7.11,1-18.2,1.57-26V8.23C220.22,5.6,218,5.6,217,5.6a6.16,6.16,0,0,0-1.46.11Z" style="fill:#333101"/><path d="M266.42,13.22a4.72,4.72,0,0,0,4.14,2,38,38,0,0,0,6.5-.67,47.4,47.4,0,0,0,.67-6.22c0-1.29,0-3.14-2-3.14a6.42,6.42,0,0,0-2.24.34l-.22-.39c.73-1.62,1.74-3,5-3,3.08,0,6.5,1.4,6.5,3.25,0,1.23-.45,1.46-1,2.35a11.28,11.28,0,0,0-1,2.74l-.67,2.69c5.26-1.79,6.89-3,7.73-4.93l.5-.06c2.74.22,6.38.73,6.38,2.69,0,1.68-1.85,2.8-5,3.92a86.18,86.18,0,0,1-10.7,3c-1.62,6.78-5.32,19.38-6.5,23.13-1.68,5.88-2.69,8.85-5.6,8.85-1.51,0-2.13-1.18-2.13-5.15V43.18a38.39,38.39,0,0,0,4.82-8.74,122.37,122.37,0,0,0,4.76-15.74,27.66,27.66,0,0,1-4.2.39c-5.6,0-6.22-3.86-6.22-5.54ZM291,32.31a11.06,11.06,0,0,0-1.4,4.87c0,5.82,6.33,5.82,11.09,5.82a21.16,21.16,0,0,0,3.36-.22c1.29-.11,2.24-.39,2.74-.39,2,0,4.7,1.68,4.7,3.47,0,2.3-2.91,2.74-7.67,2.74-11.65,0-16.69-2.58-16.69-8.9a12.12,12.12,0,0,1,3.14-7.84Zm4-4.76C297,26,299.3,24.3,301.2,23a23.89,23.89,0,0,0-12,2.24l-.56-.62a21.34,21.34,0,0,1,15-6.16c4,0,6.66,1.74,6.66,3.64s-1.57,2.07-3.14,2.13c-3.42.11-6.94,1.34-11.59,4Z" style="fill:#333101"/><path d="M320.69,21.45c.06,1.68.78,3,2.18,3s2.41-1.06,3.36-2.13c2.18-2.41,5.1-5.66,6.72-7.22a9.89,9.89,0,0,1,6.83-3.14c3.92,0,6.38,1.85,8.9,4.82a161.15,161.15,0,0,0,15.4,16.18c3.42,2.86,6.55,4.14,6.55,8.06,0,2.18-1.12,3-3,3-1.62,0-3.7-1.57-5.49-3.47-5.21-5.49-12.21-15.18-14.56-18.65-2.91-4.54-4.76-7.06-7.62-7.06s-4.7,2.13-10.81,12.43c-1.06,1.85-1.18,4.48-3.75,4.48-2.91,0-6.72-3.81-6.72-6.83a4,4,0,0,1,1.85-3.53Z" style="fill:#333101"/></g><g id="拝啓_" data-name="拝啓、"><path d="M13.44,25.2C16.18,24.64,19.1,24,22,23.41l.11.62c-2.18,1.29-5,3-8.62,4.82v16.3c0,3.92-.9,6.83-7.28,7.45,0-4-1.12-5.15-5.21-5.66v-.84H6.89c.67,0,.9-.22.9-.9V31.7c-1.23.62-2.46,1.23-3.81,1.85A2.09,2.09,0,0,1,2.46,35L0,27.78c1.62-.22,4.42-.78,7.78-1.46V13.66H.39L.11,12.54H7.78V0l8,.67c-.11.78-.39,1.23-2.35,1.51V12.54h.9L17,8.4,22,12.66c-.45.73-1.12,1-2.63,1H13.44ZM46.7,31.3,53,36c-.45.73-1.18,1-2.74,1H37.74V50.85c0,.39-1.79,1.68-4.76,1.68H31.92V37H18.09l-.28-1.12H31.92V26.6H21.56l-.34-1.06h10.7v-9.3H21.5l-.28-1.12h10.7v-9H19.77L19.49,5h22.9L45.64.62l6,4.54c-.45.73-1.18,1-2.69,1H37.74v9h3L43.85,11l5.77,4.26c-.45.73-1.18,1-2.69,1H37.74v9.3h3.08l3.08-4.14,5.71,4.26c-.39.73-1.12,1-2.63,1H37.74v9.24H43.4Z" style="fill:#333101"/><path d="M83.61,4.82c-.39.73-1.18,1-2.63,1H56.62L56.34,4.7h18.2L77.73.5ZM74.09,22.06h-9A17.08,17.08,0,0,1,57,34.83l-.5-.56C59.86,29.06,60,22.74,60,17.42V9.13l6.27,2.35h7.28l2.18-2.74,5.94,4.14a3.73,3.73,0,0,1-2,1.06v9.8c0,.11-1.51,1.62-5.6,1.62Zm0-9.46H65.41v4.76c0,1.12-.06,2.3-.17,3.58h8.85Zm18.2,20.22,2.35-3,6.44,4.42A3.94,3.94,0,0,1,99,35.28V50.46c0,.06-1.79,1.51-6.16,1.51V48.38H71.68v2c0,.17-.9,2.13-6,2.13V30.3l6.38,2.52ZM71.68,47.26H92.85V33.94H71.68ZM108.75,8.62c-.45.73-1.23,1-2.74,1h-2a29,29,0,0,1-6.72,12.66,36,36,0,0,0,11.7,4.7l-.17.62c-2.41.84-3.64,2.58-4,5.43a26.28,26.28,0,0,1-10.92-7.67C90,28.22,85,30.41,78.79,31.92l-.28-.84a30.11,30.11,0,0,0,13.16-8.79,38.39,38.39,0,0,1-3.81-8.4,26.66,26.66,0,0,1-6.1,5.94L81,19.38C84.28,14.73,86.41,7,87.3.06l8.06,1.68c-.17.73-.73,1.06-2,1.06a37.39,37.39,0,0,1-2.3,5.66h8.62l3.14-4.2Zm-18.2,1a32.25,32.25,0,0,1-1.79,3,23.59,23.59,0,0,0,5,6.89,31.51,31.51,0,0,0,3.86-9.86Z" style="fill:#333101"/><path d="M113.9,39c8.12,2,13.72,6,13.72,10a3.33,3.33,0,0,1-3.36,3.47,3.65,3.65,0,0,1-3.08-1.79,17.51,17.51,0,0,0-7.78-11Z" style="fill:#333101"/></g><g id="思いやりからテクノロジーに息吹を与えます_" data-name="思いやりからテクノロジーに息吹を与えます。"><path d="M5.9,90.29a15.41,15.41,0,0,1-2.43,4.9l-1.4-.59a12.55,12.55,0,0,0,2.45-4.68ZM16.83,79.94v8.14H4.06V79.94ZM5.54,83.43h4V81.22h-4Zm0,3.37h4V84.51h-4Zm2.75,3v3.6c0,.74.22.88,1,.9s2.2,0,3,0,1-.14,1-1.85l1.44.25c-.18,2.72-.49,3-2.34,3.08-1,0-2.45,0-3.33,0-1.91,0-2.36-.49-2.36-2.36V89.75Zm1.84-1.48a16.85,16.85,0,0,1,2.47,3.31l-1.31.68A15.3,15.3,0,0,0,9,88.94Zm5.17-4.84V81.22H11.08v2.21Zm0,3.37V84.51H11.08V86.8Zm.54,2.72a23.29,23.29,0,0,1,2.9,4.92L17.24,95a21.19,21.19,0,0,0-2.72-5Z" style="fill:#333101"/><path d="M23.29,82.28a38.2,38.2,0,0,0-.22,3.85c0,4.14,1.4,6.77,2.59,6.77.72,0,1.37-1.3,1.78-3.13l1.33.59c-.68,2.77-1.67,4.27-3,4.27-2,0-4.23-3-4.23-8.44,0-1.21,0-2.59.14-4.05Zm9.22-.49c2.63,2.67,3.51,5.58,3.66,9.62l-1.71.14c0-4-.88-6.54-3.26-8.88Z" style="fill:#333101"/><path d="M42.38,85.36a35.35,35.35,0,0,0-1.64-4l1.48-.61c.56,1.22,1.12,2.65,1.64,4.16,1.44-.47,2.81-.88,4-1.15a18.13,18.13,0,0,0-2-3.19l1.33-.67a18.83,18.83,0,0,1,2.14,3.6,4.66,4.66,0,0,1,.47,0c2.92,0,4.39,1.39,4.39,3.94,0,2.23-1.35,3.76-4.11,3.76a10.1,10.1,0,0,1-2.48-.34l.07-1.48a7.54,7.54,0,0,0,2.3.4c1.78,0,2.68-.92,2.68-2.32,0-1.62-.92-2.52-2.93-2.52a21.42,21.42,0,0,0-5.4,1.35,71.29,71.29,0,0,1,2.29,8.95l-1.6.34a63.16,63.16,0,0,0-2.16-8.77c-1.33.49-2.65,1-3.8,1.46l-.52-1.55C39.7,86.28,41.05,85.81,42.38,85.36Z" style="fill:#333101"/><path d="M58.67,85.61a19.84,19.84,0,0,1,.67-5.13l1.58.32a15,15,0,0,0-.77,4.68,9.75,9.75,0,0,0,.31,2.61c.32-.65,1.12-2.05,1.55-2.75l1,.86a26,26,0,0,0-2.16,4.09l-1.35.22a12.72,12.72,0,0,1-.83-4.88Zm10.53-5.38a31.87,31.87,0,0,1,.61,6.37c0,4.11-1.35,7.2-6.64,8.91L62.29,94c4.84-1.39,5.91-3.75,5.91-7.4a26,26,0,0,0-.65-6.12Z" style="fill:#333101"/><path d="M79.14,84.1a35.2,35.2,0,0,0,.72-4.16l1.55.2c-.18,1.28-.43,2.58-.74,3.85.47,0,.88-.05,1.22-.05,2.47,0,3.58,1.3,3.58,4a14.09,14.09,0,0,1-1.15,6.3A2.34,2.34,0,0,1,82,95.44a12.29,12.29,0,0,1-2.61-.31l.11-1.46a7.59,7.59,0,0,0,2.2.34,1.25,1.25,0,0,0,1.3-.59c.58-.85,1-3,1-5.44,0-2-.59-2.63-2.14-2.63-.43,0-.94,0-1.48.05a31.52,31.52,0,0,1-3.94,9.27L75,94a26,26,0,0,0,3.76-8.41c-1.24.14-2.54.34-3.67.56l-.27-1.44C76.11,84.44,77.7,84.25,79.14,84.1ZM91,90.31l-1.55.38a12.5,12.5,0,0,0-3.29-7l1.26-.81A14.06,14.06,0,0,1,91,90.31Z" style="fill:#333101"/><path d="M96.29,89.2a11.12,11.12,0,0,1,6-2.12c2.79,0,4.48,1.35,4.48,3.67,0,2.88-2.36,4.7-8,4.7-.23,0-.56,0-.85,0L97.63,94l1.31,0c4.5,0,6.23-1.28,6.23-3.22,0-1.58-1-2.41-3.22-2.41-1.85,0-4,1-6,2.79l-1.24-.54c0-3.89.41-5.76,1.78-7.72l1.42.49A8.93,8.93,0,0,0,96.29,89.2Zm-.16-7.85.4-1.44a53.64,53.64,0,0,1,8.07,1.87l-.41,1.42A45.29,45.29,0,0,0,96.13,81.35Z" style="fill:#333101"/><path d="M114.67,95.52l-1.21-1.26c3.76-1.75,4.59-3.69,4.68-7.22H111V85.6h14.82V87h-6.07C119.66,90.91,118.67,93.43,114.67,95.52Zm9.15-14.28v1.44H113V81.24Z" style="fill:#333101"/><path d="M141.21,82.75l1.17.56c-1.37,5.94-4.37,10-9.78,12.21l-1.06-1.31a13.41,13.41,0,0,0,8.86-10h-5.94a21.92,21.92,0,0,1-4.32,4.92l-1.22-1A21.33,21.33,0,0,0,135,79.94l1.51.54a20.64,20.64,0,0,1-1.15,2.27Z" style="fill:#333101"/><path d="M160,81.51c-1.21,5.67-4.88,11.36-10.64,13.92l-1.17-1.33c5.65-2.27,9.09-7.53,10.17-12.93Z" style="fill:#333101"/><path d="M178.86,82.25V94.33H166V82.25Zm-1.66,10.53v-9h-9.58v9Z" style="fill:#333101"/><path d="M188.9,87l-.76,1.31a32.43,32.43,0,0,0-4.72-2.09l.72-1.33A32.12,32.12,0,0,1,188.9,87Zm7.71-2.18,1,1.19a23.56,23.56,0,0,1-12.44,9.31l-.81-1.53A21.48,21.48,0,0,0,196.61,84.82Zm-5.85-1.75L190,84.35a31.23,31.23,0,0,0-4.61-2.2l.76-1.3A32.62,32.62,0,0,1,190.76,83.07Zm3.67-2.14a13.32,13.32,0,0,1,2.2,2.2l-.76.68a12.62,12.62,0,0,0-2.16-2.21Zm1.93-1.46a12.7,12.7,0,0,1,2.2,2.2l-.76.68a12.59,12.59,0,0,0-2.16-2.21Z" style="fill:#333101"/><path d="M215.76,86.91v1.66H201.11V86.91Z" style="fill:#333101"/><path d="M220.11,88.57a39.48,39.48,0,0,1,1-8.52l1.62.29a32.64,32.64,0,0,0-1,8.21,16.86,16.86,0,0,0,1,6.41l-1.6.47a20.33,20.33,0,0,1-1-6.84Zm13.52,5.6c-1.13.11-2.41.18-3.48.18-3.21,0-5.58-.52-5.58-2.32a6.8,6.8,0,0,1,.81-2.75l1.41.27a4.64,4.64,0,0,0-.68,2c0,1,1.44,1.33,4,1.33a25.61,25.61,0,0,0,3.51-.27Zm-3-11.63c.9,0,1.89,0,2.65,0l0,1.48c-.88-.07-2-.11-3.08-.11-1.76,0-3.73.11-5.28.27l-.09-1.44c1.67-.16,3.85-.23,5.82-.23Z" style="fill:#333101"/><path d="M240,91.48a11.68,11.68,0,0,1-2.43,3.83l-1.37-.59a9.45,9.45,0,0,0,2.43-3.64Zm3.66-1.73h-4.86V81.09h4.3c.27-.59.5-1.21.67-1.67l1.62.25c-.22.41-.49.92-.79,1.42h5.53v8.66h-5.94a15.14,15.14,0,0,1,2.41,2.41l-1.15.76a13.9,13.9,0,0,0-2.5-2.63Zm-3.37-6h8.28V82.23h-8.28Zm0,2.45h8.28V84.66h-8.28Zm0,2.47h8.28V87.11h-8.28Zm2,2.23v2.67c0,.65.22.76,1,.79s2.18,0,3,0,1-.11,1-1.53l1.4.23c-.18,2.38-.47,2.65-2.3,2.68-1,0-2.43,0-3.31,0-1.89-.05-2.32-.43-2.32-2.18V90.87Zm7.56-.14a19.2,19.2,0,0,1,2.86,4l-1.44.59a17.81,17.81,0,0,0-2.68-4Z" style="fill:#333101"/><path d="M270.92,94.74l-1,1.22c-2.27-1.08-3.8-3-4.74-6.21A8.65,8.65,0,0,1,259.81,96l-1.08-1.13c4.9-1.93,5.53-5.49,5.67-10.84h-1.64a20.05,20.05,0,0,1-1.64,3.65l-1.33-.49v4.27h-3.73v1.21h-1.35V81.33h5.08v5.6a18.42,18.42,0,0,0,2.5-7.51l1.44.23a26,26,0,0,1-.56,3h6.7l.79,0a41.14,41.14,0,0,1-1.24,5.19L268,87.49a31.77,31.77,0,0,0,.92-3.49h-3.06c0,.54,0,1.06-.07,1.57C266.36,90.83,268,93.54,270.92,94.74Zm-12.5-4.65V82.66h-2.36V90.1Z" style="fill:#333101"/><path d="M287.37,86.78c-1.53.52-3.33,1.19-5,1.91a21.87,21.87,0,0,1,.23,3.58h-1.48c0-.31,0-.56,0-.83a14.62,14.62,0,0,0-.11-2.12c-1.89,1-3.31,2-3.31,3.1S279,94,281.84,94a27.47,27.47,0,0,0,4.61-.38l.14,1.44a30.56,30.56,0,0,1-4.74.31c-3.58,0-5.64-1-5.64-2.93,0-1.78,2.05-3.26,4.52-4.5-.27-.72-.67-1.06-1.17-1.06a6.16,6.16,0,0,0-3.83,1.69A18.68,18.68,0,0,0,274,90.38l-1.21-1a20.89,20.89,0,0,0,4.07-5.83h-3.6V82.21h4.21a15.09,15.09,0,0,0,.74-2.34l1.58.31a17.84,17.84,0,0,1-.67,2H285v1.37h-6.37a18.1,18.1,0,0,1-1.85,3.19,6,6,0,0,1,3.15-1.1,2.24,2.24,0,0,1,2.18,1.69c1.64-.74,3.37-1.39,4.74-2Z" style="fill:#333101"/><path d="M302.11,89.68c.11-.77.2-1.64.29-2.61h-8c-.11.34-.2.67-.29.94l-1.62-.11c.68-2.07,1.73-5.92,2.25-8.48l1.58.11c-.13.61-.29,1.28-.45,2h9.36v1.37h-9.71c-.23,1-.5,1.93-.76,2.83h9.27c-.13,1.5-.27,2.83-.43,4h3.08V91h-3.26c-.41,2.66-.88,4.18-1.48,4.57a2.76,2.76,0,0,1-1.46.36c-.68,0-2.11,0-3,0l-.25-1.48c.83.07,2.23.09,2.86.07a1.32,1.32,0,0,0,.74-.18c.36-.25.7-1.33,1-3.31H290.15V89.68Z" style="fill:#333101"/><path d="M319.64,84.19l.86,1.12c-1.3,1.26-3,3.06-4.05,4.12a2.6,2.6,0,0,1,.9-.2,1.23,1.23,0,0,1,1.28,1.24c.11.76.13,1.57.22,2.18.14,1.13.58,1.22,2.32,1.22a15.19,15.19,0,0,0,2.74-.25v1.51a30.52,30.52,0,0,1-3.13.14c-2.25,0-3.08-.36-3.35-1.67-.09-.47-.11-1.26-.22-2.09-.07-.65-.41-.94-.81-.94a2.31,2.31,0,0,0-1.28.43,9.23,9.23,0,0,0-1,.76c-.94.86-2.86,2.75-3.89,3.82l-1.21-1.13c2.23-1.91,7.36-7,9-8.73-1.91.16-5.38.41-8,.49l-.13-1.46C312.73,84.75,317.34,84.48,319.64,84.19Zm-6.72-4.39a46.32,46.32,0,0,0,7.51,1.66l-.25,1.39a64.55,64.55,0,0,1-7.69-1.66Z" style="fill:#333101"/><path d="M333.88,86c0-.86,0-1.75-.05-2.59H328V82h5.78c0-.79,0-1.49,0-2.09h1.6V82h5.51v1.39h-5.51c0,.85,0,1.73.05,2.59h5.1v1.39h-5.06c0,1.19.07,2.29.09,3.1a19.91,19.91,0,0,1,5.28,2.93l-1,1.21A16,16,0,0,0,335.57,92c-.09,2.38-1.1,3.46-3.8,3.46-2.48,0-4-1.28-4-2.77,0-1.67,1.5-2.86,4.07-2.86a9.76,9.76,0,0,1,2.13.25c0-.76,0-1.66-.07-2.65h-5.55V86Zm-2.11,5.1c-1.62,0-2.56.61-2.56,1.53s.9,1.46,2.45,1.46c1.8,0,2.34-.67,2.34-2.56v-.11A8.17,8.17,0,0,0,331.77,91.12Z" style="fill:#333101"/><path d="M353.53,82.14c0-.79,0-1.55-.05-2.2h1.66v2.2h4.74v1.42h-4.74v4.25a4.56,4.56,0,0,1,.07.88c0,3.49-.86,6-5.83,7.17l-.63-1.42c3-.63,4.2-1.66,4.63-3.26a4.07,4.07,0,0,1-2,.5,3.08,3.08,0,0,1-3.31-3.31A3.27,3.27,0,0,1,351.44,85a4.12,4.12,0,0,1,2.12.54c0-.63,0-1.3,0-2h-8.32V82.14Zm-2.05,4.14a2,2,0,0,0-1.93,2.09,1.91,1.91,0,0,0,2,2,2.09,2.09,0,0,0,2-2.07v-.2A1.92,1.92,0,0,0,351.48,86.28Z" style="fill:#333101"/><path d="M366.82,93.66a2.33,2.33,0,1,1-2.32-2.34,2.33,2.33,0,0,1,2.32,2.34Zm-3.93,0a1.59,1.59,0,1,0,1.6-1.62,1.62,1.62,0,0,0-1.6,1.6Z" style="fill:#333101"/></g></g></g></svg>