<svg xmlns="http://www.w3.org/2000/svg" viewBox="0 0 334.23 97.58"><title>title-03</title><g id="レイヤー_2" data-name="レイヤー 2"><g id="title-03"><g id="驚き"><path d="M55.44,9.78c-1.14-.12-2.4-.18-3.6-.24a20.69,20.69,0,0,1-4.74,6.78,42.64,42.64,0,0,0,9.66,2.4,19.67,19.67,0,0,0-2.28,5.46c-6.06-1.56-8.1-2.28-12-4.32a32.42,32.42,0,0,1-11.4,4,21,21,0,0,0-2.16-4.5c-.6,3.6-1.56,4.26-6.06,4.26-.84,0-1.68-.06-2.58-.12a5.29,5.29,0,0,0-.24-1.2H10.5a26.15,26.15,0,0,0-3.3.12,19,19,0,0,0,.12-2.52V16.14a37.23,37.23,0,0,1-4.08,4A14.53,14.53,0,0,0,0,16c3.78-2.7,5.64-4.92,6.66-7.92l2.1.9V7.44H7.44c-2.52,0-4.2.06-5.88.18v-5a36.7,36.7,0,0,0,5.82.3H8.76A15.78,15.78,0,0,0,8.58.42h5.94a13.75,13.75,0,0,0-.18,2.46h4.38A14.12,14.12,0,0,0,18.54.36h5.88a15.6,15.6,0,0,0-.18,2.52h1.14a38.07,38.07,0,0,0,5.28-.24v5c-1.62-.12-3.24-.18-5.22-.18h-1.2v2h.6c2.58,0,4.08-.06,4.68-.12,3.12-2.46,5.82-6.3,6.6-9.36l5.64,1.26c-.54,1-.78,1.44-1.26,2.4a9,9,0,0,0-.54,1H49.2a46.55,46.55,0,0,0,6.24-.3ZM44.28,30.48a29,29,0,0,0,4.62-.24v4.2a32.44,32.44,0,0,0-4.62-.24H32.7v1.74H44.28a29,29,0,0,0,4.56-.24v4.2a30.58,30.58,0,0,0-4.56-.24H32.7v1.92H49.56A43.48,43.48,0,0,0,54,41.4c0,.12-.06.3-.06.36a29.2,29.2,0,0,0-.54,3.48,37.21,37.21,0,0,1-1.62,6.84,5.55,5.55,0,0,1-4.32,3.78,28,28,0,0,1-4,.3c-.48,0-.48,0-3.18-.18a11.32,11.32,0,0,0-.84-4.14l-2,1a22.05,22.05,0,0,0-3.12-5.52l3.9-1.5H12.42c-2.4,0-3.24,0-4.62.12l4.32,1.92a35.66,35.66,0,0,1-6.06,8.76L.42,53.16a21.72,21.72,0,0,0,6.3-7.74l.78.36a1.06,1.06,0,0,1,.06-.36c.06-.78.12-2.52.12-4.56V29.16a43.37,43.37,0,0,0-.24-5,42.71,42.71,0,0,0,5.52.24H46.62a30.36,30.36,0,0,0,4.62-.24v4.74a33.06,33.06,0,0,0-4.62-.24H32.7v1.8ZM21.78,19.86h.48c1.74,0,2-.6,2.22-6.6H9.54c-.42.6-.6.78-1,1.44H19c1.2,0,2.4,0,2.88-.06a21.76,21.76,0,0,0-.06,2.22ZM12,19.32h5V17.58H12Zm14.88,9.36H13.74v1.8H26.88Zm0,5.52H13.74v1.74H26.88ZM13.74,39.66v1.92H26.88V39.66Zm5-30.18v-2H14.34v2ZM20.16,47.1A38.55,38.55,0,0,1,22,55.56l-6.24.66a41.11,41.11,0,0,0-1.14-8.46Zm9.36-.42a34.67,34.67,0,0,1,3.06,7.38l-5.64,1.2a31.51,31.51,0,0,0-2.4-7.56Zm8-30.06a18.06,18.06,0,0,1-3.78-4.14c-.66.54-1.38,1.08-2.58,2a8.73,8.73,0,0,0-1.62-2.64C29.52,14,29.22,17.4,29,19A35.73,35.73,0,0,0,37.56,16.62ZM38,9.48A14.73,14.73,0,0,0,42.3,13.8,12.69,12.69,0,0,0,46,9.48Zm.66,36.36a17.13,17.13,0,0,1,3.3,4.74l-1.2.6a16.13,16.13,0,0,0,2.4.18c2,0,2.52-.18,2.94-.9.48-.9.72-1.8,1.14-4.62Z" style="fill:#333101"/><path d="M66.48,10.2a50.27,50.27,0,0,0,5.76.24A106.63,106.63,0,0,0,84.6,9.78c-.18-.48-.18-.48-.66-1.56-1.5-3.48-2.34-5.34-2.4-5.46l7.5-1c.24,1.5.84,3.3,2.46,7.26a100.82,100.82,0,0,0,16.2-3.6l.6,6.36-2,.42c-4,1-10.68,2.28-12.54,2.52a54.17,54.17,0,0,0,2.34,4.92c5.16-1.08,7.92-1.68,8.28-1.74a30.26,30.26,0,0,0,5.7-1.74l.6,6.54c-1.14.18-2.4.42-3.78.78-2.46.6-4.44,1-5.88,1.32s-1.5.3-2.22.48a60,60,0,0,0,8,11L101.52,40c-4.32-1.8-7.92-2.46-13.8-2.46-4.56,0-8,.6-10.08,1.68-1.68,1-2.58,2.22-2.58,3.66a4,4,0,0,0,2.58,3.48,23.39,23.39,0,0,0,8.58,1.32c6.24,0,14.7-1.8,18.48-3.9l1.08,7.38a29.75,29.75,0,0,0-3.9.9,57.77,57.77,0,0,1-15.36,2c-6.9,0-11.28-.9-14.64-2.94A9.66,9.66,0,0,1,67.26,43c0-3.24,1.8-6.24,5-8.34s7.92-3,14-3a41.36,41.36,0,0,1,10.38,1.26c-1-.9-2.1-2.58-4.62-6.72-6.36,1-10.2,1.2-23.22,1.62-1,.06-1.44.06-2.46.18l-.24-6.54a35.59,35.59,0,0,0,6.18.24,118.07,118.07,0,0,0,17-1.14c-.36-.72-.6-1.08-1.08-2.22s-.78-1.62-1.26-2.7a144.66,144.66,0,0,1-16.08.84c-2.52,0-2.82.06-4.08.12Z" style="fill:#333101"/></g><g id="に"><path d="M132.16,52.79c-.05-1-.11-1.3-.27-2.54a94.15,94.15,0,0,1-1.4-16.15A103.71,103.71,0,0,1,132.7,13a35.31,35.31,0,0,0,.81-5l7.13.76c-1.3,3.19-2.54,9.23-3.4,16.15a90.12,90.12,0,0,0-.81,11.93c0,1.19-.05,1.62-.11,3a55.15,55.15,0,0,1,2.81-7.13l4.32,1.94c-3,6.26-4.81,12.53-4.81,16.36,0,.32,0,.76.05,1.46Zm23-21.33c-2.7,3.13-3.83,5.45-3.83,7.78,0,3.08,3,4.7,8.59,4.7a37.94,37.94,0,0,0,12.85-2.05l.54,6.86a18,18,0,0,0-2.21.32,66.57,66.57,0,0,1-11.18,1c-6.7,0-11-1.51-13.39-4.7a9.05,9.05,0,0,1-1.62-5.29c0-3.51,1.62-7.13,5-11.12Zm-8.91-17.87c2.43.65,5.29.86,10,.86A59.55,59.55,0,0,0,170.94,13l.32,6.53-3.83.49a96.69,96.69,0,0,1-11.56.65,64.14,64.14,0,0,1-9.72-.59Z" style="fill:#333101"/></g><g id="挑戦"><path d="M208.68,23.94a69.16,69.16,0,0,0-3.6-10.74v4.74a27.3,27.3,0,0,0-3.3-.18H200v8.58c1.8-.6,2.88-1,5.82-2.22l.06,5.76c-2.46,1.08-3,1.32-5.88,2.46V50c0,4.56-1.8,5.88-8,5.88-.72,0-1.44-.06-2.94-.18a20.31,20.31,0,0,0-1.44-6.12,38.52,38.52,0,0,0,4.56.36c1.2,0,1.5-.3,1.5-1.68V34.62c-.72.24-2.34.72-3.9,1.14-1.14.36-1.26.42-2.1.72l-1.26-6.6c1.56-.12,2.94-.48,7.26-1.62V17.76h-2.52a24.7,24.7,0,0,0-4.2.3V11.7a22.52,22.52,0,0,0,4.26.3h2.46V7.2A36.32,36.32,0,0,0,193.38,1h7A45,45,0,0,0,200,7.2V12h1.74c1.14,0,1.86-.06,2.64-.12-.3-.6-.48-.9-1-1.8l5.16-2.64C212,15.18,212,15.3,213.36,20V7.86A48,48,0,0,0,213,1.08h6.78a38.68,38.68,0,0,0-.3,6.12V22.08c0,12.3-1.62,20.1-5.52,26.16-2,3.06-4.08,5.16-8.1,8.16A28,28,0,0,0,201.3,51c4.38-2.64,5.94-4.08,8-7.38a25.37,25.37,0,0,0,3.42-10c-1.26.9-2.76,1.92-4.2,2.88a21.75,21.75,0,0,1-2.64,1.62c-.6.36-.66.42-1.56,1l-1.86-6.54a41.41,41.41,0,0,0,10.86-5.7c.06-1.38.06-1.86.06-2.94V21Zm20.82,24.3c0,.9.54,1.14,2.64,1.14,2.52,0,3.42-.3,3.9-1.38s.78-4.38,1-8.1a20.51,20.51,0,0,0,5.82,2.16c-.48,6.12-1.38,9.6-2.88,11.16s-3.3,2-9.36,2c-5.28,0-7.2-1.2-7.2-4.62V6.9a38.61,38.61,0,0,0-.3-5.82h6.72a44.15,44.15,0,0,0-.3,6.42v11c4.2-6.06,4.68-6.84,6.24-11.28l5.46,3.24a65.16,65.16,0,0,1-7.5,12.24l-4.2-3.12v5.16a72.47,72.47,0,0,1,12,9.36l-4,5a66.29,66.29,0,0,0-8-7.62Z" style="fill:#333101"/><path d="M300.06,28c-.24.42-.24.42-.84,1.32a7.37,7.37,0,0,1-.48.9A60.55,60.55,0,0,1,292,40.86c1.38,3.9,3.06,7,3.84,7s1.38-2.76,2-7.68a20.11,20.11,0,0,0,5,3.9c-1.26,7.86-3.3,11.64-6.3,11.64-1.5,0-3.54-1.26-5.22-3.24a25.19,25.19,0,0,1-3.84-6.6A57.78,57.78,0,0,1,275.16,55a20.82,20.82,0,0,0-4.2-5,56.83,56.83,0,0,0,6.54-3.6,52.18,52.18,0,0,0-5.22-.24H266v3.54a42.63,42.63,0,0,0,.36,6.36h-6.66a43,43,0,0,0,.36-6.42V46.2h-6.6a49.94,49.94,0,0,0-6.6.36V40.14a49.33,49.33,0,0,0,6.48.36h6.72V36.18h-5.58a41,41,0,0,0-5.52.24,48.54,48.54,0,0,0,.18-5.1V18a50.7,50.7,0,0,0-.18-5.16,29,29,0,0,0,4.62.24h12.9A46.85,46.85,0,0,0,272.34,1l6.06,2.16a62.86,62.86,0,0,1-5.52,10,27.93,27.93,0,0,0,4.38-.24,41.63,41.63,0,0,0-.24,5.52V31.08a38.58,38.58,0,0,0,.24,5.34,50,50,0,0,0-5.64-.24H266V40.5h6.24a44.74,44.74,0,0,0,6.12-.3v5.58a52.13,52.13,0,0,0,7-6.12,93.76,93.76,0,0,1-2.4-16,37.56,37.56,0,0,0-4.68.66l-.42-6.3h1c1,0,2.28-.06,3.72-.18-.18-3.18-.3-7-.36-11.4a40.69,40.69,0,0,0-.36-5.22h6.9a27.23,27.23,0,0,0-.3,5.64c0,3.06.06,6.66.12,10.44l7.26-.66a30.4,30.4,0,0,0,5.22-.78l.36,6.24H301c-1.38.06-2.22.06-4.74.3L289,23.1A101.53,101.53,0,0,0,290.22,34a32.32,32.32,0,0,0,4.32-9.12ZM252.6,1.56A49.68,49.68,0,0,1,257,10.5l-5.52,2a36.35,36.35,0,0,0-4.08-8.88Zm2.28,16.8v3.78h5.22V18.36Zm0,8.7v4h5.22v-4ZM263.4.78a52.61,52.61,0,0,1,3.54,9.6L261.24,12a38.18,38.18,0,0,0-3.36-9.42ZM266,22.14h5.28V18.36H266Zm0,8.94h5.28v-4H266ZM295.74,15a46.34,46.34,0,0,0-6.12-9.78l4.32-2.76a51.89,51.89,0,0,1,6.42,9.48Z" style="fill:#333101"/></g><g id="_わぉ_いいね_を創出するため尽力します_" data-name="「わぉ！いいね！」を創出するため尽力します。"><path d="M8.92,83.33H4.18v9.49H3.3V82.5H8.92Z" style="fill:#333101"/><path d="M14,85.89c0-1.06,0-2,0-2.72h1.41c0,.69-.08,1.63-.11,2.71l.51.38a20.35,20.35,0,0,0-.56,2l0,.48a7.68,7.68,0,0,1,5.09-2.26c2.43,0,4,2,4,4.75s-1.57,4.75-6,5.43l-.48-1.31c4-.5,5.12-2,5.12-4.1S21.81,87.79,20,87.79s-3.2.94-4.8,2.46c0,2.66-.06,5.25-.06,6.67H13.75c0-1.23.08-3.19.13-5.28-.7.74-1.65,1.73-2.46,2.66l-1-.9a31.16,31.16,0,0,0,2.94-3.33,3.91,3.91,0,0,0,.58-1.3l0-1.62-3.09.22-.1-1.31C11.54,86.08,12.93,86,14,85.89Z" style="fill:#333101"/><path d="M31.57,88.08V86.19H32.8v1.89h2.82V89.2H32.8V91a8.5,8.5,0,0,1,2-.22c2.31,0,3.52,1.18,3.52,3.1s-1.09,3-3.55,3c-.26,0-.56,0-.86-.06l0-1.17a7.35,7.35,0,0,0,1,.08c1.57,0,2.19-.75,2.19-1.89,0-1.3-.72-2-2.5-2a6.2,6.2,0,0,0-1.74.26V95c0,1.3-.58,1.92-1.71,1.92-1.57,0-2.58-.74-2.58-1.92,0-1.46,1.25-2.83,3.06-3.6V89.2H28.71V88.08Zm-1.92,6.8c0,.64.5.94,1.28.94.45,0,.64-.19.64-.88V92.6A3,3,0,0,0,29.65,94.89Zm9.62-5.38-.87.8a9.48,9.48,0,0,0-2.24-2l.77-.82A11.84,11.84,0,0,1,39.27,89.51Z" style="fill:#333101"/><path d="M50.23,94.34v1.78H48.66V94.34Zm0-10.52v4.39l-.14,4.13H48.82l-.14-4.13V83.83Z" style="fill:#333101"/><path d="M60.87,85.22a33.72,33.72,0,0,0-.19,3.43c0,3.68,1.25,6,2.3,6,.64,0,1.22-1.15,1.58-2.79l1.18.53c-.61,2.47-1.49,3.79-2.71,3.79-1.75,0-3.76-2.67-3.76-7.51,0-1.07,0-2.31.13-3.6Zm8.2-.43c2.34,2.37,3.12,5,3.25,8.55l-1.52.13c0-3.52-.78-5.81-2.9-7.89Z" style="fill:#333101"/><path d="M76.87,85.22a33.72,33.72,0,0,0-.19,3.43c0,3.68,1.25,6,2.3,6,.64,0,1.22-1.15,1.58-2.79l1.18.53c-.61,2.47-1.49,3.79-2.71,3.79-1.75,0-3.76-2.67-3.76-7.51,0-1.07,0-2.31.13-3.6Zm8.2-.43c2.34,2.37,3.12,5,3.25,8.55l-1.52.13c0-3.52-.78-5.81-2.9-7.89Z" style="fill:#333101"/><path d="M95.63,86.4a19.46,19.46,0,0,0-.61,2l0,.21a7.83,7.83,0,0,1,5.27-2.79c2.29,0,3.22,1.2,3.22,5.59a16.59,16.59,0,0,1-.11,2.13A9.27,9.27,0,0,1,105,94.79l-.82,1a8.22,8.22,0,0,0-1-1c-.46,1.5-1.44,2.1-3.2,2.1-1.92,0-3.11-.93-3.11-2.19S98,92.52,100,92.52a6.34,6.34,0,0,1,2.18.37c0-.43,0-.93,0-1.5,0-3.33-.61-4.18-2.24-4.18-1.28,0-3.17,1-4.95,3,0,2.75-.08,5.44,0,6.72H93.57c0-1.07,0-3,.06-5-.67.9-1.46,2-2.1,3l-1.07-.82a42,42,0,0,0,2.77-4.29,6.64,6.64,0,0,0,.45-1l0-1.46-2.87.32-.16-1.3c.67,0,2-.18,3-.32,0-1.22,0-2.23,0-2.87h1.38c0,.72,0,1.7-.08,2.82Zm4.31,7.16c-1.23,0-2,.46-2,1.14s.77,1.09,1.86,1.09A1.87,1.87,0,0,0,102,94.05,4.65,4.65,0,0,0,99.94,93.56Z" style="fill:#333101"/><path d="M114.23,94.34v1.78h-1.57V94.34Zm0-10.52v4.39l-.14,4.13h-1.25l-.14-4.13V83.83Z" style="fill:#333101"/><path d="M122,96.74h4.74V87.25h.88V97.58H122Z" style="fill:#333101"/><path d="M151.61,89.22c-1.36.46-3,1.06-4.42,1.7a19.52,19.52,0,0,1,.21,3.19h-1.31c0-.27,0-.5,0-.74a13,13,0,0,0-.1-1.89c-1.68.85-2.95,1.79-2.95,2.75s1.15,1.44,3.63,1.44a24.46,24.46,0,0,0,4.1-.34l.13,1.28a27.11,27.11,0,0,1-4.21.27c-3.19,0-5-.88-5-2.61s1.82-2.9,4-4c-.24-.64-.59-.94-1-.94a5.48,5.48,0,0,0-3.41,1.5,16.58,16.58,0,0,0-1.5,1.58l-1.07-.86a18.58,18.58,0,0,0,3.62-5.19h-3.2V85.15h3.75a13.47,13.47,0,0,0,.66-2.08l1.41.27a15.8,15.8,0,0,1-.59,1.81h5.14v1.22h-5.67a16.09,16.09,0,0,1-1.65,2.83,5.34,5.34,0,0,1,2.8-1,2,2,0,0,1,1.94,1.5c1.46-.66,3-1.23,4.21-1.74Z" style="fill:#333101"/><path d="M157.23,96.84v.56H156V93.86a10.91,10.91,0,0,1-1.18,2.8c-.42-.35-.7-.59-1-.82a10.37,10.37,0,0,0,1.42-5.63V87.43h6.95v4.43h-5.81c0,.32-.08.64-.13,1h6.21V97.4h-1.25v-.56Zm3.6-10.37h-4v-.69a11.35,11.35,0,0,1-2.31,1.46l-.61-1.1a11.13,11.13,0,0,0,4.35-3.44h1A12.26,12.26,0,0,0,163.6,86L163,87.11a14.85,14.85,0,0,1-2.15-1.31ZM156.47,90v.22c0,.26,0,.51,0,.78h4.5V90Zm4.48-.74v-1h-4.48v1Zm-.35-3.67a14.41,14.41,0,0,1-1.87-1.76A13.9,13.9,0,0,1,157,85.6Zm.62,10.2V93.88h-4V95.8Zm3.67-11.32v9.16h-1.25V84.48Zm3.38-1.81V95.73c0,.93-.26,1.47-1.15,1.62a14.09,14.09,0,0,1-2.08,0l-.26-1.3a15.61,15.61,0,0,0,1.7,0c.42,0,.51-.24.51-.59V82.67Z" style="fill:#333101"/><path d="M176.64,95.13V89.72h-4.9V84.39h1.31V88.5h3.59V82.71H178V88.5h3.75V84.39h1.36v5.33H178v5.41h4.37V90.8h1.36V97.4h-1.36v-1h-10v1h-1.33V90.8h1.33v4.32Z" style="fill:#333101"/><path d="M194.42,85.09c0-.7,0-1.38,0-2h1.47v2h4.21v1.26h-4.21v3.78a4.11,4.11,0,0,1,.06.78c0,3.11-.77,5.3-5.19,6.37L190.16,96c2.69-.56,3.73-1.47,4.11-2.9a3.62,3.62,0,0,1-1.78.45,2.74,2.74,0,0,1-2.95-2.95,2.91,2.91,0,0,1,3-3,3.68,3.68,0,0,1,1.89.48c0-.56,0-1.15,0-1.74H187V85.09Zm-1.82,3.68a1.8,1.8,0,0,0-1.71,1.86,1.7,1.7,0,0,0,1.79,1.79,1.86,1.86,0,0,0,1.78-1.84V90.4A1.71,1.71,0,0,0,192.6,88.77Z" style="fill:#333101"/><path d="M212.84,83.81l.7,1c-1.49,1.23-3.73,3.19-5,4.34a6.48,6.48,0,0,1,2.64-.53,3.79,3.79,0,0,1,4,3.94c0,2.67-2,4.27-5.65,4.27-2.31,0-3.63-.94-3.63-2.37s1.22-2.3,2.93-2.3,2.87,1.22,3.14,3.11a2.64,2.64,0,0,0,1.83-2.67,2.78,2.78,0,0,0-3-2.82,8,8,0,0,0-3,.66,18.41,18.41,0,0,0-4,2.88l-.91-1.06c2.38-1.76,6.32-5.25,8.16-7-1.5.13-4.71.27-6.48.3l-.08-1.31C206.59,84.23,210.76,84,212.84,83.81Zm-4,9.44c-1,0-1.71.48-1.71,1.18s.75,1.2,2.27,1.2a9.15,9.15,0,0,0,1.39-.1C210.68,94.18,210,93.25,208.85,93.25Z" style="fill:#333101"/><path d="M222.15,85.19q.14-1,.24-2l1.42.08c-.06.62-.14,1.28-.24,1.94h4.75v1.28h-5a38.33,38.33,0,0,1-3.28,10.44l-1.28-.66a32.39,32.39,0,0,0,3.15-9.78h-2.87V85.19Zm4.37,7.44A3.34,3.34,0,0,0,226,94.2c0,.8,1.22,1.06,3.5,1.06a14.9,14.9,0,0,0,2.37-.18v1.31a23.13,23.13,0,0,1-2.35.11c-3,0-4.83-.53-4.83-2a4.84,4.84,0,0,1,.66-2.16Zm5.14-3.3c-.59,0-1.36-.08-2.16-.08a30.2,30.2,0,0,0-3.89.24l-.06-1.25c1.17-.13,2.75-.18,4.1-.19.75,0,1.47,0,2,0Z" style="fill:#333101"/><path d="M238.53,84a26.43,26.43,0,0,0,.14,2.79,8.84,8.84,0,0,1,3.28-.85c.06-.78.1-1.63.1-2.56l1.36,0a25.14,25.14,0,0,1-.11,2.53,5,5,0,0,1,4.75,5.23c0,2.5-1.28,4.67-5.15,5.65l-.61-1.23c3.43-.8,4.39-2.48,4.39-4.35a3.89,3.89,0,0,0-3.5-4.07,13.46,13.46,0,0,1-2.26,6.47,7.15,7.15,0,0,0,.66.82l-1,1a9.56,9.56,0,0,1-.59-.77,4.52,4.52,0,0,1-3,1.25c-1.36,0-2.23-1-2.23-2.83a6.78,6.78,0,0,1,2.72-5.55,33.69,33.69,0,0,1-.26-3.47Zm-.8,4.88a5.38,5.38,0,0,0-1.71,4c0,1,.45,1.6,1.1,1.6a3.24,3.24,0,0,0,2.18-1A16.66,16.66,0,0,1,237.73,88.85Zm2.46,3.55a12.86,12.86,0,0,0,1.65-5.27,7.54,7.54,0,0,0-3,.9A14.7,14.7,0,0,0,240.2,92.4Z" style="fill:#333101"/><path d="M265,93.78l-.94,1.15c-2.14-1.25-3.76-3.52-4.61-6.93h-5.81A11.71,11.71,0,0,1,251,95l-1.12-.85a10.28,10.28,0,0,0,2.48-7.09V83.14h11.08V88h-2.59A8.6,8.6,0,0,0,265,93.78Zm-10.93-.48a39.37,39.37,0,0,1,7.08,2.91c-.7,1.07-.75,1.12-.78,1.17a37.07,37.07,0,0,0-7-3Zm8-6.48V84.31h-8.35v2.51Zm-6.4,2.64A19.74,19.74,0,0,1,260,91.89l-.86,1a19.12,19.12,0,0,0-4.23-2.5Z" style="fill:#333101"/><path d="M279,86.5h.7c-.3,6.32-.62,9.84-1.34,10.44a2,2,0,0,1-1.3.4c-.58,0-1.83,0-2.56,0L274.31,96c.72,0,1.91.06,2.45,0a.85.85,0,0,0,.59-.19c.42-.38.7-3,.93-8.05H273.6c-.54,3.83-2,7.43-6.07,9.57l-1.09-1c3.92-1.89,5.3-5.11,5.81-8.56h-5.44V86.5h5.59c.11-1.26.13-2.54.14-3.79l1.38,0c0,1.25-.06,2.51-.18,3.78H279Z" style="fill:#333101"/><path d="M286.63,83.33c-.18,3.46-.22,6.75-.22,8.31,0,2.82,1,3.87,3.14,3.87s3.71-1.1,4.83-4.66l1.33.64c-1.47,4.16-3.54,5.41-6.19,5.41-3.12,0-4.5-1.78-4.5-5.23,0-1.55.06-4.88.1-8.34Z" style="fill:#333101"/><path d="M304.95,88.55c0-.77,0-1.55,0-2.3h-5.17V85h5.14c0-.7,0-1.33,0-1.86h1.42V85h4.9v1.23h-4.9c0,.75,0,1.54,0,2.3h4.53v1.23h-4.5c0,1.06.06,2,.08,2.75a17.72,17.72,0,0,1,4.69,2.61l-.93,1.07a14.26,14.26,0,0,0-3.75-2.37c-.08,2.11-1,3.07-3.38,3.07-2.21,0-3.54-1.14-3.54-2.47,0-1.49,1.33-2.54,3.62-2.54a8.66,8.66,0,0,1,1.89.22c0-.67,0-1.47-.06-2.35H300V88.55Zm-1.87,4.53c-1.44,0-2.27.54-2.27,1.36s.8,1.3,2.18,1.3c1.6,0,2.08-.59,2.08-2.27v-.1A7.25,7.25,0,0,0,303.08,93.08Z" style="fill:#333101"/><path d="M322.42,85.09c0-.7,0-1.38,0-2h1.47v2h4.21v1.26h-4.21v3.78a4.11,4.11,0,0,1,.06.78c0,3.11-.77,5.3-5.19,6.37L318.16,96c2.69-.56,3.73-1.47,4.11-2.9a3.62,3.62,0,0,1-1.78.45,2.74,2.74,0,0,1-2.95-2.95,2.91,2.91,0,0,1,3-3,3.68,3.68,0,0,1,1.89.48c0-.56,0-1.15,0-1.74H315V85.09Zm-1.82,3.68a1.8,1.8,0,0,0-1.71,1.86,1.7,1.7,0,0,0,1.79,1.79,1.86,1.86,0,0,0,1.78-1.84V90.4A1.71,1.71,0,0,0,320.6,88.77Z" style="fill:#333101"/><path d="M334.23,95.33a2.07,2.07,0,1,1-2.07-2.08,2.07,2.07,0,0,1,2.07,2.08Zm-3.49,0a1.42,1.42,0,1,0,1.42-1.44,1.44,1.44,0,0,0-1.42,1.42Z" style="fill:#333101"/></g></g></g></svg>