<svg xmlns="http://www.w3.org/2000/svg" viewBox="0 0 453.26 93.86"><title>title-01</title><g id="レイヤー_2" data-name="レイヤー 2"><g id="title-01"><g id="あたし_たのしい_" data-name="あたし、 たのしい。"><path d="M29.66,16.25c-.16.75-.37,1.49-.58,2.24,8.1,1,13.51,5.27,13.83,13.53v.32c0,8.47-7.78,13.27-20.66,14.6a11.83,11.83,0,0,0-.53-1.65C33.6,44.17,41.17,39.86,41.17,32.5c0-7.62-5.15-11.56-12.62-12.42A43.39,43.39,0,0,1,17.77,37a13.57,13.57,0,0,0,1.74,3.62L18,41.51a14.79,14.79,0,0,1-1.63-3.3C11.94,42.09,8,43.32,5.47,43.32,2.05,43.32,0,40.6,0,36.66c0-7.25,6.36-13.16,14-16.2-.05-1.6-.05-3.25-.05-5S14,12,14,10.18c-5.15,0-9.57-.05-12.46-.21V8.26c2.89.21,7.62.27,12.51.27.05-2.56.16-5.75.26-8.47l3.21.21a1.46,1.46,0,0,1-1.37,1.07c-.16,2.24-.26,5-.37,7.14,5.68-.05,17.72-.8,22.72-2.24l.32,1.71c-5.36,1.6-17.35,2.13-23.08,2.18-.11,3.46-.16,6.71-.11,9.75a27.5,27.5,0,0,1,9.25-1.6c.79,0,1.58,0,2.26.05a22.4,22.4,0,0,0,.58-2.56ZM15.83,36.55a65.43,65.43,0,0,1-1.73-14.33C7.2,25.1,1.63,30.43,1.63,36.66c0,2.66,1.26,5.06,4.15,5S12.41,39.59,15.83,36.55ZM26.71,20a26.94,26.94,0,0,0-11,1.65,62.08,62.08,0,0,0,1.58,13.59A40.08,40.08,0,0,0,26.71,20Z"/><path d="M68.56.43c-.05.53-.89,1-1.58,1-.37,2.61-.89,5.49-1.47,9.32a61.85,61.85,0,0,0,16.56-3.2l.58,1.65a67.49,67.49,0,0,1-17.4,3.3c-2.26,12.95-5.47,25.1-10,34.1l-1.63-.69c4.36-8.69,7.62-20.35,9.83-33.36-1.05.05-2.16.05-3.15.05H53.05l.05-1.76c.84.05,1.95.05,3.15.05s6,0,7.52-.05C64.36,7.19,64.94,3.36,65.36,0Zm28.08,45.4c-1.52.05-3,.11-4.47.11-5.68,0-10.57-.43-13.41-1.39a6.9,6.9,0,0,1-5-6.77c0-2.29.95-4.8,3.21-7.67l1.37.91c-2,2.5-2.94,4.85-2.94,6.77,0,4.8,4.31,6.45,15.56,6.45,1.79,0,3.68-.05,5.63-.21ZM95,19.88a56,56,0,0,0-18.77,2.66L75.71,21a60.79,60.79,0,0,1,19.35-2.82Z"/><path d="M118.67,1.28c-.1.59-.58,1-1.63,1.07-.42,5.59-.95,20.83-.95,28.77,0,8.74,4.21,13,11.57,13S142,40.55,148,33a5.34,5.34,0,0,0,1.31,1.17c-5.89,7.46-13.67,11.62-21.66,11.62-8.15,0-13.25-5-13.25-14.81,0-6.39.53-23.66.95-30.32Z"/><path d="M157.79,34.53A110.92,110.92,0,0,1,170,46.62l-1.52,1.49a109.89,109.89,0,0,0-12-12.31Z"/><path d="M239.56.43c-.05.53-.89,1-1.58,1-.37,2.61-.89,5.49-1.47,9.32a61.85,61.85,0,0,0,16.56-3.2l.58,1.65a67.49,67.49,0,0,1-17.4,3.3c-2.26,12.95-5.47,25.1-10,34.1l-1.63-.69c4.36-8.69,7.62-20.35,9.83-33.36-1.05.05-2.16.05-3.15.05h-7.26l.05-1.76c.84.05,1.95.05,3.15.05s6,0,7.52-.05c.58-3.62,1.16-7.46,1.58-10.82Zm28.08,45.4c-1.52.05-3,.11-4.47.11-5.68,0-10.57-.43-13.41-1.39a6.9,6.9,0,0,1-5-6.77c0-2.29.95-4.8,3.21-7.67l1.37.91c-2,2.5-2.94,4.85-2.94,6.77,0,4.8,4.31,6.45,15.56,6.45,1.79,0,3.68-.05,5.63-.21ZM266,19.88a56,56,0,0,0-18.77,2.66L246.71,21a60.79,60.79,0,0,1,19.35-2.82Z"/><path d="M300.61,6.82a1.08,1.08,0,0,1-1.16.8c-1.68,15.45-7.31,32.61-15.77,32.61-3.52,0-7.41-4.26-7.41-12.15,0-12.26,9.2-23.44,23.35-23.44C315,4.64,320.8,15,320.8,24.56c0,12.79-7.78,18.65-20.14,21.31-.16-.32-.68-1.17-.89-1.6,12.2-2.34,19.35-8.37,19.35-19.61,0-8.9-5.31-18.38-19.46-18.38h-.84Zm-2.73-.48a21.52,21.52,0,0,0-20,21.74c0,6.55,3.16,10.39,5.84,10.39C290.88,38.47,296.24,22.43,297.87,6.34Z"/><path d="M342.67,1.28c-.1.59-.58,1-1.63,1.07-.42,5.59-.95,20.83-.95,28.77,0,8.74,4.21,13,11.57,13S366,40.55,372,33a5.34,5.34,0,0,0,1.31,1.17c-5.89,7.46-13.67,11.62-21.66,11.62-8.15,0-13.25-5-13.25-14.81,0-6.39.53-23.66.95-30.32Z"/><path d="M387.21,6.13c-.16.53-.68.8-1.52.85a86.57,86.57,0,0,0-.74,11.83c0,2.56.1,5,.26,7.19.74,10.34,5.1,16.3,9.78,16.25,2.31-.05,5.47-5.54,7.83-12.52a8.16,8.16,0,0,0,1.47.85c-2.68,7.3-5.73,13.37-9.41,13.43-5.52.05-10.52-6.66-11.36-17.85-.21-2.13-.26-4.58-.26-7.14,0-4.53.26-9.38.68-13.59Zm38.65,24.14c-1.42-9.11-6.31-16.57-13.83-20.62l1-1.39c7.89,4.16,13.09,12.1,14.56,21.58Z"/><path d="M448.2,40.66a7.36,7.36,0,1,1-7.36-7.46A7.43,7.43,0,0,1,448.2,40.66Zm-1.58,0a5.78,5.78,0,1,0-5.78,5.86A5.81,5.81,0,0,0,446.62,40.66Z"/></g><g id="一期一会_" data-name="一期一会。"><path d="M24.14,84.4V86H7.59V84.4Z" style="fill:#333101"/><path d="M28.73,87.66V80.43H27.25V79.22h1.48V77.09h1.4v2.13h3.38V77.09h1.42v2.13h1.49v1.21H34.94v7.24h1.49v1.24H27.05V87.66Zm2.09,2.14a17,17,0,0,1-2.41,3.85l-1.35-.54a15.74,15.74,0,0,0,2.39-3.78Zm2.7-7.74V80.43H30.13v1.64Zm0,2.79V83.18H30.13v1.67Zm0,2.81V86H30.13v1.69Zm.34,1.6a16.71,16.71,0,0,1,1.64,2.38l-1.33.59a15.36,15.36,0,0,0-1.48-2.41Zm4.54-1.89a9.72,9.72,0,0,1-2.56,6.32l-1.31-.79C36.5,91,37,88.62,37,85.81V77.73h6.1V91.95c0,1-.25,1.51-1.15,1.66a12.43,12.43,0,0,1-2.05,0l-.25-1.42c.54,0,1.28.05,1.55,0s.45-.22.45-.54V87.38Zm3.26-5.51V79H38.45v2.83Zm0,4.21V83.15H38.45v2.93Z" style="fill:#333101"/><path d="M63.09,84.4V86H46.55V84.4Z" style="fill:#333101"/><path d="M79.13,83.77H69.55V82.64a17.43,17.43,0,0,1-2.81,1.48l-.88-1.3a16.81,16.81,0,0,0,7.62-5.73h1.46a18.27,18.27,0,0,0,7.85,5.73l-1,1.31a19.25,19.25,0,0,1-2.7-1.41Zm-9.69,7.71A48.72,48.72,0,0,0,71.57,87H66.8V85.67h15V87H73.22c-.58,1.28-1.35,2.86-2.2,4.38,2.43-.16,5.13-.34,7.31-.52-.68-.79-1.44-1.6-2.3-2.43l1.15-.74a27.45,27.45,0,0,1,4.48,5.15l-1.35.83a11.88,11.88,0,0,0-1.06-1.62c-3.58.36-9.07.83-12.15,1.06l-.32-1.48Zm9.2-9a21,21,0,0,1-4.45-4,20.62,20.62,0,0,1-4.32,4Z" style="fill:#333101"/><path d="M90.16,91.34A2.33,2.33,0,1,1,87.84,89a2.33,2.33,0,0,1,2.32,2.34Zm-3.93,0a1.59,1.59,0,1,0,1.6-1.62,1.62,1.62,0,0,0-1.6,1.6Z" style="fill:#333101"/></g><g id="_今_" data-name="「今」"><path d="M110.28,77.83H105V88.51h-1V76.9h6.32Z" style="fill:#333101"/><path d="M112.22,84.64l-1-1.26a20.24,20.24,0,0,0,7.8-6.37h1.49a21.61,21.61,0,0,0,7.92,6.25l-1,1.28a23.54,23.54,0,0,1-7.67-6.16A23,23,0,0,1,112.22,84.64Zm12.93,1.19h.16l1,.47a18,18,0,0,1-5.82,7.56l-1.31-1a16.22,16.22,0,0,0,5.06-5.67h-11V85.83h12Zm-1.06-3.24V84h-8.41V82.59Z" style="fill:#333101"/><path d="M129.47,92.92h5.33V82.24h1V93.86h-6.32Z" style="fill:#333101"/></g><g id="と"><path d="M158.21,83.22c-4.79,1.48-9.79,3.33-9.79,5.94,0,1.51,1.58,2.36,5.53,2.36a34.54,34.54,0,0,0,5.17-.4l.16,1.57a38.83,38.83,0,0,1-5.33.32c-4.74,0-7.15-1.24-7.15-3.78,0-2,1.69-3.51,4.16-4.81-1-1.62-1.15-3.51-1.15-6.79h1.62c0,3.06.09,4.83.88,6.12,1.62-.72,3.46-1.39,5.31-2Z" style="fill:#333101"/></g><g id="_人_とのつながりを大切にします_" data-name="「人」とのつながりを大切にします。"><path d="M177.28,77.83H172V88.51h-1V76.9h6.32Z" style="fill:#333101"/><path d="M187.38,80.62c1,6,3.62,9.79,7.87,11.67L194,93.64c-3.46-1.75-5.83-4.75-7.27-9.13a13.65,13.65,0,0,1-7,9.11l-1.19-1.17c7-3.46,7.38-10.68,7.45-15.32l1.58,0C187.56,78.21,187.51,79.38,187.38,80.62Z" style="fill:#333101"/><path d="M196.47,92.92h5.33V82.24h1V93.86h-6.32Z" style="fill:#333101"/><path d="M228.21,83.22c-4.79,1.48-9.79,3.33-9.79,5.94,0,1.51,1.58,2.36,5.53,2.36a34.54,34.54,0,0,0,5.17-.4l.16,1.57a38.83,38.83,0,0,1-5.33.32c-4.74,0-7.15-1.24-7.15-3.78,0-2,1.69-3.51,4.16-4.81-1-1.62-1.15-3.51-1.15-6.79h1.62c0,3.06.09,4.83.88,6.12,1.62-.72,3.46-1.39,5.31-2Z" style="fill:#333101"/><path d="M233.4,86.87A7.87,7.87,0,0,1,241.22,79c4.92,0,7.06,2.85,7.06,6.5,0,3.48-1.62,6.32-6.64,7.42l-.76-1.51c4.46-.79,5.76-3,5.76-5.87s-1.69-4.92-5-5c-.23,6.84-2.38,11.47-5,11.47-1.84,0-3.19-2.43-3.19-5.06Zm1.49,0c0,1.82.77,3.38,1.71,3.38,1.42,0,3.26-3.55,3.42-9.65A6.21,6.21,0,0,0,234.9,86.85Z" style="fill:#333101"/><path d="M260.12,79.85c3.67,0,6.07,2.2,6.07,5.67,0,4.18-2.79,6.55-10,6.75l-.31-1.58c6.32-.07,8.62-1.82,8.62-5.08,0-2.5-1.67-4.21-4.68-4.21a40,40,0,0,0-8.41,1.73L251,81.47C254.32,80.75,258,79.85,260.12,79.85Z" style="fill:#333101"/><path d="M273,80.26a22.77,22.77,0,0,0,.56-2.72l1.58.18c-.13.76-.31,1.62-.54,2.54h3v1.42h-3.37A32.3,32.3,0,0,1,270.66,90l-1.42-.83a27.13,27.13,0,0,0,3.37-7.45h-2.83V80.26Zm7.92,2.84c0,.45-.05,1.12-.05,1.78,0,1.12,0,2.41.05,3.46a13.59,13.59,0,0,1,3.35,2l-.9,1.17a11.32,11.32,0,0,0-2.43-1.69v.05c0,2.11-1,3.24-3.37,3.24s-3.67-1.22-3.67-2.77,1.3-2.7,3.62-2.7a9,9,0,0,1,1.93.23c0-.94,0-2,0-3V83.11Zm-3.4,5.74c-1.46,0-2.29.56-2.29,1.48s.92,1.46,2.16,1.46c1.44,0,2.07-.59,2.07-1.91v-.7A6.3,6.3,0,0,0,277.52,88.85Zm6.3-5.55a23.57,23.57,0,0,0-4.59-2.52l.74-1.22A32.51,32.51,0,0,1,284.6,82Z" style="fill:#333101"/><path d="M291.54,81.78a31.9,31.9,0,0,0,.7-4.16l1.57.2c-.2,1.28-.43,2.58-.72,3.85q.7-.05,1.24-.05c2.47,0,3.58,1.3,3.58,4a14.09,14.09,0,0,1-1.15,6.3,2.39,2.39,0,0,1-2.41,1.21,11.2,11.2,0,0,1-2.52-.31l.11-1.46a7.41,7.41,0,0,0,2.12.34c.7,0,1-.07,1.37-.59.58-.85,1-3,1-5.44,0-1.91-.58-2.63-2.14-2.63q-.68,0-1.51.05a31.24,31.24,0,0,1-3.89,9.27l-1.37-.74a26.5,26.5,0,0,0,3.73-8.39c-1.24.13-2.54.32-3.66.54l-.27-1.44C288.54,82.12,290.12,81.92,291.54,81.78Zm11.88,6.32-1.55.4a12.11,12.11,0,0,0-3.21-6.93l1.24-.79A13.71,13.71,0,0,1,303.43,88.1Zm-3.55-10.37a12.21,12.21,0,0,1,1.91,2.16l-.76.59a10.1,10.1,0,0,0-1.85-2.14Zm1.84-1.08a12.19,12.19,0,0,1,1.93,2.14l-.76.59A10.14,10.14,0,0,0,301,77.24Z" style="fill:#333101"/><path d="M307.11,83.29a19.84,19.84,0,0,1,.67-5.13l1.58.32a15,15,0,0,0-.77,4.68,9.75,9.75,0,0,0,.31,2.61c.32-.65,1.12-2.05,1.55-2.75l1,.86A26,26,0,0,0,309.29,88l-1.35.22a12.72,12.72,0,0,1-.83-4.88Zm10.53-5.38a31.87,31.87,0,0,1,.61,6.37c0,4.11-1.35,7.2-6.64,8.91l-.88-1.48c4.84-1.39,5.91-3.75,5.91-7.4a26,26,0,0,0-.65-6.12Z" style="fill:#333101"/><path d="M337.81,84.46c-1.53.52-3.33,1.19-5,1.91a21.88,21.88,0,0,1,.23,3.58H331.6c0-.31,0-.56,0-.83a14.56,14.56,0,0,0-.11-2.12c-1.89,1-3.31,2-3.31,3.1s1.3,1.62,4.09,1.62a27.47,27.47,0,0,0,4.61-.38l.14,1.44a30.57,30.57,0,0,1-4.74.31c-3.58,0-5.64-1-5.64-2.93,0-1.78,2.05-3.26,4.52-4.5-.27-.72-.67-1.06-1.17-1.06a6.16,6.16,0,0,0-3.84,1.69,18.68,18.68,0,0,0-1.69,1.78l-1.21-1a20.89,20.89,0,0,0,4.07-5.83h-3.6V79.89H328a15.09,15.09,0,0,0,.74-2.34l1.58.31a17.93,17.93,0,0,1-.67,2h5.78v1.37H329a18,18,0,0,1-1.85,3.19,6,6,0,0,1,3.15-1.1A2.24,2.24,0,0,1,332.5,85c1.64-.74,3.37-1.39,4.74-2Z" style="fill:#333101"/><path d="M357.19,92.27l-1.12,1.35c-3.53-1.37-5.91-4-7.26-8.25a11.84,11.84,0,0,1-7.08,8.25l-1.17-1.22a10.78,10.78,0,0,0,7.11-8.84h-7V82.14h7.2a45,45,0,0,0,.22-5l1.58,0c0,1.69-.09,3.37-.27,5h7.63v1.42h-7.17C351,88.33,353.4,91,357.19,92.27Z" style="fill:#333101"/><path d="M360.63,81.92V77.09h1.49v4.52c2.11-.43,3-.65,3.94-.86l.27,1.35-4.21.92v4.32c0,1.13.14,1.31.61,1.31h1.51c.52,0,.58-.13.59-2.38l1.3.22c-.13,3.24-.4,3.57-1.76,3.62-.54,0-1.33,0-1.78,0-1.55,0-2-.58-2-2.77v-4l-1.87.41-.27-1.39Zm4.18,11.76-1.28-1c4.47-2.66,4.93-7.72,5-13.05h-2.94v-1.4h9.09c-.22,9-.43,14.17-1.15,14.94a1.81,1.81,0,0,1-1.39.5c-.54,0-1.69,0-2.36,0l-.22-1.5c.61.05,1.67.07,2.14.05a.66.66,0,0,0,.58-.23c.45-.52.67-4.61.83-12.33h-3.08C369.92,85.29,369.32,90.76,364.81,93.68Z" style="fill:#333101"/><path d="M378.56,86.24a39.48,39.48,0,0,1,1-8.52l1.62.29a32.67,32.67,0,0,0-1,8.21,16.86,16.86,0,0,0,1,6.41l-1.6.47a20.31,20.31,0,0,1-1-6.84Zm13.52,5.6c-1.13.11-2.41.18-3.48.18C385.4,92,383,91.5,383,89.7a6.8,6.8,0,0,1,.81-2.75l1.4.27a4.64,4.64,0,0,0-.68,2c0,1,1.44,1.33,4,1.33a25.61,25.61,0,0,0,3.51-.27Zm-3-11.63c.9,0,1.89,0,2.65,0l0,1.48c-.88-.07-2-.11-3.08-.11-1.76,0-3.73.11-5.28.27l-.09-1.44c1.67-.16,3.85-.23,5.82-.23Z" style="fill:#333101"/><path d="M399.71,77.83c-.2,3.89-.25,7.6-.25,9.35,0,3.17,1.08,4.36,3.53,4.36s4.18-1.24,5.44-5.24l1.49.72c-1.66,4.68-4,6.08-7,6.08-3.51,0-5.06-2-5.06-5.89,0-1.75.07-5.49.11-9.38Z" style="fill:#333101"/><path d="M420.32,83.7c0-.86,0-1.75-.05-2.59h-5.82V79.72h5.78c0-.79,0-1.49,0-2.09h1.6v2.09h5.51v1.39h-5.51c0,.85,0,1.73.05,2.59H427v1.39H421.9c0,1.19.07,2.29.09,3.1a19.89,19.89,0,0,1,5.28,2.93l-1,1.21A16,16,0,0,0,422,89.66c-.09,2.38-1.1,3.46-3.8,3.46-2.48,0-4-1.28-4-2.77,0-1.67,1.49-2.86,4.07-2.86a9.76,9.76,0,0,1,2.13.25c0-.76,0-1.66-.07-2.65h-5.55V83.7Zm-2.11,5.1c-1.62,0-2.56.61-2.56,1.53s.9,1.46,2.45,1.46c1.8,0,2.34-.67,2.34-2.56v-.11A8.17,8.17,0,0,0,418.21,88.8Z" style="fill:#333101"/><path d="M440,79.81c0-.79,0-1.55-.05-2.2h1.66v2.2h4.74v1.42h-4.74v4.25a4.64,4.64,0,0,1,.07.88c0,3.49-.86,6-5.83,7.17l-.63-1.42c3-.63,4.2-1.66,4.63-3.26a4.06,4.06,0,0,1-2,.5A3.08,3.08,0,0,1,434.5,86a3.27,3.27,0,0,1,3.38-3.38,4.13,4.13,0,0,1,2.13.54c0-.63,0-1.3,0-2h-8.32V79.81ZM437.92,84A2,2,0,0,0,436,86a1.91,1.91,0,0,0,2,2A2.09,2.09,0,0,0,440,86v-.2A1.92,1.92,0,0,0,437.92,84Z" style="fill:#333101"/><path d="M453.26,91.34A2.33,2.33,0,1,1,450.93,89a2.33,2.33,0,0,1,2.32,2.34Zm-3.93,0a1.59,1.59,0,1,0,1.6-1.62,1.62,1.62,0,0,0-1.6,1.6Z" style="fill:#333101"/></g></g></g></svg>