<svg xmlns="http://www.w3.org/2000/svg" viewBox="0 0 300.81 334.38"><defs><style>.cls-1{fill:#231815;}.cls-2{fill:#9c917d;}</style></defs><g id="レイヤー_2" data-name="レイヤー 2"><g id="レイヤー_1-2" data-name="レイヤー 1"><path class="cls-1" d="M40,27.86q-.12-2.52-.12-4.71a18,18,0,0,0-.09-2,2.45,2.45,0,0,0-.59-1.39,5.8,5.8,0,0,1-1.13-1.63,3.57,3.57,0,0,1-.29-1.39,2.71,2.71,0,0,1,.75-1.43,13.93,13.93,0,0,1,1.76-1.76,17,17,0,0,1,2.06-1.47A3.59,3.59,0,0,1,44,11.48a4.19,4.19,0,0,1,2.1.71c.79.48,1.18.88,1.18,1.22a6.12,6.12,0,0,1-.38,2.06A8.77,8.77,0,0,0,46.43,18q-.34,3.69-.55,12.39t-.21,23.81q0,5-.63,6.68A2.17,2.17,0,0,1,43,62.47a2.52,2.52,0,0,1-1-.21,1.79,1.79,0,0,1-.79-1,10.65,10.65,0,0,1-.55-2.57c-.14-1.14-.24-2.74-.3-4.78s-.09-4.62-.12-7.73,0-6.88,0-11.3C40.13,31.86,40.08,29.54,40,27.86Z"/><path class="cls-1" d="M112.43,22.61c1.79-3,3.15-5.26,4.07-6.81a22,22,0,0,1,2-2.94,1.68,1.68,0,0,1,1.18-.63,7.09,7.09,0,0,1,1.39.21c.58.15,1.17.31,1.76.51a10.6,10.6,0,0,1,1.51.63c.42.22.63.42.63.59a11.61,11.61,0,0,1-.12,1.72,8.34,8.34,0,0,0-.13,1.38,48.89,48.89,0,0,0,.59,6.68q.59,4.08,1.47,8.65c.59,3.06,1.23,6.15,1.93,9.29s1.34,6,1.93,8.61,1.08,4.77,1.47,6.51a24.14,24.14,0,0,1,.59,3.1A1.15,1.15,0,0,1,132,61a7,7,0,0,1-1.56.71c-.58.2-1.13.37-1.63.51a4.88,4.88,0,0,1-1,.21,1.35,1.35,0,0,1-1-.34,3.19,3.19,0,0,1-.46-1.51q-.67-5.71-1.6-11.22T122.8,38.74c-.64-3.45-1.27-6.75-1.89-9.92s-1.12-6.14-1.51-8.94q-5.55,8.49-8.82,13.69t-5,8.27a32.64,32.64,0,0,0-2.31,4.58A9.75,9.75,0,0,0,102.6,49a2.57,2.57,0,0,1-.67,1.89,2.83,2.83,0,0,1-1.77.46,2.36,2.36,0,0,1-1.68-.5,7.27,7.27,0,0,1-1.17-2.19c-.23-.5-.7-1.39-1.43-2.65s-1.61-2.7-2.65-4.32-2.17-3.36-3.4-5.21-2.44-3.64-3.61-5.38S84,27.79,83,26.3l-2.31-3.48c-.16.67-.44,2-.84,3.95S79,31,78.49,33.53s-1,5.24-1.55,8.06-1,5.46-1.47,7.9-.82,4.52-1.09,6.26a30.41,30.41,0,0,0-.43,3.1,5.67,5.67,0,0,0,.17,1.35,5.66,5.66,0,0,1,.17,1.34.81.81,0,0,1-.38.63,2,2,0,0,1-1.22.3A14.7,14.7,0,0,1,69,62.05,1.85,1.85,0,0,1,67.4,60.2a6.28,6.28,0,0,1,.42-1.89c.28-.81.67-2,1.18-3.49.28-.89.67-2.31,1.17-4.24s1-4.14,1.6-6.64,1.13-5.1,1.72-7.85,1.12-5.35,1.6-7.81.87-4.66,1.17-6.59a30.4,30.4,0,0,0,.47-4.16,3.42,3.42,0,0,0-.42-2A2.49,2.49,0,0,1,75.89,14c0-.62.42-1,1.26-1.22a14.26,14.26,0,0,1,3.1-.29,4,4,0,0,1,1.89.29A1.73,1.73,0,0,1,82.77,14a15,15,0,0,0,1.43,3.53q1.18,2.26,2.86,5.08t3.65,5.88c1.32,2,2.59,4,3.82,5.79s2.36,3.46,3.36,4.92l2.27,3.28L105,34.83Q109.74,27.11,112.43,22.61Z"/><path class="cls-1" d="M152,27.4a89.2,89.2,0,0,0-.63-8.95,4.12,4.12,0,0,0-.25-.92,1.34,1.34,0,0,0-.67-.68c-.84-.44-1.26-1-1.26-1.51a2.86,2.86,0,0,1,1.47-2.22,18.5,18.5,0,0,1,3.4-1.89,25.31,25.31,0,0,1,4-1.35,14.69,14.69,0,0,1,3.15-.5,29.43,29.43,0,0,1,10.33,2.1,7.76,7.76,0,0,1,2.19,1.59,17,17,0,0,1,2,2.4,14,14,0,0,1,1.43,2.69,7.09,7.09,0,0,1,.54,2.56q0,5.88-1.42,8.06a22.75,22.75,0,0,1-2.19,2.9,37.28,37.28,0,0,1-2.81,2.94,26.83,26.83,0,0,1-2.77,2.31,4,4,0,0,1-2,.92,5.27,5.27,0,0,1-1.64-.33,16.87,16.87,0,0,1-1.84-.76,8,8,0,0,1-1.52-.92c-.42-.34-.63-.59-.63-.76a.85.85,0,0,1,.42-.71,4.74,4.74,0,0,1,1.6-.55,11.15,11.15,0,0,0,6.38-3.53,8.84,8.84,0,0,0,2.36-6,19.31,19.31,0,0,0-.3-3.07,13.43,13.43,0,0,0-1-3.48,8.49,8.49,0,0,0-2.06-2.86A4.63,4.63,0,0,0,165,13.75a10.83,10.83,0,0,0-3.4.5,16.07,16.07,0,0,0-3.24,1.51c-.11,1-.22,2.09-.33,3.4s-.21,2.69-.3,4.12-.15,2.84-.21,4.24-.08,2.66-.08,3.78V53.48a16.51,16.51,0,0,1-1,6.8,3.72,3.72,0,0,1-3.65,2.19c-1,0-1.43-.42-1.43-1.26a2.77,2.77,0,0,1,.12-.76c.09-.28.2-.66.34-1.13a11.82,11.82,0,0,0,.34-1.94c.08-.81.12-1.89.12-3.23V41.63Q152.24,33.49,152,27.4Z"/><path class="cls-1" d="M221.63,56a4.19,4.19,0,0,1,2.1-.71c1,0,1.42.36,1.42,1.09a8.23,8.23,0,0,1-.21,1.22,16.38,16.38,0,0,1-.58,2,15.75,15.75,0,0,1-.85,1.93c-.3.59-.62.89-1,.89a4.4,4.4,0,0,1-1.39-.21l-1.89-.63a1.71,1.71,0,0,0-.58-.13c-.28,0-.76,0-1.43-.08l-2.73-.09c-1.15,0-2.62,0-4.41,0s-3.43,0-4.58,0l-2.73.09a8,8,0,0,0-1.47.16,4.82,4.82,0,0,0-.8.3,5.43,5.43,0,0,1-2.6.59,1.5,1.5,0,0,1-1.05-.59,11.45,11.45,0,0,1-1-1.3,7.64,7.64,0,0,1-.8-1.43,3.12,3.12,0,0,1-.29-1,2.47,2.47,0,0,1,.84-1.55,3.49,3.49,0,0,0,.84-2.48c0-.89.09-2,.12-3.27s0-2.8,0-4.54V34.49a89.88,89.88,0,0,0-.42-9.78,56.72,56.72,0,0,0-.88-5.71,13,13,0,0,0-.88-2.86,3,3,0,0,1-.42-1.3c0-.28.26-.7.8-1.26a14.37,14.37,0,0,1,1.85-1.64,18.57,18.57,0,0,1,2.1-1.39,3.67,3.67,0,0,1,1.47-.58,4.31,4.31,0,0,1,1.84.54,1.67,1.67,0,0,1,1.1,1.47,6.64,6.64,0,0,1-.34,1.85,7.52,7.52,0,0,0-.34,2.27q0,3.78-.25,7.47T202,30.8c0,1.57,0,3,.08,4.41s.09,3,.09,4.83-.06,3.51-.17,5.33-.22,3.52-.34,5.08-.22,2.95-.33,4.12-.17,2-.17,2.52.34.67,1,.67a2.4,2.4,0,0,0,.88-.17,3.13,3.13,0,0,1,1-.16l15.2-.59A5.27,5.27,0,0,0,221.63,56Z"/><path class="cls-1" d="M260.1,34.58a1.68,1.68,0,0,1-.46.8,11.1,11.1,0,0,1-1.14,1.13,13.19,13.19,0,0,1-1.3,1,2,2,0,0,1-1.05.42q-3.78.33-7,.38t-5.76.12q0,10.08,4,15.16t12.6,5.09a6.14,6.14,0,0,1,2.48.33,1.48,1.48,0,0,1,.63,1.43c0,.45-.42.9-1.26,1.34a10.29,10.29,0,0,1-4.45.68,27.54,27.54,0,0,1-8.15-1,17.57,17.57,0,0,1-5.63-2.82A13.6,13.6,0,0,1,240,54.53a20,20,0,0,1-2-4.87,26.93,26.93,0,0,1-.84-5.17c-.12-1.73-.17-3.39-.17-5a54,54,0,0,1,1.55-14.07,28.42,28.42,0,0,1,4.08-9.15,14.54,14.54,0,0,1,5.83-5,16.79,16.79,0,0,1,6.85-1.47,13.73,13.73,0,0,1,4.79.55,2,2,0,0,1,1.26,2c0,1.24-.53,1.85-1.6,1.85h-4.95a9.52,9.52,0,0,0-3.91.84,8.37,8.37,0,0,0-3.44,3.15,21.49,21.49,0,0,0-2.65,6.34,50.5,50.5,0,0,0-1.43,10.33,5.63,5.63,0,0,1,1.6-1,5.74,5.74,0,0,1,2.18-.38H258.5C259.56,33.57,260.1,33.91,260.1,34.58Z"/><path class="cls-1" d="M.38,54.48a1.06,1.06,0,0,1,.8-.43A5.81,5.81,0,0,1,4,55a7.93,7.93,0,0,0,4,.91,4.41,4.41,0,0,0,3.65-1.77,6.18,6.18,0,0,0,1.39-3.88,15.62,15.62,0,0,0-.8-4.49q-.8-2.59-2-5.5t-2.56-6c-.92-2.07-1.78-4.08-2.56-6s-1.44-3.78-2-5.5a15.08,15.08,0,0,1-.8-4.4A14.62,14.62,0,0,1,3.4,13.63a35.41,35.41,0,0,1,3-6.07,24.54,24.54,0,0,1,4.36-5.31A7.66,7.66,0,0,1,16,0a16,16,0,0,1,1.72.14,14.05,14.05,0,0,1,2.23.48,8.54,8.54,0,0,1,1.93.86,1.52,1.52,0,0,1,.84,1.29,3.46,3.46,0,0,1-.63,2.49,5.29,5.29,0,0,1-3,.67q-5.55.2-8,2.92a9.72,9.72,0,0,0-2.44,6.74,18.62,18.62,0,0,0,1.43,6.27q1.42,3.78,3.15,8.13t3.15,9a30.23,30.23,0,0,1,1.43,8.85A23.57,23.57,0,0,1,17.39,51a20.69,20.69,0,0,1-1.56,4.92,16.19,16.19,0,0,1-3,4.55,6.44,6.44,0,0,1-4.91,2A8.66,8.66,0,0,1,6,62.18a15.27,15.27,0,0,1-2.31-.77,15.68,15.68,0,0,1-2-1,2.25,2.25,0,0,1-1-1c-.17-.58-.31-1.13-.42-1.68A8.18,8.18,0,0,1,0,56,2.27,2.27,0,0,1,.38,54.48Z"/><path class="cls-1" d="M.38,187.43a1.1,1.1,0,0,1,.8-.43,5.92,5.92,0,0,1,2.77.91,7.83,7.83,0,0,0,4,.91,4.41,4.41,0,0,0,3.65-1.77,6.17,6.17,0,0,0,1.39-3.87,15.62,15.62,0,0,0-.8-4.5q-.8-2.58-2-5.5t-2.56-6c-.92-2.07-1.78-4.08-2.56-6s-1.44-3.78-2-5.5a15.08,15.08,0,0,1-.8-4.4,14.56,14.56,0,0,1,1.13-4.64,35.49,35.49,0,0,1,3-6.08,24.54,24.54,0,0,1,4.36-5.31A7.66,7.66,0,0,1,16,133a14.18,14.18,0,0,1,1.72.15,12.14,12.14,0,0,1,2.23.48,8.12,8.12,0,0,1,1.93.86,1.52,1.52,0,0,1,.84,1.29,3.47,3.47,0,0,1-.63,2.49,5.38,5.38,0,0,1-3,.67c-3.7.12-6.36,1.1-8,2.91a9.74,9.74,0,0,0-2.44,6.75,18.57,18.57,0,0,0,1.43,6.26q1.42,3.78,3.15,8.13c1.15,2.91,2.2,5.9,3.15,9a30.12,30.12,0,0,1,1.43,8.85,23.29,23.29,0,0,1-.42,3.15,20.76,20.76,0,0,1-1.56,4.93,16.14,16.14,0,0,1-3,4.54,6.44,6.44,0,0,1-4.91,2A8.12,8.12,0,0,1,6,195.13a15.22,15.22,0,0,1-2.31-.76,17.11,17.11,0,0,1-2-1,2.3,2.3,0,0,1-1-1c-.17-.57-.31-1.13-.42-1.67A8.18,8.18,0,0,1,0,188.92,2.3,2.3,0,0,1,.38,187.43Z"/><path class="cls-1" d="M40,160.81c-.08-1.68-.12-3.24-.12-4.7a18,18,0,0,0-.09-2,2.4,2.4,0,0,0-.59-1.39,5.83,5.83,0,0,1-1.13-1.64,3.49,3.49,0,0,1-.29-1.38,2.67,2.67,0,0,1,.75-1.43,13.36,13.36,0,0,1,1.76-1.77,17,17,0,0,1,2.06-1.47,3.59,3.59,0,0,1,1.64-.63,4.12,4.12,0,0,1,2.1.72c.79.47,1.18.88,1.18,1.22a6.07,6.07,0,0,1-.38,2,8.77,8.77,0,0,0-.46,2.48q-.34,3.71-.55,12.39t-.21,23.82q0,5-.63,6.67A2.16,2.16,0,0,1,43,195.42a2.52,2.52,0,0,1-1-.21,1.79,1.79,0,0,1-.79-1.05,10.55,10.55,0,0,1-.55-2.56c-.14-1.15-.24-2.74-.3-4.79s-.09-4.62-.12-7.73,0-6.87,0-11.29C40.13,164.82,40.08,162.49,40,160.81Z"/><path class="cls-1" d="M112.43,155.56l4.07-6.8a21.3,21.3,0,0,1,2-2.94,1.68,1.68,0,0,1,1.18-.63,6.4,6.4,0,0,1,1.39.21c.58.14,1.17.31,1.76.5a10.6,10.6,0,0,1,1.51.63c.42.23.63.42.63.59a11.51,11.51,0,0,1-.12,1.72,8.54,8.54,0,0,0-.13,1.39,49,49,0,0,0,.59,6.68c.39,2.71.88,5.6,1.47,8.65s1.23,6.15,1.93,9.28,1.34,6,1.93,8.61l1.47,6.51a24.14,24.14,0,0,1,.59,3.11c0,.34-.22.64-.67.92a7.51,7.51,0,0,1-1.56.72c-.58.19-1.13.36-1.63.5a4.88,4.88,0,0,1-1,.21,1.35,1.35,0,0,1-1-.33,3.24,3.24,0,0,1-.46-1.52q-.67-5.7-1.6-11.21t-1.89-10.67c-.64-3.44-1.27-6.75-1.89-9.91s-1.12-6.15-1.51-8.95q-5.55,8.49-8.82,13.7t-5,8.27a31.58,31.58,0,0,0-2.31,4.58,9.69,9.69,0,0,0-.63,2.6,2.57,2.57,0,0,1-.67,1.89,2.83,2.83,0,0,1-1.77.46,2.31,2.31,0,0,1-1.68-.5,7.18,7.18,0,0,1-1.17-2.18c-.23-.51-.7-1.39-1.43-2.65s-1.61-2.7-2.65-4.33-2.17-3.36-3.4-5.2-2.44-3.64-3.61-5.38S84,160.74,83,159.26l-2.31-3.49c-.16.67-.44,2-.84,3.95s-.84,4.22-1.34,6.76-1,5.24-1.55,8.07-1,5.46-1.47,7.89-.82,4.53-1.09,6.26a30.43,30.43,0,0,0-.43,3.11,5.53,5.53,0,0,0,.17,1.34,5.67,5.67,0,0,1,.17,1.35.84.84,0,0,1-.38.63,2,2,0,0,1-1.22.29A14.7,14.7,0,0,1,69,195a1.84,1.84,0,0,1-1.64-1.85,6.4,6.4,0,0,1,.42-1.89c.28-.81.67-2,1.18-3.48.28-.9.67-2.31,1.17-4.24s1-4.15,1.6-6.64,1.13-5.11,1.72-7.85,1.12-5.35,1.6-7.82.87-4.66,1.17-6.59a30.24,30.24,0,0,0,.47-4.16,3.36,3.36,0,0,0-.42-2,2.52,2.52,0,0,1-.42-1.56c0-.61.42-1,1.26-1.21a13.6,13.6,0,0,1,3.1-.3,3.88,3.88,0,0,1,1.89.3,1.7,1.7,0,0,1,.63,1.21,15,15,0,0,0,1.43,3.53c.79,1.51,1.74,3.21,2.86,5.08s2.34,3.84,3.65,5.88,2.59,4,3.82,5.8,2.36,3.46,3.36,4.91l2.27,3.28,4.79-7.64Q109.74,160.05,112.43,155.56Z"/><path class="cls-1" d="M152,160.35a89,89,0,0,0-.63-8.94,4.21,4.21,0,0,0-.25-.93,1.32,1.32,0,0,0-.67-.67c-.84-.45-1.26-.95-1.26-1.51a2.86,2.86,0,0,1,1.47-2.23,18.5,18.5,0,0,1,3.4-1.89,24.3,24.3,0,0,1,4-1.34,14.21,14.21,0,0,1,3.15-.51,27.55,27.55,0,0,1,5,.55,27,27,0,0,1,5.29,1.55,7.81,7.81,0,0,1,2.19,1.6,17.51,17.51,0,0,1,2,2.39,14.25,14.25,0,0,1,1.43,2.69,7.13,7.13,0,0,1,.54,2.56q0,5.88-1.42,8.07a24.26,24.26,0,0,1-2.19,2.9c-.89,1-1.83,2-2.81,2.94a28.17,28.17,0,0,1-2.77,2.31,4.1,4.1,0,0,1-2,.92,5,5,0,0,1-1.64-.34,16.84,16.84,0,0,1-1.84-.75,7.57,7.57,0,0,1-1.52-.93q-.63-.49-.63-.75a.87.87,0,0,1,.42-.72,5,5,0,0,1,1.6-.54,11.2,11.2,0,0,0,6.38-3.53,8.84,8.84,0,0,0,2.36-6,19.31,19.31,0,0,0-.3-3.07,13.62,13.62,0,0,0-1-3.49,8.35,8.35,0,0,0-2.06-2.85A4.59,4.59,0,0,0,165,146.7a10.83,10.83,0,0,0-3.4.51,15.54,15.54,0,0,0-3.24,1.51c-.11.95-.22,2.08-.33,3.4s-.21,2.69-.3,4.12-.15,2.84-.21,4.24-.08,2.66-.08,3.78v22.17a16.6,16.6,0,0,1-1,6.81,3.73,3.73,0,0,1-3.65,2.18c-1,0-1.43-.42-1.43-1.26a2.77,2.77,0,0,1,.12-.75c.09-.29.2-.66.34-1.14a11.66,11.66,0,0,0,.34-1.93c.08-.81.12-1.89.12-3.23V174.59Q152.24,166.45,152,160.35Z"/><path class="cls-1" d="M221.63,189a4.12,4.12,0,0,1,2.1-.72c1,0,1.42.37,1.42,1.09a8,8,0,0,1-.21,1.22,16,16,0,0,1-.58,2,16.46,16.46,0,0,1-.85,1.93c-.3.59-.62.88-1,.88a4.4,4.4,0,0,1-1.39-.21l-1.89-.63a1.77,1.77,0,0,0-.58-.12c-.28,0-.76-.06-1.43-.09s-1.59-.05-2.73-.08-2.62,0-4.41,0-3.43,0-4.58,0-2.06.05-2.73.08a7.78,7.78,0,0,0-1.47.17,4.09,4.09,0,0,0-.8.29,5.31,5.31,0,0,1-2.6.59,1.47,1.47,0,0,1-1.05-.59,10.63,10.63,0,0,1-1-1.3,7.06,7.06,0,0,1-.8-1.43,3,3,0,0,1-.29-1,2.47,2.47,0,0,1,.84-1.56,3.47,3.47,0,0,0,.84-2.47c0-.9.09-2,.12-3.28s0-2.8,0-4.54V167.45a90,90,0,0,0-.42-9.79,57.19,57.19,0,0,0-.88-5.71,13,13,0,0,0-.88-2.85,3,3,0,0,1-.42-1.31c0-.28.26-.7.8-1.26a14.33,14.33,0,0,1,1.85-1.63,16.2,16.2,0,0,1,2.1-1.39,3.74,3.74,0,0,1,1.47-.59,4.21,4.21,0,0,1,1.84.55,1.65,1.65,0,0,1,1.1,1.47,6.58,6.58,0,0,1-.34,1.84,7.52,7.52,0,0,0-.34,2.27c0,2.52-.08,5-.25,7.48s-.25,4.87-.25,7.22c0,1.57,0,3,.08,4.41s.09,3,.09,4.83-.06,3.52-.17,5.34-.22,3.51-.34,5.08-.22,2.94-.33,4.12-.17,2-.17,2.52.34.67,1,.67a2.63,2.63,0,0,0,.88-.17,3.12,3.12,0,0,1,1-.17l15.2-.59A5.25,5.25,0,0,0,221.63,189Z"/><path class="cls-1" d="M260.1,167.53a1.64,1.64,0,0,1-.46.8,11.12,11.12,0,0,1-1.14,1.14,13,13,0,0,1-1.3,1,2,2,0,0,1-1.05.42c-2.52.23-4.86.35-7,.38s-4.08.07-5.76.13q0,10.08,4,15.16t12.6,5.08a5.92,5.92,0,0,1,2.48.34,1.47,1.47,0,0,1,.63,1.43c0,.44-.42.89-1.26,1.34a10.33,10.33,0,0,1-4.45.67,27.54,27.54,0,0,1-8.15-1,17.77,17.77,0,0,1-5.63-2.81,13.64,13.64,0,0,1-3.57-4.08,20,20,0,0,1-2-4.87,27,27,0,0,1-.84-5.16c-.12-1.74-.17-3.39-.17-5a54,54,0,0,1,1.55-14.07,28.58,28.58,0,0,1,4.08-9.16,14.52,14.52,0,0,1,5.83-4.95,16.79,16.79,0,0,1,6.85-1.47,14.05,14.05,0,0,1,4.79.54,2,2,0,0,1,1.26,2c0,1.23-.53,1.85-1.6,1.85h-4.95a9.52,9.52,0,0,0-3.91.84,8.37,8.37,0,0,0-3.44,3.15,21.49,21.49,0,0,0-2.65,6.34,50.5,50.5,0,0,0-1.43,10.33,5.89,5.89,0,0,1,1.6-1,5.75,5.75,0,0,1,2.18-.37H258.5C259.56,166.53,260.1,166.86,260.1,167.53Z"/><path class="cls-1" d="M278.51,188.41a1.14,1.14,0,0,1,.8-.38,6.43,6.43,0,0,1,2.77.8,8.79,8.79,0,0,0,3.95.8,4.64,4.64,0,0,0,3.65-1.56,5,5,0,0,0,1.39-3.4,12.23,12.23,0,0,0-.8-3.95q-.79-2.26-2-4.83t-2.56-5.29c-.93-1.82-1.78-3.58-2.57-5.29s-1.44-3.32-2-4.83a12.06,12.06,0,0,1-.8-3.87,11.35,11.35,0,0,1,1.14-4.07,29.21,29.21,0,0,1,3-5.33,22.11,22.11,0,0,1,4.37-4.67,8.21,8.21,0,0,1,5.16-2,15.76,15.76,0,0,1,1.73.13,14,14,0,0,1,2.22.42,8.26,8.26,0,0,1,1.93.75,1.34,1.34,0,0,1,.84,1.14,2.77,2.77,0,0,1-.63,2.18,5.85,5.85,0,0,1-3,.59q-5.55.16-8,2.56a8,8,0,0,0-2.43,5.92,14.59,14.59,0,0,0,1.42,5.5c1,2.22,2,4.6,3.15,7.14s2.2,5.18,3.15,7.9a23.58,23.58,0,0,1,1.43,7.77,18.15,18.15,0,0,1-.42,2.77,17,17,0,0,1-1.55,4.33,14.54,14.54,0,0,1-3,4,6.94,6.94,0,0,1-4.91,1.76,9.42,9.42,0,0,1-1.93-.25,16.53,16.53,0,0,1-2.31-.67,18.74,18.74,0,0,1-2-.88,2.11,2.11,0,0,1-1-.89,14.93,14.93,0,0,1-.42-1.47,6.81,6.81,0,0,1-.17-1.55A1.8,1.8,0,0,1,278.51,188.41Z"/><path class="cls-2" d="M10.37,328.22,8.9,328l-4.7-.71a6.57,6.57,0,0,1-2.06-.56,1.25,1.25,0,0,1-.63-1.18,2,2,0,0,1,.38-1.27c.25-.31.53-.66.84-1.07a6.89,6.89,0,0,0,.88-1.73,10.73,10.73,0,0,0,.51-3.16q.24-6.12.42-12.54t.16-11.92c0-1.49,0-3.11-.12-4.84s-.2-3.45-.34-5.15-.29-3.27-.46-4.73-.34-2.67-.5-3.62c-.12-.61-.35-1-.72-1.07s-.73-.19-1.09-.26a3.19,3.19,0,0,1-1-.35c-.31-.17-.46-.63-.46-1.38a2.59,2.59,0,0,1,.63-2,10.35,10.35,0,0,1,2.81-1.37l5.88-2c1.24-.41,2.23-.7,3-.87a9.22,9.22,0,0,1,1.72-.25c.17,0,.84.07,2,.2a22.83,22.83,0,0,1,4.25,1,32.21,32.21,0,0,1,5.33,2.4,19.42,19.42,0,0,1,5.25,4.33,22.82,22.82,0,0,1,4,6.88,27.63,27.63,0,0,1,1.6,9.93c0,3.54-.09,6.64-.26,9.33a53,53,0,0,1-.88,7.18,33.78,33.78,0,0,1-1.64,5.76,33.88,33.88,0,0,1-2.52,5.14A11.8,11.8,0,0,1,28.6,321,23,23,0,0,1,25,323.48a42.94,42.94,0,0,1-4.07,2c-1.4.61-2.71,1.12-3.91,1.53s-2.25.73-3.15,1a8.72,8.72,0,0,1-1.85.36A8.14,8.14,0,0,1,10.37,328.22Zm-.5-18.44q0,3.72,0,6.88c0,2.58.22,4.21.67,4.89a2.43,2.43,0,0,0,2.18,1,20.31,20.31,0,0,0,7.19-1.22,12.26,12.26,0,0,0,5.58-4.49A24.68,24.68,0,0,0,29.11,308a65.84,65.84,0,0,0,1.3-14.37,27.09,27.09,0,0,0-1.85-10.7,22.89,22.89,0,0,0-4.33-6.88,16.63,16.63,0,0,0-4.91-3.72,9.86,9.86,0,0,0-3.61-1.12,8.57,8.57,0,0,0-3.11.66,10.3,10.3,0,0,0-2.69,1.48v28.84Q9.91,306.06,9.87,309.78Z"/><path class="cls-2" d="M74.71,300.49a1.68,1.68,0,0,1-.46.8,11.1,11.1,0,0,1-1.14,1.13,13.19,13.19,0,0,1-1.3,1,2,2,0,0,1-1,.42q-3.78.33-7,.38t-5.76.12q0,10.08,3.95,15.16t12.6,5.09a6.14,6.14,0,0,1,2.48.33,1.48,1.48,0,0,1,.63,1.43c0,.45-.42.9-1.26,1.34a10.29,10.29,0,0,1-4.45.68,27.54,27.54,0,0,1-8.15-1.05,17.57,17.57,0,0,1-5.63-2.82,13.6,13.6,0,0,1-3.57-4.07,20,20,0,0,1-2-4.87,26.93,26.93,0,0,1-.84-5.17c-.12-1.73-.17-3.39-.17-5a54,54,0,0,1,1.55-14.07,28.52,28.52,0,0,1,4.08-9.15,14.54,14.54,0,0,1,5.83-5,16.79,16.79,0,0,1,6.85-1.47,13.73,13.73,0,0,1,4.79.55,2,2,0,0,1,1.26,2c0,1.24-.54,1.85-1.6,1.85h-5a9.52,9.52,0,0,0-3.91.84,8.37,8.37,0,0,0-3.44,3.15,21.6,21.6,0,0,0-2.65,6.34A50.5,50.5,0,0,0,58,300.82a5.63,5.63,0,0,1,1.6-1,5.74,5.74,0,0,1,2.18-.38H73.11C74.17,299.48,74.71,299.82,74.71,300.49Z"/><path class="cls-2" d="M94.12,321.36a1.14,1.14,0,0,1,.8-.38,6.43,6.43,0,0,1,2.77.8,8.66,8.66,0,0,0,4,.8,4.67,4.67,0,0,0,3.65-1.55,5,5,0,0,0,1.39-3.41,12.23,12.23,0,0,0-.8-3.94c-.53-1.52-1.19-3.12-2-4.83s-1.64-3.47-2.57-5.29-1.77-3.59-2.56-5.3-1.44-3.32-2-4.83a12.06,12.06,0,0,1-.8-3.86,11.59,11.59,0,0,1,1.13-4.08,29.89,29.89,0,0,1,3-5.33,22.05,22.05,0,0,1,4.37-4.66,8.16,8.16,0,0,1,5.16-2c.39,0,1,.05,1.72.13a15.12,15.12,0,0,1,2.23.42,8.73,8.73,0,0,1,1.93.76,1.33,1.33,0,0,1,.84,1.13,2.76,2.76,0,0,1-.63,2.18,5.74,5.74,0,0,1-3,.59q-5.55.18-8,2.56a8,8,0,0,0-2.44,5.93,14.68,14.68,0,0,0,1.43,5.5q1.43,3.31,3.15,7.14t3.15,7.9a23.48,23.48,0,0,1,1.43,7.76,18.22,18.22,0,0,1-.42,2.78,17,17,0,0,1-1.55,4.32,14.25,14.25,0,0,1-3,4,6.9,6.9,0,0,1-4.91,1.77,9.45,9.45,0,0,1-1.93-.26,15.28,15.28,0,0,1-2.31-.67,16.94,16.94,0,0,1-2-.88,2.15,2.15,0,0,1-1-.88c-.17-.51-.31-1-.42-1.47a7,7,0,0,1-.17-1.56A1.82,1.82,0,0,1,94.12,321.36Z"/><path class="cls-2" d="M134.74,293.77q-.12-2.52-.12-4.71a18,18,0,0,0-.09-2,2.51,2.51,0,0,0-.58-1.39,6.09,6.09,0,0,1-1.14-1.63,3.77,3.77,0,0,1-.29-1.39,2.74,2.74,0,0,1,.75-1.43,14,14,0,0,1,1.77-1.76A16.27,16.27,0,0,1,137.1,278a3.56,3.56,0,0,1,1.63-.63,4.19,4.19,0,0,1,2.1.71c.79.48,1.18.88,1.18,1.22a6.12,6.12,0,0,1-.38,2.06,9.06,9.06,0,0,0-.46,2.48q-.33,3.69-.55,12.39t-.21,23.81q0,5-.63,6.68a2.16,2.16,0,0,1-2.05,1.64,2.46,2.46,0,0,1-1-.21,1.8,1.8,0,0,1-.8-1.05,10.66,10.66,0,0,1-.55-2.56c-.14-1.15-.24-2.75-.29-4.79s-.1-4.62-.13-7.73,0-6.87,0-11.3Q134.87,296.28,134.74,293.77Z"/><path class="cls-2" d="M189.9,310.1a5.71,5.71,0,0,1,2.43-.34,1.87,1.87,0,0,1,.84.17,1.38,1.38,0,0,1,.55.88A9.52,9.52,0,0,1,194,313c0,1,0,2.36,0,4.16a88.41,88.41,0,0,0,.38,9.11,56.89,56.89,0,0,1,.38,5.92,2.48,2.48,0,0,1-.46,1.68,2.74,2.74,0,0,1-2,.51,1.38,1.38,0,0,1-.84-.26,2.54,2.54,0,0,1-.67-1,10.72,10.72,0,0,1-.63-2.06c-.2-.9-.41-2.07-.63-3.53a2.3,2.3,0,0,0-2.52-2.18,7.07,7.07,0,0,0-1.22.17c-.58.11-1.27.22-2,.33s-1.63.23-2.52.34a20.9,20.9,0,0,1-2.52.17,18.66,18.66,0,0,1-9.54-2.19,18.14,18.14,0,0,1-5.92-5.33,20.38,20.38,0,0,1-3.07-6.6,25.12,25.12,0,0,1-.88-6,33.55,33.55,0,0,1,1.6-10.25,25.24,25.24,0,0,1,5-9,25.8,25.8,0,0,1,8.61-6.43A28.71,28.71,0,0,1,187,278.1a19.84,19.84,0,0,1,7.31,1,3.49,3.49,0,0,1,2.52,3.31,2,2,0,0,1-.51,1.22,5.27,5.27,0,0,1-1.17,1.09,7.66,7.66,0,0,1-1.35.76,2.81,2.81,0,0,1-1.09.29,2,2,0,0,1-1.22-.5c-.42-.34-1.25-1.06-2.48-2.18a4.08,4.08,0,0,0-1.59-1,7,7,0,0,0-1.85-.21,13.64,13.64,0,0,0-7.77,2.48,26.13,26.13,0,0,0-6.43,6.26A32.56,32.56,0,0,0,167,299a25.61,25.61,0,0,0-1.59,8.53,23.66,23.66,0,0,0,1,7.39A10.38,10.38,0,0,0,169,319.3a9.34,9.34,0,0,0,4,2.14,19.52,19.52,0,0,0,4.87.59,14.7,14.7,0,0,0,4.16-.55,13.38,13.38,0,0,0,3.28-1.38,8.14,8.14,0,0,0,2.18-1.85,4.37,4.37,0,0,0,1-2l.67-5A1.57,1.57,0,0,1,189.9,310.1Z"/><path class="cls-2" d="M216.48,293.73c0-1,0-2.09,0-3.15a6.06,6.06,0,0,0-1.13-4.12,6.84,6.84,0,0,0-2.52-1.81l-2.52-1a1.52,1.52,0,0,1-1.13-1.51c0-.39.3-.81.92-1.26l3-2.44a4.2,4.2,0,0,1,1.14-.76,2.61,2.61,0,0,1,.88-.16,1.74,1.74,0,0,1,1,.29,5.88,5.88,0,0,1,1.13,1.13q4.88,5.81,10,11.6t9.53,10.58q4.41,4.79,7.64,8.15c2.16,2.24,3.63,3.69,4.41,4.37q.67-4.29,1-8.19c.2-2.61.29-8.28.29-11a55.91,55.91,0,0,0-.25-5.71c-.17-1.62-.33-4-.5-5.11s-.34-2-.51-2.69a7.49,7.49,0,0,1-.25-1.6,1.72,1.72,0,0,1,.72-1.22,4.83,4.83,0,0,1,1.55-.71,11,11,0,0,1,1.93-.34c.67-.05,1.29-.08,1.85-.08a1.73,1.73,0,0,1,1.6.71,3.2,3.2,0,0,1,.42,1.64,14.89,14.89,0,0,1-.42,2.77c-.29,1.29-.59,4-.93,6.21s-.64,4.92-.92,8.19-.42,10.21-.42,14.8c0,1.4,0,2.9.08,4.5s.09,3.29.09,5.08a3.06,3.06,0,0,1-.76,1.81,11.44,11.44,0,0,1-1.72,1.76,15.48,15.48,0,0,1-1.89,1.34,3.28,3.28,0,0,1-1.26.55c-.28,0-.52-.31-.72-.92s-.43-1.4-.71-2.36a25.6,25.6,0,0,0-1.22-3.19,15,15,0,0,0-2.31-3.53q-3.27-3.86-6.76-7.6t-6.55-7c-2-2.15-3.89-4.07-5.55-5.75s-2.89-3-3.73-4q-.25,3.53-.42,7.26t-.21,7.27q0,3.53-.09,6.59c0,2.05,0,3.77,0,5.17,0,1.23,0,2.48.08,3.74s.09,2.22.09,2.9a3.51,3.51,0,0,1-.3,1.38,1.68,1.68,0,0,1-1.21,1c-1.35.33-2.37.59-3.07.75a8.41,8.41,0,0,1-2,.26c-1.07,0-1.6-.4-1.6-1.18a2.31,2.31,0,0,1,.42-1.3c.28-.42.6-.95,1-1.6a13.92,13.92,0,0,0,1.05-2.56,18.2,18.2,0,0,0,.67-4.12l1-20.74Q216.44,295.27,216.48,293.73Z"/></g></g></svg>