<svg xmlns="http://www.w3.org/2000/svg" viewBox="0 0 765.35 45.95"><defs><style>.cls-1{fill:#231815;}.cls-2{fill:#9c917d;}</style></defs><g id="レイヤー_2" data-name="レイヤー 2"><g id="レイヤー_1-2" data-name="レイヤー 1"><path class="cls-1" d="M17.78,10.8C17,7.51,15.43,4.23,11.61,4.23,7.38,4.23,5.7,7.65,5.7,11.4s.74,4.77,7.78,9c5.5,3.29,9.26,6,9.26,13S19,46,11.47,46C3.56,46,.67,40.72,0,33.61L4.5,33c.6,5,1.67,8.72,7.11,8.72,3.89,0,6.64-2.62,6.64-8,0-5.9-3.83-7.91-8.46-10.6C4.63,20.12,1.21,18,1.21,11.4c0-6,4-11.4,10.4-11.4S21,4.49,22.14,10.13Z"/><path class="cls-1" d="M42.84,41.32h4.9V14.42h-4.9v-4H57.2v4h-5v26.9h5v4H42.84Z"/><path class="cls-1" d="M83.17,17H83l-.87,28.31H77.4L78.81,10.4h5.9L91,25.56l6.3-15.16h5.9l1.41,35H99.87L99,17h-.14L91,35.49Z"/><path class="cls-1" d="M128,45.35H123.5V10.4h10.87c8.11,0,11.27,4.43,11.27,9.52,0,7.38-5.24,10.4-10.13,10.4H128Zm6.18-19c4.42,0,6.77-2,6.77-6,0-4.76-3.08-5.84-6.77-5.84H128V26.3Z"/><path class="cls-1" d="M162.05,10.4h4.5V41.32h18.31v4H162.05Z"/><path class="cls-1" d="M201.43,10.4h21.8v4h-17.3V24.89h14.28v4H205.93V41.32h17.3v4h-21.8Z"/><path class="cls-1" d="M270.66,10.8c-.73-3.29-2.34-6.57-6.17-6.57-4.22,0-5.9,3.42-5.9,7.17s.74,4.77,7.78,9c5.5,3.29,9.26,6,9.26,13S271.87,46,264.36,46c-7.92,0-10.8-5.23-11.47-12.34l4.49-.6c.6,5,1.68,8.72,7.11,8.72,3.89,0,6.64-2.62,6.64-8,0-5.9-3.82-7.91-8.45-10.6-5.16-3-8.59-5.16-8.59-11.74,0-6,4-11.4,10.4-11.4S273.88,4.5,275,10.13Z"/><path class="cls-1" d="M295.73,41.32h4.89V14.42h-4.89v-4h14.35v4h-5v26.9h5v4H295.73Z"/><path class="cls-1" d="M336.05,17h-.13l-.87,28.31h-4.77l1.41-34.95h5.91l6.3,15.16,6.31-15.16h5.9l1.41,35h-4.76L351.88,17h-.13L343.9,35.49Z"/><path class="cls-1" d="M380.88,45.35h-4.49V10.4h10.86c8.12,0,11.27,4.43,11.27,9.52,0,7.38-5.23,10.4-10.13,10.4h-7.51Zm6.17-19c4.43,0,6.78-2,6.78-6,0-4.76-3.09-5.84-6.78-5.84h-6.17V26.3Z"/><path class="cls-1" d="M414.94,10.4h4.49V41.32h18.32v4H414.94Z"/><path class="cls-1" d="M454.32,10.4h21.8v4H458.81V24.89H473.1v4H458.81V41.32h17.31v4h-21.8Z"/><path class="cls-1" d="M496.85,34.28c.87,4.29,2.95,7.45,7.65,7.45,3.69,0,6.57-2,6.57-5.91,0-4.29-3.62-5.36-7-6.77-5.1-2.15-9.93-3.49-9.93-10.06,0-5.91,4.76-9.2,10.26-9.2,5.84,0,9.26,3.36,10.67,8.79l-4.29,1.28c-.81-3.42-2.62-5.84-6.44-5.84-2.89,0-5.71,1.48-5.71,4.63s2,4.23,4.7,5.43l7.45,3.29a8.89,8.89,0,0,1,4.83,8.18c0,6.65-4.63,10.4-11.07,10.4s-10.6-4.16-11.68-10.4Z"/><path class="cls-2" d="M541.85,4.63V.6h11.81c9,0,14.29,4,14.29,22.41,0,9.86-.54,22.34-14.16,22.34H541.85v-4h3.63V4.63ZM550,41.32h3.69c5.43,0,9.59-1.4,9.59-18.31s-4.56-18.38-8.52-18.38H550Z"/><path class="cls-2" d="M585.56,10.4h21.8v4h-17.3V24.89h14.28v4H590.06V41.32h17.3v4h-21.8Z"/><path class="cls-2" d="M628.4,34.28c.87,4.29,3,7.45,7.65,7.45,3.69,0,6.57-2,6.57-5.91,0-4.29-3.62-5.36-7-6.77-5.1-2.15-9.93-3.49-9.93-10.06,0-5.91,4.76-9.2,10.26-9.2,5.84,0,9.26,3.36,10.67,8.79l-4.29,1.28c-.81-3.42-2.62-5.84-6.44-5.84-2.89,0-5.7,1.48-5.7,4.63s2,4.23,4.69,5.43l7.45,3.29a8.89,8.89,0,0,1,4.83,8.18c0,6.65-4.63,10.4-11.07,10.4s-10.6-4.16-11.67-10.4Z"/><path class="cls-2" d="M666.36,41.32h4.9V14.42h-4.9v-4h14.36v4h-5v26.9h5v4H666.36Z"/><path class="cls-2" d="M723.93,42.13A18.7,18.7,0,0,1,713.19,46C702.93,46,700,36.43,700,27.84s3.08-18,13.08-18a13.3,13.3,0,0,1,11.2,6.71L720.44,19c-1.68-2.82-4.23-5-7.65-5-6.91,0-8.12,8.65-8.12,14s1.21,13.76,8.26,13.76a12.4,12.4,0,0,0,6.5-1.81v-9.2h-8.38v-4h12.88Z"/><path class="cls-2" d="M742,10.4h5.57l13.55,29.45.13-.14-.4-9V10.4h4.49v35h-5.56L746.24,15.9l-.14.13.4,9.13V45.35H742Z"/></g></g></svg>