<svg xmlns="http://www.w3.org/2000/svg" viewBox="0 0 335.51 320.55"><defs><style>.cls-1{fill:#231815;}.cls-2{fill:#9c917d;}</style></defs><g id="レイヤー_2" data-name="レイヤー 2"><g id="レイヤー_1-2" data-name="レイヤー 1"><path class="cls-1" d="M23.66,13.75c-.94-4.18-3-8.37-7.86-8.37-5.38,0-7.51,4.36-7.51,9.14,0,4.61.94,6.07,9.91,11.45C25.2,30.15,30,33.66,30,42.45c0,9-4.78,16.06-14.35,16.06C5.55,58.51,1.88,51.85,1,42.8L6.75,42c.77,6.32,2.13,11.1,9.05,11.1,5,0,8.46-3.33,8.46-10.16,0-7.52-4.87-10.08-10.76-13.5C6.92,25.63,2.56,22.89,2.56,14.52,2.56,6.83,7.69,0,15.8,0s12,5.72,13.41,12.9Z"/><path class="cls-1" d="M55.58,52.62h6.23V18.37H55.58V13.24H73.86v5.13H67.53V52.62h6.33v5.12H55.58Z"/><path class="cls-1" d="M106.92,21.7h-.17l-1.11,36H99.58l1.79-44.5h7.52l8,19.31,8-19.31h7.51l1.8,44.5h-6.07l-1.11-36h-.17l-10,23.49Z"/><path class="cls-1" d="M164,57.74h-5.73V13.24h13.84c10.34,0,14.35,5.64,14.35,12.13,0,9.4-6.66,13.24-12.9,13.24H164Zm7.85-24.26c5.64,0,8.63-2.56,8.63-7.68,0-6.07-3.93-7.43-8.63-7.43H164V33.48Z"/><path class="cls-1" d="M207.37,13.24h5.73V52.62h23.32v5.12h-29Z"/><path class="cls-1" d="M257.52,13.24h27.76v5.13h-22V31.69h18.19v5.13H263.24v15.8h22v5.12H257.52Z"/><path class="cls-1" d="M23.66,144.77c-.94-4.19-3-8.37-7.86-8.37-5.38,0-7.51,4.36-7.51,9.14,0,4.61.94,6.06,9.91,11.45,7,4.18,11.78,7.68,11.78,16.48,0,9-4.78,16.06-14.35,16.06-10.08,0-13.75-6.66-14.6-15.72L6.75,173c.77,6.33,2.13,11.11,9.05,11.11,5,0,8.46-3.33,8.46-10.17,0-7.51-4.87-10.07-10.76-13.49-6.58-3.85-10.94-6.58-10.94-15C2.56,137.85,7.69,131,15.8,131s12,5.72,13.41,12.9Z"/><path class="cls-1" d="M55.58,183.64h6.23V149.38H55.58v-5.12H73.86v5.12H67.53v34.26h6.33v5.12H55.58Z"/><path class="cls-1" d="M106.92,152.71h-.17l-1.11,36H99.58l1.79-44.5h7.52l8,19.3,8-19.3h7.51l1.8,44.5h-6.07l-1.11-36h-.17l-10,23.5Z"/><path class="cls-1" d="M164,188.76h-5.73v-44.5h13.84c10.34,0,14.35,5.64,14.35,12.13,0,9.39-6.66,13.24-12.9,13.24H164Zm7.85-24.26c5.64,0,8.63-2.56,8.63-7.68,0-6.07-3.93-7.44-8.63-7.44H164V164.5Z"/><path class="cls-1" d="M207.37,144.26h5.73v39.38h23.32v5.12h-29Z"/><path class="cls-1" d="M257.52,144.26h27.76v5.12h-22v13.33h18.19v5.12H263.24v15.81h22v5.12H257.52Z"/><path class="cls-1" d="M311.67,174.67c1.11,5.46,3.76,9.48,9.74,9.48,4.7,0,8.37-2.56,8.37-7.52,0-5.46-4.61-6.83-9-8.63-6.49-2.73-12.64-4.44-12.64-12.81,0-7.52,6.07-11.7,13.07-11.7,7.43,0,11.79,4.27,13.58,11.19l-5.46,1.62c-1-4.35-3.34-7.43-8.2-7.43-3.68,0-7.27,1.88-7.27,5.89,0,4.19,2.57,5.39,6,6.92l9.49,4.19a11.33,11.33,0,0,1,6.15,10.42c0,8.46-5.9,13.24-14.1,13.24s-13.49-5.29-14.86-13.24Z"/><path class="cls-2" d="M0,267.93V262.8H15c11.45,0,18.2,5,18.2,28.53,0,12.56-.68,28.45-18,28.45H0v-5.12H4.61V267.93Zm10.34,46.73H15c6.92,0,12.22-1.8,12.22-23.33,0-21.69-5.81-23.4-10.85-23.4H10.34Z"/><path class="cls-2" d="M55.66,275.28H83.42v5.12h-22v13.33H79.57v5.12H61.38v15.81h22v5.12H55.66Z"/><path class="cls-2" d="M110.21,305.69c1.11,5.46,3.75,9.48,9.73,9.48,4.7,0,8.38-2.57,8.38-7.52,0-5.47-4.62-6.83-9-8.63-6.5-2.73-12.65-4.44-12.65-12.81,0-7.52,6.07-11.7,13.07-11.7,7.43,0,11.79,4.27,13.59,11.19l-5.47,1.62c-1-4.36-3.33-7.43-8.2-7.43-3.68,0-7.26,1.88-7.26,5.89,0,4.19,2.56,5.38,6,6.92l9.48,4.19A11.33,11.33,0,0,1,134,307.31c0,8.46-5.9,13.24-14.1,13.24s-13.49-5.3-14.86-13.24Z"/><path class="cls-2" d="M158.54,314.66h6.24V280.4h-6.24v-5.12h18.28v5.12H170.5v34.26h6.32v5.12H158.54Z"/><path class="cls-2" d="M231.84,315.68a23.8,23.8,0,0,1-13.66,4.87c-13.07,0-16.83-12.13-16.83-23.06,0-10.77,3.93-23,16.65-23,6,0,11.2,3.5,14.27,8.54l-4.87,3.16c-2.13-3.59-5.38-6.32-9.74-6.32-8.8,0-10.33,11-10.33,17.77,0,6.92,1.53,17.51,10.5,17.51a15.74,15.74,0,0,0,8.29-2.31v-11.7H215.44V296h16.4Z"/><path class="cls-2" d="M254.87,275.28H262l17.25,37.5.17-.18-.51-11.53V275.28h5.72v44.5H277.5l-17.25-37.5-.17.17.51,11.62v25.71h-5.72Z"/></g></g></svg>