<svg xmlns="http://www.w3.org/2000/svg" viewBox="0 0 765.35 57.97"><defs><style>.cls-1{fill:#231815;}.cls-2{fill:#9c917d;}</style></defs><g id="レイヤー_2" data-name="レイヤー 2"><g id="レイヤー_1-2" data-name="レイヤー 1"><path class="cls-1" d="M33.87,23.59c-.08-1.43-.11-2.75-.11-4a15.72,15.72,0,0,0-.07-1.67,2.13,2.13,0,0,0-.5-1.17,5.13,5.13,0,0,1-1-1.39A3,3,0,0,1,32,14.2,2.24,2.24,0,0,1,32.62,13a11.65,11.65,0,0,1,1.49-1.49,13.41,13.41,0,0,1,1.75-1.25,3.06,3.06,0,0,1,1.38-.53,3.51,3.51,0,0,1,1.78.6c.67.41,1,.75,1,1a5.28,5.28,0,0,1-.32,1.75,7,7,0,0,0-.39,2.09q-.29,3.14-.47,10.49t-.17,20.17a18.79,18.79,0,0,1-.54,5.65,1.83,1.83,0,0,1-1.74,1.39,2.11,2.11,0,0,1-.89-.18,1.57,1.57,0,0,1-.67-.89,9.22,9.22,0,0,1-.47-2.17c-.11-1-.2-2.32-.25-4S34,41.69,34,39.05s0-5.82,0-9.56Q34,25.73,33.87,23.59Z"/><path class="cls-1" d="M95.18,19.14l3.45-5.76a19.77,19.77,0,0,1,1.67-2.49,1.42,1.42,0,0,1,1-.53,5.38,5.38,0,0,1,1.17.18q.75.18,1.5.42a9.31,9.31,0,0,1,1.28.54c.35.19.53.35.53.49a9.43,9.43,0,0,1-.11,1.46,7.7,7.7,0,0,0-.1,1.18,41.22,41.22,0,0,0,.49,5.65c.34,2.3.75,4.74,1.25,7.32s1,5.21,1.63,7.86,1.14,5.09,1.64,7.29.91,4,1.25,5.51a19.77,19.77,0,0,1,.49,2.63c0,.29-.19.55-.57.79a5.65,5.65,0,0,1-1.31.6c-.5.17-1,.31-1.39.43a4.09,4.09,0,0,1-.85.18,1.13,1.13,0,0,1-.89-.29,2.64,2.64,0,0,1-.39-1.28c-.38-3.22-.83-6.39-1.35-9.49s-1.06-6.12-1.6-9-1.08-5.72-1.6-8.4-1-5.2-1.28-7.57Q96.39,24,93.62,28.42t-4.27,7A27.45,27.45,0,0,0,87.4,39.3a8.77,8.77,0,0,0-.54,2.21,2.18,2.18,0,0,1-.57,1.6,2.39,2.39,0,0,1-1.49.39,1.93,1.93,0,0,1-1.42-.43,5.89,5.89,0,0,1-1-1.85c-.19-.42-.59-1.17-1.21-2.24s-1.36-2.28-2.24-3.66-1.83-2.84-2.88-4.41l-3-4.55q-1.5-2.2-2.74-4.09c-.83-1.26-1.49-2.24-2-2.95-.14.57-.38,1.68-.71,3.34l-1.14,5.73c-.42,2.15-.86,4.43-1.31,6.82s-.87,4.63-1.25,6.69-.69,3.83-.92,5.3-.36,2.34-.36,2.63A4.94,4.94,0,0,0,62.75,51a4.39,4.39,0,0,1,.15,1.13.72.72,0,0,1-.32.54,1.77,1.77,0,0,1-1,.25,12.36,12.36,0,0,1-3.09-.36c-.92-.24-1.39-.76-1.39-1.56a5.23,5.23,0,0,1,.36-1.6c.24-.69.57-1.68,1-3,.23-.75.57-1.95,1-3.59s.88-3.5,1.35-5.62,1-4.32,1.46-6.64,1-4.53,1.35-6.62.74-4,1-5.58A25.74,25.74,0,0,0,65,14.84a2.82,2.82,0,0,0-.36-1.67,2.18,2.18,0,0,1-.35-1.32c0-.52.35-.86,1.06-1A12.25,12.25,0,0,1,68,10.57a3.5,3.5,0,0,1,1.6.25,1.5,1.5,0,0,1,.53,1,12.2,12.2,0,0,0,1.21,3q1,1.92,2.42,4.3c.94,1.59,2,3.25,3.09,5S79,27.49,80,29s2,2.92,2.84,4.16L84.8,36l4-6.47Q92.92,23,95.18,19.14Z"/><path class="cls-1" d="M128.71,23.2a72.44,72.44,0,0,0-.53-7.58,4.44,4.44,0,0,0-.21-.78,1.13,1.13,0,0,0-.57-.57c-.71-.38-1.07-.81-1.07-1.28a2.46,2.46,0,0,1,1.25-1.89,16.28,16.28,0,0,1,2.88-1.6,20.84,20.84,0,0,1,3.37-1.13,12.06,12.06,0,0,1,2.67-.43,22.91,22.91,0,0,1,4.27.46,23.17,23.17,0,0,1,4.48,1.32,6.53,6.53,0,0,1,1.85,1.35,14.32,14.32,0,0,1,1.67,2A11.57,11.57,0,0,1,150,15.37a5.92,5.92,0,0,1,.46,2.17q0,5-1.21,6.83a19.69,19.69,0,0,1-1.85,2.45A33.06,33.06,0,0,1,145,29.31a21.93,21.93,0,0,1-2.35,2,3.4,3.4,0,0,1-1.67.78,4.31,4.31,0,0,1-1.38-.29,12.89,12.89,0,0,1-1.57-.64,6,6,0,0,1-1.28-.78c-.35-.28-.53-.5-.53-.64a.73.73,0,0,1,.35-.6,4,4,0,0,1,1.35-.46,9.54,9.54,0,0,0,5.41-3,7.48,7.48,0,0,0,2-5,16.18,16.18,0,0,0-.25-2.6,11.81,11.81,0,0,0-.89-2.95,7.21,7.21,0,0,0-1.74-2.42,4,4,0,0,0-2.74-1,9.15,9.15,0,0,0-2.88.43,13.09,13.09,0,0,0-2.74,1.28c-.09.8-.19,1.76-.28,2.88s-.18,2.27-.25,3.48-.13,2.41-.18,3.59-.07,2.25-.07,3.2V45.28a14.1,14.1,0,0,1-.89,5.76,3.15,3.15,0,0,1-3.09,1.85c-.81,0-1.21-.36-1.21-1.07a2.32,2.32,0,0,1,.11-.64c.07-.24.16-.56.28-1a10.14,10.14,0,0,0,.29-1.64c.07-.68.1-1.6.1-2.73V35.25Q128.89,28.35,128.71,23.2Z"/><path class="cls-1" d="M187.63,47.45a3.5,3.5,0,0,1,1.78-.61c.81,0,1.21.31,1.21.93a7,7,0,0,1-.18,1,14.37,14.37,0,0,1-.49,1.7,13.92,13.92,0,0,1-.72,1.64q-.39.75-.81.75a3.7,3.7,0,0,1-1.18-.18l-1.6-.53a1.36,1.36,0,0,0-.49-.11c-.24,0-.65,0-1.21-.07s-1.34,0-2.31-.07-2.22,0-3.74,0-2.9,0-3.87,0-1.75,0-2.32.07a6.05,6.05,0,0,0-1.24.14,3.34,3.34,0,0,0-.68.25,4.58,4.58,0,0,1-2.2.5,1.28,1.28,0,0,1-.89-.5,11.21,11.21,0,0,1-.89-1.1,6.38,6.38,0,0,1-.67-1.21,2.73,2.73,0,0,1-.25-.82,2.06,2.06,0,0,1,.71-1.32,2.91,2.91,0,0,0,.71-2.09c0-.76.08-1.69.11-2.78s0-2.37,0-3.84v-10a78,78,0,0,0-.35-8.28c-.24-2.06-.49-3.67-.75-4.84a10.65,10.65,0,0,0-.75-2.41,2.48,2.48,0,0,1-.35-1.11c0-.23.22-.59.67-1.06a12,12,0,0,1,1.57-1.39,15,15,0,0,1,1.77-1.17,3.14,3.14,0,0,1,1.25-.5,3.57,3.57,0,0,1,1.56.46,1.4,1.4,0,0,1,.93,1.25,5.55,5.55,0,0,1-.29,1.56,6.51,6.51,0,0,0-.28,1.92q0,3.19-.21,6.33c-.15,2.09-.22,4.12-.22,6.12,0,1.32,0,2.57.07,3.73s.08,2.52.08,4.09,0,3-.15,4.51-.19,3-.28,4.31-.19,2.49-.29,3.48-.14,1.71-.14,2.13.29.57.86.57a2.05,2.05,0,0,0,.74-.14,2.72,2.72,0,0,1,.89-.14l12.87-.5A4.45,4.45,0,0,0,187.63,47.45Z"/><path class="cls-1" d="M220.21,29.28a1.33,1.33,0,0,1-.4.67,8.68,8.68,0,0,1-1,1,9.62,9.62,0,0,1-1.1.85,1.69,1.69,0,0,1-.89.36q-3.2.29-5.93.32c-1.83,0-3.45.06-4.88.11q0,8.54,3.35,12.83t10.66,4.31a5.09,5.09,0,0,1,2.1.28,1.24,1.24,0,0,1,.54,1.21c0,.38-.36.76-1.07,1.14a8.74,8.74,0,0,1-3.77.57A23.46,23.46,0,0,1,211,52a15,15,0,0,1-4.76-2.39,11.59,11.59,0,0,1-3-3.44A17.62,17.62,0,0,1,201.5,42a23.29,23.29,0,0,1-.71-4.37c-.09-1.47-.14-2.87-.14-4.2A46.14,46.14,0,0,1,202,21.56a24.18,24.18,0,0,1,3.45-7.75,12.3,12.3,0,0,1,5-4.2,14.12,14.12,0,0,1,5.79-1.24,11.81,11.81,0,0,1,4.06.46,1.67,1.67,0,0,1,1.06,1.67q0,1.56-1.35,1.56h-4.19a8,8,0,0,0-3.31.72,7.11,7.11,0,0,0-2.92,2.66,18.44,18.44,0,0,0-2.24,5.37,43.63,43.63,0,0,0-1.21,8.75,4.64,4.64,0,0,1,3.2-1.14h9.6C219.75,28.42,220.21,28.71,220.21,29.28Z"/><path class="cls-1" d="M.32,46.12A.91.91,0,0,1,1,45.76a5,5,0,0,1,2.34.77,6.72,6.72,0,0,0,3.35.77,3.73,3.73,0,0,0,3.09-1.5A5.21,5.21,0,0,0,11,42.52a13.19,13.19,0,0,0-.67-3.81c-.45-1.45-1-3-1.67-4.65S7.22,30.71,6.44,29s-1.51-3.45-2.17-5.1-1.22-3.2-1.67-4.66a12.59,12.59,0,0,1-.68-3.72,12.23,12.23,0,0,1,1-3.93A29.63,29.63,0,0,1,5.44,6.4a20.78,20.78,0,0,1,3.7-4.5A6.45,6.45,0,0,1,13.51,0,12.83,12.83,0,0,1,15,.12a10.86,10.86,0,0,1,1.88.41,6.67,6.67,0,0,1,1.64.73,1.28,1.28,0,0,1,.71,1.09,2.93,2.93,0,0,1-.53,2.1A4.41,4.41,0,0,1,16.14,5q-4.69.17-6.75,2.47A8.23,8.23,0,0,0,7.33,13.2a15.83,15.83,0,0,0,1.2,5.31q1.22,3.19,2.67,6.88T13.87,33a25.71,25.71,0,0,1,1.21,7.5,19.63,19.63,0,0,1-.36,2.67,17.85,17.85,0,0,1-1.31,4.17,13.87,13.87,0,0,1-2.57,3.85,5.44,5.44,0,0,1-4.15,1.7,6.81,6.81,0,0,1-1.64-.25,12.46,12.46,0,0,1-2-.64,14.15,14.15,0,0,1-1.7-.85,1.88,1.88,0,0,1-.89-.86q-.21-.72-.36-1.41A7.8,7.8,0,0,1,0,47.38,2,2,0,0,1,.32,46.12Z"/><path class="cls-1" d="M259.73,46.12a.91.91,0,0,1,.68-.36,5,5,0,0,1,2.34.77,6.72,6.72,0,0,0,3.35.77,3.73,3.73,0,0,0,3.09-1.5,5.21,5.21,0,0,0,1.17-3.28,13.19,13.19,0,0,0-.67-3.81c-.45-1.45-1-3-1.67-4.65s-1.39-3.35-2.17-5.11-1.51-3.45-2.17-5.1-1.22-3.2-1.67-4.66a12.93,12.93,0,0,1-.68-3.72,12.23,12.23,0,0,1,1-3.93,29.63,29.63,0,0,1,2.56-5.14,20.78,20.78,0,0,1,3.7-4.5A6.47,6.47,0,0,1,272.92,0a12.83,12.83,0,0,1,1.46.12,11.18,11.18,0,0,1,1.89.41,6.77,6.77,0,0,1,1.63.73,1.26,1.26,0,0,1,.71,1.09,2.93,2.93,0,0,1-.53,2.1,4.41,4.41,0,0,1-2.53.57c-3.12.11-5.38.93-6.75,2.47a8.23,8.23,0,0,0-2.06,5.71A15.64,15.64,0,0,0,268,18.51q1.2,3.19,2.66,6.88T273.28,33a25.71,25.71,0,0,1,1.21,7.5,19.63,19.63,0,0,1-.36,2.67,17.85,17.85,0,0,1-1.31,4.17,14.06,14.06,0,0,1-2.56,3.85,5.48,5.48,0,0,1-4.16,1.7,6.81,6.81,0,0,1-1.64-.25,12.81,12.81,0,0,1-2-.64,14.94,14.94,0,0,1-1.7-.85,1.88,1.88,0,0,1-.89-.86q-.21-.72-.36-1.41a7.8,7.8,0,0,1-.14-1.5A2,2,0,0,1,259.73,46.12Z"/><path class="cls-1" d="M293.28,23.59c-.07-1.43-.11-2.75-.11-4a15.72,15.72,0,0,0-.07-1.67,2.06,2.06,0,0,0-.5-1.17,5.13,5.13,0,0,1-1-1.39,3,3,0,0,1-.25-1.17A2.31,2.31,0,0,1,292,13a11.13,11.13,0,0,1,1.5-1.49,14,14,0,0,1,1.74-1.25,3,3,0,0,1,1.39-.53,3.51,3.51,0,0,1,1.77.6c.67.41,1,.75,1,1a5.28,5.28,0,0,1-.32,1.75,7.34,7.34,0,0,0-.39,2.09c-.19,2.09-.35,5.59-.46,10.49s-.18,11.63-.18,20.17a18.74,18.74,0,0,1-.54,5.65,1.83,1.83,0,0,1-1.74,1.39,2.11,2.11,0,0,1-.89-.18,1.57,1.57,0,0,1-.67-.89,9.22,9.22,0,0,1-.47-2.17c-.11-1-.2-2.32-.24-4s-.09-3.91-.11-6.55,0-5.81,0-9.56C293.38,27,293.35,25,293.28,23.59Z"/><path class="cls-1" d="M354.59,19.14,358,13.38a19.77,19.77,0,0,1,1.67-2.49,1.44,1.44,0,0,1,1-.53,5.3,5.3,0,0,1,1.17.18q.75.18,1.5.42a8.81,8.81,0,0,1,1.28.54c.35.19.53.35.53.49a8.33,8.33,0,0,1-.11,1.46,7.7,7.7,0,0,0-.1,1.18,39.92,39.92,0,0,0,.5,5.65q.5,3.45,1.24,7.32c.5,2.59,1,5.21,1.64,7.86s1.13,5.09,1.63,7.29.91,4,1.25,5.51a19.49,19.49,0,0,1,.49,2.64q0,.42-.57.78a6.1,6.1,0,0,1-1.31.6c-.5.17-1,.31-1.39.43a4,4,0,0,1-.85.18,1.14,1.14,0,0,1-.89-.29,2.64,2.64,0,0,1-.39-1.28c-.38-3.22-.83-6.39-1.35-9.49s-1.06-6.12-1.6-9-1.08-5.72-1.6-8.4-.95-5.2-1.28-7.57Q355.81,24,353,28.42t-4.27,7a27.45,27.45,0,0,0-1.95,3.87,8.77,8.77,0,0,0-.54,2.21,2.14,2.14,0,0,1-.56,1.6,2.44,2.44,0,0,1-1.5.39,1.93,1.93,0,0,1-1.42-.43,5.89,5.89,0,0,1-1-1.85c-.19-.42-.59-1.17-1.21-2.24s-1.36-2.28-2.24-3.66-1.83-2.84-2.88-4.41l-3-4.55q-1.5-2.2-2.74-4.09c-.83-1.25-1.48-2.24-2-2.95-.14.57-.38,1.68-.71,3.34l-1.14,5.73c-.42,2.15-.86,4.43-1.31,6.82s-.87,4.63-1.25,6.69-.68,3.83-.92,5.3-.36,2.34-.36,2.63a4.94,4.94,0,0,0,.14,1.14,4.45,4.45,0,0,1,.15,1.13.72.72,0,0,1-.32.54,1.75,1.75,0,0,1-1,.25,12.39,12.39,0,0,1-3.1-.36A1.56,1.56,0,0,1,316.48,51a5.15,5.15,0,0,1,.35-1.6c.24-.69.57-1.68,1-3,.23-.75.57-1.95,1-3.59s.88-3.5,1.35-5.61,1-4.33,1.46-6.65.95-4.53,1.35-6.62.74-4,1-5.58a25.74,25.74,0,0,0,.39-3.52,2.82,2.82,0,0,0-.36-1.67,2.18,2.18,0,0,1-.35-1.32c0-.52.35-.86,1.07-1a12.09,12.09,0,0,1,2.63-.25,3.47,3.47,0,0,1,1.6.25,1.46,1.46,0,0,1,.53,1,12.2,12.2,0,0,0,1.21,3q1,1.92,2.42,4.3c.94,1.59,2,3.25,3.09,5s2.19,3.37,3.24,4.91,2,2.92,2.84,4.16,1.49,2.16,1.92,2.77l4.05-6.47Q352.33,23,354.59,19.14Z"/><path class="cls-1" d="M388.13,23.2a74.65,74.65,0,0,0-.54-7.58,4.44,4.44,0,0,0-.21-.78,1.13,1.13,0,0,0-.57-.57c-.71-.38-1.07-.8-1.07-1.28A2.43,2.43,0,0,1,387,11.11a15.69,15.69,0,0,1,2.88-1.61,20.63,20.63,0,0,1,3.38-1.13,11.9,11.9,0,0,1,2.66-.43,23.7,23.7,0,0,1,4.27.46,23.17,23.17,0,0,1,4.48,1.32,6.39,6.39,0,0,1,1.85,1.35,13.67,13.67,0,0,1,1.67,2,11.57,11.57,0,0,1,1.21,2.27,5.92,5.92,0,0,1,.46,2.17q0,5-1.21,6.83a19,19,0,0,1-1.85,2.45,33.06,33.06,0,0,1-2.38,2.49,21.93,21.93,0,0,1-2.35,2,3.4,3.4,0,0,1-1.67.78,4.26,4.26,0,0,1-1.38-.28c-.55-.19-1.07-.41-1.57-.64a6.5,6.5,0,0,1-1.28-.79c-.35-.28-.53-.49-.53-.64a.73.73,0,0,1,.35-.6,4,4,0,0,1,1.36-.46,9.55,9.55,0,0,0,5.4-3,7.48,7.48,0,0,0,2-5,16.18,16.18,0,0,0-.25-2.6,11.41,11.41,0,0,0-.89-2.95,7.07,7.07,0,0,0-1.74-2.42,3.94,3.94,0,0,0-2.74-1,9.15,9.15,0,0,0-2.88.43,13.33,13.33,0,0,0-2.74,1.28c-.09.8-.19,1.76-.28,2.88S393,18.5,393,19.71s-.13,2.41-.18,3.59-.07,2.25-.07,3.2V45.28a13.9,13.9,0,0,1-.89,5.76,3.15,3.15,0,0,1-3.09,1.85c-.81,0-1.21-.36-1.21-1.07a2.32,2.32,0,0,1,.11-.64c.07-.24.16-.56.28-1a9.15,9.15,0,0,0,.29-1.64c.07-.68.1-1.6.1-2.73V35.25Q388.3,28.35,388.13,23.2Z"/><path class="cls-1" d="M447.05,47.45a3.44,3.44,0,0,1,1.77-.61c.81,0,1.21.31,1.21.93a7.91,7.91,0,0,1-.17,1,14.49,14.49,0,0,1-.5,1.7,12.44,12.44,0,0,1-.72,1.64c-.25.5-.53.75-.81.75a3.7,3.7,0,0,1-1.18-.18l-1.6-.53a1.36,1.36,0,0,0-.49-.11c-.24,0-.64,0-1.21-.07S442,52,441,51.93s-2.22,0-3.74,0-2.9,0-3.87,0-1.75,0-2.31.07a6.08,6.08,0,0,0-1.25.14,3,3,0,0,0-.67.25,4.65,4.65,0,0,1-2.21.5,1.3,1.3,0,0,1-.89-.5,11.21,11.21,0,0,1-.89-1.1,6.38,6.38,0,0,1-.67-1.21,2.73,2.73,0,0,1-.25-.82,2.06,2.06,0,0,1,.71-1.32,2.91,2.91,0,0,0,.71-2.09c.05-.76.08-1.69.11-2.78s0-2.37,0-3.84v-10a78,78,0,0,0-.35-8.28c-.24-2.06-.49-3.67-.75-4.84a10.65,10.65,0,0,0-.75-2.41,2.62,2.62,0,0,1-.35-1.11c0-.23.22-.59.67-1.06a12,12,0,0,1,1.57-1.39,14.31,14.31,0,0,1,1.78-1.17,3.22,3.22,0,0,1,1.24-.5,3.65,3.65,0,0,1,1.57.46,1.4,1.4,0,0,1,.92,1.24,5.86,5.86,0,0,1-.28,1.57,6.21,6.21,0,0,0-.29,1.92q0,3.19-.21,6.33c-.14,2.09-.22,4.12-.22,6.12,0,1.32,0,2.57.08,3.73s.07,2.52.07,4.09-.05,3-.15,4.51-.19,3-.28,4.31-.19,2.49-.28,3.48-.15,1.71-.15,2.13.29.57.86.57a2.05,2.05,0,0,0,.74-.14,2.72,2.72,0,0,1,.89-.14l12.87-.5A4.52,4.52,0,0,0,447.05,47.45Z"/><path class="cls-1" d="M479.62,29.28a1.37,1.37,0,0,1-.39.67,10.85,10.85,0,0,1-1,1,11.15,11.15,0,0,1-1.11.86,1.75,1.75,0,0,1-.89.35q-3.19.29-5.93.32c-1.83,0-3.45.06-4.88.11q0,8.54,3.35,12.83t10.66,4.31a5.09,5.09,0,0,1,2.1.28,1.24,1.24,0,0,1,.54,1.21c0,.38-.36.76-1.07,1.14a8.74,8.74,0,0,1-3.77.57,23.46,23.46,0,0,1-6.9-.89,15.26,15.26,0,0,1-4.76-2.38,11.75,11.75,0,0,1-3-3.45A17.62,17.62,0,0,1,460.91,42a23.29,23.29,0,0,1-.71-4.37c-.09-1.47-.14-2.87-.14-4.2a45.66,45.66,0,0,1,1.32-11.91,24,24,0,0,1,3.44-7.75,12.3,12.3,0,0,1,4.95-4.2,14.12,14.12,0,0,1,5.79-1.24,11.77,11.77,0,0,1,4.06.46,1.67,1.67,0,0,1,1.06,1.67c0,1-.45,1.57-1.35,1.57h-4.19a8,8,0,0,0-3.31.71,7.11,7.11,0,0,0-2.92,2.66,18.72,18.72,0,0,0-2.24,5.37,43.63,43.63,0,0,0-1.21,8.75,4.69,4.69,0,0,1,3.21-1.14h9.6C479.17,28.42,479.62,28.71,479.62,29.28Z"/><path class="cls-1" d="M495.21,47a.91.91,0,0,1,.67-.32,5.39,5.39,0,0,1,2.35.67,7.28,7.28,0,0,0,3.34.68,3.93,3.93,0,0,0,3.09-1.32,4.19,4.19,0,0,0,1.18-2.88,10.36,10.36,0,0,0-.68-3.34c-.45-1.28-1-2.64-1.67-4.09s-1.39-2.94-2.17-4.48-1.5-3-2.17-4.48-1.22-2.81-1.67-4.09a10.15,10.15,0,0,1-.67-3.27,9.69,9.69,0,0,1,1-3.45,24.66,24.66,0,0,1,2.56-4.51,18.79,18.79,0,0,1,3.69-4,6.92,6.92,0,0,1,4.38-1.67,14.3,14.3,0,0,1,1.46.1,13.27,13.27,0,0,1,1.88.36,7.68,7.68,0,0,1,1.64.64,1.13,1.13,0,0,1,.71,1,2.34,2.34,0,0,1-.54,1.85,5,5,0,0,1-2.52.5q-4.69.13-6.76,2.17a6.76,6.76,0,0,0-2.06,5,12.32,12.32,0,0,0,1.21,4.66c.81,1.87,1.69,3.89,2.67,6s1.86,4.39,2.66,6.69A19.78,19.78,0,0,1,510,42a16,16,0,0,1-.35,2.34A14.22,14.22,0,0,1,508.29,48a11.94,11.94,0,0,1-2.56,3.38,5.84,5.84,0,0,1-4.16,1.5,8.45,8.45,0,0,1-1.64-.22A13.56,13.56,0,0,1,498,52.1a13.91,13.91,0,0,1-1.71-.74,1.83,1.83,0,0,1-.89-.75c-.14-.43-.26-.84-.35-1.24a5.57,5.57,0,0,1-.14-1.32A1.49,1.49,0,0,1,495.21,47Z"/><path class="cls-2" d="M556.83,52.76c-.45-.09-.87-.16-1.25-.22l-4-.6a5.15,5.15,0,0,1-1.74-.48,1,1,0,0,1-.53-1,1.62,1.62,0,0,1,.32-1.08c.21-.26.45-.56.71-.9A5.87,5.87,0,0,0,551.1,47a8.91,8.91,0,0,0,.43-2.67c.14-3.46.26-7,.36-10.62s.14-7,.14-10.09c0-1.27,0-2.63-.11-4.1s-.16-2.92-.28-4.36-.25-2.77-.39-4-.29-2.25-.43-3.06c-.1-.52-.3-.82-.6-.91s-.62-.15-.93-.21a3,3,0,0,1-.85-.3c-.26-.15-.39-.53-.39-1.17a2.17,2.17,0,0,1,.53-1.68A8.76,8.76,0,0,1,551,2.67l5-1.72a25,25,0,0,1,2.52-.73A6.94,6.94,0,0,1,559.92,0c.14,0,.71.06,1.71.17a19.12,19.12,0,0,1,3.59.87,27,27,0,0,1,4.52,2,16.7,16.7,0,0,1,4.44,3.67,19.44,19.44,0,0,1,3.38,5.82A23.39,23.39,0,0,1,578.91,21q0,4.5-.21,7.9a46.51,46.51,0,0,1-.75,6.08,29.93,29.93,0,0,1-1.39,4.88,28.62,28.62,0,0,1-2.13,4.35,9.65,9.65,0,0,1-2.17,2.46,19.47,19.47,0,0,1-3.06,2.11,34.72,34.72,0,0,1-3.45,1.73q-1.77.78-3.3,1.29c-1,.35-1.91.62-2.67.82a7.76,7.76,0,0,1-1.56.31A7.89,7.89,0,0,1,556.83,52.76Zm-.43-15.62q0,3.15,0,5.82c0,2.19.19,3.57.57,4.15a2,2,0,0,0,1.84.86,17,17,0,0,0,6.08-1,10.28,10.28,0,0,0,4.73-3.79,21,21,0,0,0,3.1-7.51,55.55,55.55,0,0,0,1.1-12.16,22.94,22.94,0,0,0-1.56-9.06,19.78,19.78,0,0,0-3.67-5.83,14,14,0,0,0-4.16-3.14,8.22,8.22,0,0,0-3.06-1,7.12,7.12,0,0,0-2.63.56,8.53,8.53,0,0,0-2.27,1.25V30.71Q556.44,34,556.4,37.14Z"/><path class="cls-2" d="M611.3,29.28a1.41,1.41,0,0,1-.4.67,8.68,8.68,0,0,1-1,1,11.09,11.09,0,0,1-1.1.86,1.75,1.75,0,0,1-.89.35q-3.19.29-5.94.32c-1.82,0-3.44.06-4.87.11q0,8.54,3.35,12.83t10.66,4.31a5.09,5.09,0,0,1,2.1.28c.36.19.53.59.53,1.21,0,.38-.35.76-1.06,1.14a8.74,8.74,0,0,1-3.77.57,23.46,23.46,0,0,1-6.9-.89,15.15,15.15,0,0,1-4.76-2.38,11.61,11.61,0,0,1-3-3.45A17.62,17.62,0,0,1,592.59,42a23.29,23.29,0,0,1-.71-4.37c-.09-1.47-.14-2.87-.14-4.2a46.14,46.14,0,0,1,1.31-11.91,24.18,24.18,0,0,1,3.45-7.75,12.3,12.3,0,0,1,5-4.2,14.12,14.12,0,0,1,5.79-1.24,11.81,11.81,0,0,1,4.06.46,1.67,1.67,0,0,1,1.06,1.67c0,1-.45,1.57-1.35,1.57h-4.19a8,8,0,0,0-3.31.71,7.11,7.11,0,0,0-2.92,2.66,18.44,18.44,0,0,0-2.24,5.37,43.63,43.63,0,0,0-1.21,8.75,4.64,4.64,0,0,1,3.2-1.14h9.6C610.84,28.42,611.3,28.71,611.3,29.28Z"/><path class="cls-2" d="M627.73,47a.92.92,0,0,1,.68-.32,5.39,5.39,0,0,1,2.34.67,7.33,7.33,0,0,0,3.35.68,3.93,3.93,0,0,0,3.09-1.32,4.22,4.22,0,0,0,1.17-2.88,10.32,10.32,0,0,0-.67-3.34c-.45-1.28-1-2.64-1.67-4.09s-1.39-2.94-2.17-4.48-1.51-3-2.17-4.48-1.22-2.81-1.67-4.09a10.2,10.2,0,0,1-.68-3.27,9.74,9.74,0,0,1,1-3.45,24.66,24.66,0,0,1,2.56-4.51,18.83,18.83,0,0,1,3.7-4,7,7,0,0,1,4.37-1.67,14.3,14.3,0,0,1,1.46.1,13.41,13.41,0,0,1,1.89.36,7.59,7.59,0,0,1,1.63.64,1.13,1.13,0,0,1,.71,1,2.38,2.38,0,0,1-.53,1.85,5.08,5.08,0,0,1-2.53.5Q638.86,11,636.8,13a6.72,6.72,0,0,0-2.06,5,12.46,12.46,0,0,0,1.2,4.66c.81,1.87,1.7,3.89,2.67,6s1.86,4.39,2.67,6.69A20,20,0,0,1,642.49,42a15.08,15.08,0,0,1-.36,2.34A14.18,14.18,0,0,1,640.82,48a12.13,12.13,0,0,1-2.56,3.38,5.85,5.85,0,0,1-4.16,1.5,8.35,8.35,0,0,1-1.64-.22,15.28,15.28,0,0,1-3.66-1.31,1.78,1.78,0,0,1-.89-.75c-.14-.43-.26-.84-.36-1.24a6.14,6.14,0,0,1-.14-1.32A1.54,1.54,0,0,1,627.73,47Z"/><path class="cls-2" d="M662.12,23.59c-.07-1.43-.1-2.75-.1-4,0-.66,0-1.22-.07-1.67a2.13,2.13,0,0,0-.5-1.17,4.71,4.71,0,0,1-1-1.39,3,3,0,0,1-.25-1.17,2.24,2.24,0,0,1,.64-1.21,11,11,0,0,1,1.49-1.49,14,14,0,0,1,1.74-1.25,3.13,3.13,0,0,1,1.39-.53,3.57,3.57,0,0,1,1.78.6c.66.41,1,.75,1,1A5.26,5.26,0,0,1,668,13.1a7.32,7.32,0,0,0-.4,2.09q-.28,3.14-.46,10.49t-.18,20.17a18.85,18.85,0,0,1-.53,5.65,1.83,1.83,0,0,1-1.74,1.39,2.11,2.11,0,0,1-.89-.18,1.57,1.57,0,0,1-.68-.89,9.32,9.32,0,0,1-.46-2.17c-.12-1-.2-2.32-.25-4s-.08-3.91-.1-6.55,0-5.81,0-9.56Q662.23,25.73,662.12,23.59Z"/><path class="cls-2" d="M708.82,37.41a4.83,4.83,0,0,1,2.06-.28,1.66,1.66,0,0,1,.71.14,1.19,1.19,0,0,1,.46.75,8.05,8.05,0,0,1,.22,1.85c0,.83,0,2,0,3.52a75.35,75.35,0,0,0,.32,7.71,46,46,0,0,1,.32,5,2.1,2.1,0,0,1-.39,1.42,2.34,2.34,0,0,1-1.67.43,1.18,1.18,0,0,1-.71-.22,2.13,2.13,0,0,1-.57-.82,8.12,8.12,0,0,1-.53-1.74c-.17-.76-.35-1.75-.54-3a1.94,1.94,0,0,0-2.13-1.85,6,6,0,0,0-1,.14c-.5.09-1.08.19-1.74.28l-2.14.29a18.24,18.24,0,0,1-2.13.14,15.85,15.85,0,0,1-8.07-1.85,15.52,15.52,0,0,1-5-4.52,17.23,17.23,0,0,1-2.59-5.58,20.88,20.88,0,0,1-.75-5.12,28.54,28.54,0,0,1,1.35-8.67,21.41,21.41,0,0,1,4.23-7.61,21.72,21.72,0,0,1,7.29-5.44,24.3,24.3,0,0,1,10.53-2.1,16.65,16.65,0,0,1,6.19.89A3,3,0,0,1,714.65,14a1.66,1.66,0,0,1-.43,1,4.57,4.57,0,0,1-1,.92,6.54,6.54,0,0,1-1.14.64,2.4,2.4,0,0,1-.93.25,1.66,1.66,0,0,1-1-.43c-.35-.28-1-.9-2.09-1.84a3.52,3.52,0,0,0-1.36-.82,5.82,5.82,0,0,0-1.56-.18,11.52,11.52,0,0,0-6.58,2.1A22.21,22.21,0,0,0,693.1,21a27.27,27.27,0,0,0-3.7,7,21.61,21.61,0,0,0-1.35,7.22,19.78,19.78,0,0,0,.82,6.26,8.53,8.53,0,0,0,2.28,3.73A7.85,7.85,0,0,0,694.52,47a16.06,16.06,0,0,0,4.13.5,12.6,12.6,0,0,0,3.52-.46,11.78,11.78,0,0,0,2.77-1.17,7,7,0,0,0,1.85-1.57,3.86,3.86,0,0,0,.82-1.7l.57-4.27A1.33,1.33,0,0,1,708.82,37.41Z"/><path class="cls-2" d="M731.32,23.55c0-.88,0-1.77,0-2.67a5.13,5.13,0,0,0-1-3.48,5.71,5.71,0,0,0-2.13-1.53c-.78-.31-1.5-.58-2.14-.82a1.28,1.28,0,0,1-1-1.28c0-.33.26-.68.79-1.06l2.56-2.07a3.23,3.23,0,0,1,1-.64,2.29,2.29,0,0,1,.74-.14,1.46,1.46,0,0,1,.82.25,4.72,4.72,0,0,1,1,1q4.13,4.9,8.46,9.81t8.08,9q3.72,4.06,6.47,6.9c1.82,1.9,3.07,3.13,3.73,3.7q.57-3.63.82-6.93c.16-2.21.25-7,.25-9.33a45.51,45.51,0,0,0-.22-4.84c-.14-1.37-.28-3.38-.42-4.33s-.29-1.71-.43-2.28a6,6,0,0,1-.21-1.35,1.41,1.41,0,0,1,.6-1,3.92,3.92,0,0,1,1.32-.6,8.54,8.54,0,0,1,1.63-.29c.57-.05,1.09-.07,1.57-.07A1.44,1.44,0,0,1,765,10a2.69,2.69,0,0,1,.35,1.39,12.27,12.27,0,0,1-.35,2.35c-.24,1.09-.5,3.41-.78,5.25s-.55,4.16-.79,6.94-.35,8.64-.35,12.53c0,1.19,0,2.45.07,3.8s.07,2.79.07,4.31a2.55,2.55,0,0,1-.64,1.53,9.78,9.78,0,0,1-1.46,1.49,12.56,12.56,0,0,1-1.6,1.14,2.78,2.78,0,0,1-1.06.46c-.24,0-.44-.26-.61-.78s-.37-1.19-.6-2a21.68,21.68,0,0,0-1-2.71,13,13,0,0,0-2-3q-2.78-3.27-5.72-6.44T743,30.38q-2.6-2.74-4.7-4.87c-1.39-1.43-2.45-2.54-3.16-3.35q-.21,3-.36,6.16t-.17,6.15c0,2-.05,3.85-.07,5.58s0,3.19,0,4.37,0,2.1.07,3.17.07,1.88.07,2.45a3.05,3.05,0,0,1-.25,1.18,1.41,1.41,0,0,1-1,.81l-2.59.64a7.39,7.39,0,0,1-1.68.22c-.9,0-1.35-.34-1.35-1a1.92,1.92,0,0,1,.36-1.1c.24-.36.51-.81.82-1.35a12.8,12.8,0,0,0,.89-2.17,15.22,15.22,0,0,0,.56-3.49l.86-17.56C731.27,25.32,731.3,24.43,731.32,23.55Z"/></g></g></svg>