<svg xmlns="http://www.w3.org/2000/svg" viewBox="0 0 19.91 22.74"><g id="レイヤー_2" data-name="レイヤー 2"><g id="レイヤー_1-2" data-name="レイヤー 1"><path d="M2.49,9.6A5.43,5.43,0,0,1,7.56,6.78c3.61,0,6.16,3.1,6.16,7.81,0,5.54-3.39,8.15-6.55,8.15a5.22,5.22,0,0,1-4.93-2.86H2.16L2,22.4H0c.06-1,.11-2.55.11-3.78V0H2.44V9.6Zm-.05,6.84a4.3,4.3,0,0,0,4.28,4.39c3,0,4.62-2.55,4.62-6.16,0-3.19-1.57-6-4.54-6a4.62,4.62,0,0,0-4.36,4.73Z"/><path d="M16.58,21a1.69,1.69,0,0,1,1.68-1.82A1.67,1.67,0,0,1,19.91,21a1.67,1.67,0,1,1-3.33,0Z"/></g></g></svg>