<svg xmlns="http://www.w3.org/2000/svg" viewBox="0 0 35.83 25.9"><g id="レイヤー_2" data-name="レイヤー 2"><g id="レイヤー_1-2" data-name="レイヤー 1"><path d="M8.89,13.16a13.18,13.18,0,0,1-.27,2.76,7.93,7.93,0,0,1-.79,2.19,4.29,4.29,0,0,1-1.28,1.44,3,3,0,0,1-1.74.52,2.69,2.69,0,0,1-2-.76,4.34,4.34,0,0,1-1-2H1.66v2.32H0V0H1.72V9h0a3.9,3.9,0,0,1,1.11-1.9,2.81,2.81,0,0,1,2-.73,3.07,3.07,0,0,1,1.75.51,4.16,4.16,0,0,1,1.29,1.4,7.07,7.07,0,0,1,.78,2.15A13.08,13.08,0,0,1,8.89,13.16Zm-1.77.05A14.06,14.06,0,0,0,7,11.1a6.39,6.39,0,0,0-.5-1.71,3.1,3.1,0,0,0-.84-1.15,1.83,1.83,0,0,0-1.21-.41,1.86,1.86,0,0,0-1.2.41,3.39,3.39,0,0,0-.87,1.15,6.76,6.76,0,0,0-.52,1.71,13.24,13.24,0,0,0,0,4.23A6.73,6.73,0,0,0,2.35,17a3.48,3.48,0,0,0,.86,1.13,1.83,1.83,0,0,0,1.21.41,1.83,1.83,0,0,0,1.21-.41A3.19,3.19,0,0,0,6.47,17,6.35,6.35,0,0,0,7,15.33,14,14,0,0,0,7.12,13.21Z"/><path d="M11.6,19.66V0h1.71V19.66Z"/><path d="M25,13.23A11.46,11.46,0,0,1,24.7,16a7.39,7.39,0,0,1-.88,2.15,4.25,4.25,0,0,1-1.42,1.41,3.67,3.67,0,0,1-1.89.49,3.6,3.6,0,0,1-1.87-.49,4.34,4.34,0,0,1-1.42-1.41A7.13,7.13,0,0,1,16.33,16,11.46,11.46,0,0,1,16,13.23a12.22,12.22,0,0,1,.29-2.8,7,7,0,0,1,.88-2.19,4.19,4.19,0,0,1,1.41-1.4,3.73,3.73,0,0,1,1.91-.5,3.68,3.68,0,0,1,1.89.5,4.31,4.31,0,0,1,1.42,1.4,7.54,7.54,0,0,1,.88,2.19A11.66,11.66,0,0,1,25,13.23Zm-1.77,0a11.87,11.87,0,0,0-.17-2.13,6.58,6.58,0,0,0-.5-1.7,3.23,3.23,0,0,0-.85-1.13,1.83,1.83,0,0,0-1.21-.41,1.89,1.89,0,0,0-1.22.41,2.89,2.89,0,0,0-.84,1.13,6.58,6.58,0,0,0-.5,1.7,12.86,12.86,0,0,0-.17,2.13A12.4,12.4,0,0,0,18,15.3a6.79,6.79,0,0,0,.5,1.68,2.75,2.75,0,0,0,.84,1.13,2.08,2.08,0,0,0,2.45,0A2.94,2.94,0,0,0,22.58,17a6.8,6.8,0,0,0,.49-1.68A11.45,11.45,0,0,0,23.24,13.2Z"/><path d="M35.83,19.47A14.42,14.42,0,0,1,35.61,22a6,6,0,0,1-.75,2,3.71,3.71,0,0,1-1.4,1.35,4.49,4.49,0,0,1-2.21.5,5,5,0,0,1-2.38-.59,4.84,4.84,0,0,1-1.78-1.57l1.12-1.2a4.17,4.17,0,0,0,1.31,1.3,3.29,3.29,0,0,0,1.78.5A2.56,2.56,0,0,0,32.72,24a2.46,2.46,0,0,0,.87-1A5.16,5.16,0,0,0,34,21.42a13,13,0,0,0,.13-2V17.34h0a4.47,4.47,0,0,1-1,1.95,2.66,2.66,0,0,1-2.05.78,3,3,0,0,1-1.75-.52A4.27,4.27,0,0,1,28,18.11a7.62,7.62,0,0,1-.79-2.19,13.18,13.18,0,0,1-.27-2.76,13.81,13.81,0,0,1,.25-2.76A7.64,7.64,0,0,1,28,8.25a4,4,0,0,1,1.28-1.4A3.07,3.07,0,0,1,31,6.34a2.92,2.92,0,0,1,2,.72,3.51,3.51,0,0,1,1.1,1.88h.08V6.76h1.67Zm-1.67-6.26A11.79,11.79,0,0,0,34,11.1a6,6,0,0,0-.52-1.71,3.15,3.15,0,0,0-.87-1.15,2,2,0,0,0-2.4,0,3.33,3.33,0,0,0-.85,1.13,6.4,6.4,0,0,0-.49,1.71,13,13,0,0,0-.16,2.13,12.58,12.58,0,0,0,.16,2.09,6.44,6.44,0,0,0,.49,1.7,3.23,3.23,0,0,0,.85,1.15,2,2,0,0,0,2.42,0A3.46,3.46,0,0,0,33.47,17,6,6,0,0,0,34,15.33,11.75,11.75,0,0,0,34.16,13.21Z"/></g></g></svg>