<svg xmlns="http://www.w3.org/2000/svg" viewBox="0 0 423.11 357"><defs><style>.cls-1{fill:#231815;}.cls-2{fill:#fff;}.cls-3{fill:none;}</style></defs><g id="レイヤー_2" data-name="レイヤー 2"><g id="map-3"><rect class="cls-1" y="310" width="319" height="4"/><rect class="cls-1" y="296" width="182" height="32"/><rect class="cls-1" x="72" y="21" width="16" height="250"/><rect class="cls-1" y="21" width="349" height="10"/><rect class="cls-1" y="83.5" width="297.58" height="10"/><rect class="cls-1" x="75" y="146" width="274" height="10"/><rect class="cls-1" x="83" y="208.5" width="147" height="10"/><rect class="cls-1" x="220" y="152" width="10" height="61"/><rect class="cls-1" x="295" width="10" height="238"/><polygon class="cls-1" points="188.75 271 203.83 212.51 194.14 210.02 178.42 271 188.75 271"/><circle class="cls-1" cx="169" cy="267" r="4"/><circle class="cls-1" cx="198" cy="200" r="4"/><circle class="cls-1" cx="314" cy="137" r="4"/><circle class="cls-1" cx="281" cy="57" r="4"/><path class="cls-1" d="M281,48a9,9,0,1,0,9,9A9,9,0,0,0,281,48Zm0,15.75A6.75,6.75,0,1,1,287.75,57,6.75,6.75,0,0,1,281,63.75Z"/><path class="cls-2" d="M54.57,314.76c0,2.8-1.78,4.44-5,4.44-2.62,0-3.8-.92-4.66-3.64l3-1c.36,1.64.88,2.34,1.74,2.34s1.2-.52,1.2-1.72V303.4h3.7Z"/><path class="cls-2" d="M66.21,319l-2.34-5.7h-1.5V319h-3.6V303.4H64c3.22,0,5.5,1.46,5.5,4.58a4.1,4.1,0,0,1-2.5,4.18L70.39,319Zm-3.84-8.36h1.28a2,2,0,0,0,2.28-2.28A2.08,2.08,0,0,0,63.65,306H62.37Z"/><path class="cls-2" d="M82.15,302l.14-.16H85l.14.14v1.8h4.46l3.22-.06.14.14V306l-.14.14-3.22-.06H77.79l-3.2.06-.14-.16V303.8l.16-.12,3.18.06h4.36Zm3.64,17h-4v.86H79.29l.08-2.5V316.1l0-1.42.12-.12,2,.06h4.2l2.12-.06.14.12,0,1.42v1.2l0,1.12a10.56,10.56,0,0,0,1.06-.08c.22,0,.34,0,.34-.36v-4H78.05V321H75.21l.1-4.46v-2.32L75.25,312l.14-.14,2.56.06h11.5l2.56-.06.14.14-.06,2.26v1.7l.08,2.8c0,1.82-1.16,2.24-3.84,2.24-.32,0-.36,0-.44-.22L87.13,319Zm-7.48-7.7-.14-.16.1-1.84v-.78l-.06-1.68.14-.14,2.16.06h6.34l2.16-.06.14.14-.06,1.68v.84l.06,1.76-.16.18-2.28-.06H80.63Zm8.08-1.84v-.92h-5.5v.92Zm-.94,7.8v-.9H81.77v.9Z"/><path class="cls-2" d="M100.65,312.68v8h-3l.1-6.3v-8.54l-.06-2.68.14-.14,3.38.06h9.08l3.38-.06.14.14-.06,2.68v6.54l.08,5.6c0,1.74-.6,2.52-3,2.52h-1.32c-.4,0-.44,0-.52-.24l-.92-2.52c.58,0,1.82,0,2.34-.06.3,0,.36-.16.36-.64v-4.4Zm3.58-7.08h-3.58v4.6h3.58Zm6.56,4.6v-4.6h-3.68v4.6Z"/><path class="cls-2" d="M125.93,306.56h-2.5l-3.32.06-.14-.14v-2.24l.18-.1,3.28.06h2.5V302l.1-.12h2.7l.12.12v2.2H132l3.32-.06.14.14v2.2l-.14.14-3.32-.06h-3.1v1.8h4.4l3.68-.06.14.14v2.22l-.14.14-3.68-.06H122l-3.46.06-.14-.14V308.4l.18-.1,3.42.06h3.9Zm7.62,6,3.24-.06.14.14v2.2l-.14.14-3.24-.06h-.5l.08,3.4c0,2-1,2.72-3.94,2.72-.4,0-.44-.08-.54-.28l-1.12-2.5c.94,0,1.72,0,2.06-.08s.54-.16.54-.64v-2.62h-5.86a18.48,18.48,0,0,1,2.52,2v.22l-2,2-.2,0a19.92,19.92,0,0,0-2.84-2.62v-.22l1.54-1.32h-1.18l-3.4.06-.14-.14V312.6l.18-.1,3.36.06h8v-1.2l.1-.12h2.68l.12.12v1.2Z"/><path class="cls-1" d="M252.08,345l.55-.54.15,0a11.47,11.47,0,0,1,1.5,1.24l0,.15-1,1.11h-.14a11.2,11.2,0,0,0-1-1.12l.09,3h-2.09l.15-2.84a9.7,9.7,0,0,1-1.7,1.89.42.42,0,0,1-.23.12c-.07,0-.13,0-.22-.15l-1-1.21a12.31,12.31,0,0,0,2.6-2.55h-.31l-1.63,0-.11-.09V342.6l.09-.08,1.65,0h.79v-.82l.07-.07H252l.09.07v.82h.62l1.71,0,.09.07v1.52l-.09.07-1.71,0h-.62Zm2.41-5.28.1.1v1.47l-.1.11-1.7-.05h-3.63l-1.64.05-.1-.11v-1.47l.1-.1,1.48,0c-.09-.42-.21-.85-.31-1.17l.09-.13,1.46-.3.13.11a12.84,12.84,0,0,1,.41,1.49h.71c.15-.51.27-1,.37-1.53l.13-.07,1.55.35.1.11c-.12.37-.23.76-.37,1.13Zm-2.05-3.26,1.84,0,.1.09V338l-.1.1-1.84,0h-2.77l-1.78,0-.11-.1v-1.42l.11-.1,1.78,0h.47v-1.4l.1-.1H252l.09.12v1.38Zm4.37,5.29c0,3.7-.51,5.33-1.92,7-.08.09-.14.15-.21.15a.4.4,0,0,1-.21-.09l-1.34-.94c1.41-1.59,1.76-2.84,1.76-5.66v-3.63l0-2.43.1-.1,1.42.25a13.27,13.27,0,0,0,3.12-.92h.13a9,9,0,0,1,1.33,1.3v.14a20.7,20.7,0,0,1-4.14,1.07v1.85h2.62l1.51,0,.09.1v1.53l-.09.11-1.14,0v4l.07,3.51h-2.09l.08-3.51v-4h-1.05Z"/><path class="cls-1" d="M265.72,348.93h-2l.07-4.52v-.17a6.94,6.94,0,0,1-.73,1c-.11.12-.2.19-.27.19s-.13-.06-.21-.17l-.9-1.4a13.22,13.22,0,0,0,3.18-5.59l.13-.08,1.69.63.08.13a15.31,15.31,0,0,1-1,2.48Zm1.87-13.9.1-.1h2l.1.1v1.19h2.93l2.41,0,.12.1,0,1.11v.32l.07,1.61h-.57v1.17l-.1.1-1.92,0h-1.31c-.1.33-.2.67-.32,1h1l2.18,0,.1.1,0,1.64v2.83l.07,2.79h-2.1v-.65H268.8v.65h-2l.07-2.72v-3l0-1.57.1-.09,2.13,0h0a8.8,8.8,0,0,0,.19-1h-.45l-1.91,0-.1-.1v-1.56l.1-.11,1.91.05h3.85l.49,0v-1h-8.81v1.46h-2l.07-1.61v-.26l0-1.17.1-.1,2.42,0h2.75Zm4.63,8.11H268.8v.92h3.42Zm0,2.47H268.8v1h3.42Z"/><path class="cls-1" d="M282.12,335.1l.1-.12h2l.1.11v2.07h3.35l2.34,0,.11.1v1.69l-.11.1-2.34,0h-4.53v.48c0,.45,0,.91,0,1.33h3.26l1.89-.06.1.1c-.06,2.3-.17,4.3-.34,5.55-.21,1.66-1,2.22-3.88,2.22-.23,0-.29,0-.36-.22l-.85-1.87c.66,0,1.53,0,2.15,0s.67-.19.77-.82a25.41,25.41,0,0,0,.22-3.05h-3.24a8.64,8.64,0,0,1-4.83,6.1.37.37,0,0,1-.15.05.29.29,0,0,1-.19-.11l-1.27-1.46c3.39-1.75,4.55-3.66,4.55-7.63V339h-1.81l-2.27,0-.11-.11v-1.7l.12-.08,2.26,0h3Z"/><path class="cls-1" d="M298.32,337.48c-.12.39-.25.77-.39,1.15h3.54l2.47,0,.1.1,0,2.15V344l.07,4.9h-2.22v-.84H294v.84h-2.17l.08-4.9v-3.19l0-2.15.11-.1,2.46,0h1.51c.11-.38.22-.77.3-1.15h-2.76l-2.42,0-.1-.1v-1.71l.1-.1,2.42.05h8.95l2.41-.05.1.1v1.71l-.1.1-2.41,0Zm-3.14,2.89H294v6h1.19Zm3.37,1v-1h-1.43v1Zm-1.43,1.52v.95h1.43v-.95Zm0,2.47v1h1.43v-1Zm4.73,1v-6h-1.31v6Z"/><path class="cls-1" d="M306.36,341.66H317c-.48-.68-.87-1.26-1.32-2l.1-.09a18.32,18.32,0,0,0,3.18,2.37,18.24,18.24,0,0,0-3.18,2.36l-.1-.08c.46-.75.86-1.35,1.32-2H306.36Z"/><path class="cls-1" d="M1.88,344.15c.45.69.82,1.28,1.27,2l-.1.08a18,18,0,0,0-3-2.36,17.07,17.07,0,0,0,3.05-2.36l.1.09c-.43.76-.81,1.34-1.27,2H12.13v.51Z"/><path class="cls-1" d="M24.55,338.67l2.28,0,.1.1v1.63l-.1.11-2.28-.05H21.14v1.47h2.15l2.28,0,.1.1v1.63l-.1.11-2.28-.05H17l-2.13.05-.11-.11v-1.66l.14-.07,2.1,0h2.1v-1.47H15.77l-2.13.05-.12-.11V338.7l.14-.07,2.11,0h3.31v-1.6l.1-.13H21l.11.12v1.61Zm-7,11.22v.95H15.54l.07-2.8v-1.18l0-2.08.08-.09,2.1,0h4.93l2.09,0,.1.09,0,2.08v1.08l.07,2.87H22.78v-.92Zm5.19-3.48H17.59v1.81h5.19Z"/><path class="cls-1" d="M37.54,342.61H38l1.84-.05.09.11v1.58l-.09.11L38,344.31h-.43v1.33h1.37l1.84-.05.09.11v1.66l-.09.1-1.84,0H37.55l.06,3.49H35.52l.06-3.49H34.32l-1.84,0-.1-.1V346.1l-.15.16h-.14a6.33,6.33,0,0,0-.77-1v2.07l.07,3.58h-2l.07-3.58V346a7.51,7.51,0,0,1-.73.67.41.41,0,0,1-.24.12.22.22,0,0,1-.19-.13l-.94-1.44A11.11,11.11,0,0,0,30.68,341H29.43l-1.71,0-.08-.12v-1.69l.08-.08,1.71,0V337l.1-.1h1.71l.08.11v2.1h.07l.85,0,.77.77v-.1l.1-.11,1.4,0a8.49,8.49,0,0,0-.92-1.86l0-.13,1.24-.66.14,0a7.91,7.91,0,0,1,1.19,2l-.07.13-.94.54h1.51a15.15,15.15,0,0,0,1-2.64l.12-.06,1.61.48.07.13a19.77,19.77,0,0,1-.92,2.09h0l1.83,0,.1.11v1.6l-.1.1-1.83,0H37.54ZM35,341.43l-1.84,0-.1-.1v-1a15.93,15.93,0,0,1-1.69,3.41v.3l.45-.42.14,0a5.89,5.89,0,0,1,1.37,1.36v.15l-.4.41,1.45,0h1.27v-1.33h-.45l-1.83.05-.1-.11v-1.58l.1-.11,1.83.05h.45v-1.18Z"/><path class="cls-1" d="M47,340.38H45.22l-2.32,0-.1-.1v-1.63l.12-.07,2.3,0H47v-1.6L47,337h1.89l.09.09v1.6h2.17l2.32,0,.1.1v1.6l-.1.1-2.32,0H49v1.31H52.1l2.58,0,.09.1v1.61l-.09.11-2.58-.05H44.24l-2.42.05-.1-.11v-1.64l.13-.07,2.39,0H47Zm5.34,4.37,2.27-.05.1.11v1.6l-.1.1-2.27,0H52l0,2.47c0,1.46-.67,2-2.76,2-.27,0-.3-.06-.37-.21l-.79-1.82a13.75,13.75,0,0,0,1.44-.06c.3,0,.38-.11.38-.46v-1.91h-4.1a12.78,12.78,0,0,1,1.76,1.43v.16l-1.4,1.42-.14,0a14,14,0,0,0-2-1.91v-.16l1.07-1H44.3l-2.38,0-.1-.1v-1.63l.12-.08,2.36.05h5.61v-.88l.07-.08h1.88l.08.08v.88Z"/><path class="cls-1" d="M61,337.1l.1-.12h1.93l.1.11v2.06h3.2l2.26,0,.1.1v1.69l-.1.1-2.26,0H62v.48c0,.45,0,.91,0,1.33h3.14l1.8-.06.1.1c0,2.29-.17,4.28-.32,5.54-.21,1.66-1,2.21-3.72,2.21-.23,0-.29,0-.36-.22l-.81-1.86c.63,0,1.47,0,2.06-.05s.65-.19.74-.81a25.69,25.69,0,0,0,.21-3.05H61.71a8.55,8.55,0,0,1-4.63,6.09.34.34,0,0,1-.14,0,.25.25,0,0,1-.18-.11l-1.22-1.45c3.25-1.75,4.37-3.66,4.37-7.62V341H58.17L56,341l-.1-.11V339.2l.11-.09,2.17,0H61Z"/><path class="cls-1" d="M76.57,339.48c-.11.39-.24.77-.38,1.15h3.4l2.37-.05.1.1,0,2.15V346l.07,4.88H80v-.83H72.41v.83H70.34l.07-4.88v-3.19l0-2.15.1-.1,2.37.05h1.44c.11-.38.21-.78.3-1.15H71.92l-2.33,0-.09-.1v-1.71l.09-.1,2.33,0H80.5l2.32,0,.09.1v1.71l-.09.1-2.32,0Zm-3,2.88H72.41v6h1.15Zm3.23,1v-1H75.42v1Zm-1.37,1.52v.94h1.37v-.94Zm0,2.46v1h1.37v-1Zm4.54,1v-6H78.7v6Z"/><path class="cls-1" d="M118.91,256.08l.08-6.18v-3.08l0-2.18.12-.12,2.36,0h5.21l2.29,0,.13.12L129,247v5.08l.05,2.47-.11.14-2.43-.05h-5v1.45Zm7.54-9h-4.93v5.08h4.93Z"/><path class="cls-1" d="M142,251.44h-7.15l-2.39.05-.11-.14v-2.58l.14-.11,2.29.06h7.14l2.47-.06.13.13v2.56l-.12.14Z"/><path class="cls-1" d="M147.09,245.15l1.87-1.43h.18a19.34,19.34,0,0,1,2.64,3.5l0,.2L149.7,249l-.18,0a18,18,0,0,0-2.46-3.66Zm8.82-1.84,2.37.81.06.16c-1.05,5.62-3.46,9.91-7.49,12.87a.91.91,0,0,1-.35.16.64.64,0,0,1-.32-.13L148,255.89c4.48-2.89,6.8-6.81,7.73-12.53Z"/><path class="cls-1" d="M161.44,246.21l1.55-2,.16,0a17.1,17.1,0,0,1,3.25,2.49v.18l-1.66,2.18-.15,0a19.37,19.37,0,0,0-3.13-2.71Zm12.41,1.5a1.28,1.28,0,0,1,.06.34.45.45,0,0,1-.16.32,31.56,31.56,0,0,1-10.55,8.33l-.16,0-1.44-2.43,0-.18A29.35,29.35,0,0,0,173,244.88Z"/><path class="cls-1" d="M126.8,176.49l2.15.4.09.14a15.45,15.45,0,0,1-.62,3.47,19.25,19.25,0,0,0-.71,4.2,12.44,12.44,0,0,0,.07,1.37c0,.18.21.19.37,0a7.28,7.28,0,0,0,1-1.07l.47.4a9.7,9.7,0,0,0-.85,3c-.1.9-.56,1.23-1,1.23a1.49,1.49,0,0,1-1.32-.66,6.69,6.69,0,0,1-.88-3.89,25.17,25.17,0,0,1,.64-5.21,18.22,18.22,0,0,0,.55-3.33Zm4.07,4.38c1.07,0,2.09,0,3,0V179.1c-.91,0-1.87.06-2.92.06l-.12-.13v-1.75l.09-.11a53.38,53.38,0,0,0,7-.38l.13.1.11,1.77-.13.12c-.59.08-1.25.14-1.89.21,0,.55,0,1.1,0,1.67.71-.1,1.47-.19,2.24-.33l.12.08.08,1.88-.11.11c-.73.11-1.52.22-2.3.3,0,.82.08,1.61.13,2.49a15.15,15.15,0,0,1,3.13,2.05v.18l-1.3,1.68-.14,0a11.23,11.23,0,0,0-1.81-1.55c-.28,1.17-1.38,1.93-3.14,1.93s-3.06-.7-3.06-2.45,1.6-2.38,3.06-2.38a6.06,6.06,0,0,1,1,.05c0-.71-.06-1.31-.08-1.85-.93,0-1.95.08-3.12.08l-.1-.11V181Zm2.16,5.58c-.67,0-1,.24-1,.54s.18.57.91.57,1.09-.45,1.06-.93A2,2,0,0,0,133,186.45Z"/><path class="cls-1" d="M140.62,183.91c3.88-1.75,5.66-2.32,7.19-2.32,2.45,0,4,1.5,4,3.69a3.9,3.9,0,0,1-2.47,3.7,14.5,14.5,0,0,1-3.6.87h-.26c-.21,0-.27-.06-.38-.23l-1-1.74a10.75,10.75,0,0,0,3.82-.66,2.17,2.17,0,0,0,1.57-2.2c0-.95-.62-1.43-1.69-1.43-1.28,0-2.65.47-6.09,2.22h-.16l-.88-1.74Z"/><path class="cls-1" d="M165.93,189c-1.48.11-3,.17-5.05.17-3.84,0-5.68-1.15-5.68-3.63,0-1.43,1.2-2.81,2.9-4a39.35,39.35,0,0,1-2.34-3.76l0-.15,1.94-1,.16,0a41.89,41.89,0,0,0,2.27,3.68,44.91,44.91,0,0,1,4.69-2l.16.06,1,2.07-.07.12c-1.39.46-2.81,1-3.74,1.39a1,1,0,0,0-.44.79,1.17,1.17,0,0,1-1.15,1,1.65,1.65,0,0,1-1.1-.43c-1.25.71-1.81,1.38-1.81,2.12,0,1.05,1.36,1.29,3.25,1.29a48.77,48.77,0,0,0,4.93-.31l.13.09.06,2.26Z"/><path class="cls-1" d="M171.43,181.76a1.64,1.64,0,0,0-.13.59c0,.35.32.39,1.21.39.13-.88.23-1.53.32-2.19-1.12-.06-2.06-.14-2.92-.25l-.1-.15.13-1.83.13-.09a26.35,26.35,0,0,0,3.08.27c.13-.87.26-1.75.36-2.54l.14-.08,2.23.25.11.14c-.1.67-.23,1.42-.37,2.2.74,0,1.46-.11,2.21-.21l.13.1.12,1.86-.14.12c-.82.1-1.74.16-2.69.19-.13.75-.24,1.49-.33,2.18a26.62,26.62,0,0,0,3.29-.41l.15.1.2,1.84-.09.13c-1.38.22-2.64.36-3.81.46a12.65,12.65,0,0,0-.16,1.76c0,.79.37,1.09,1.58,1.09,2.15,0,2.74-.41,2.74-1.05,0-.34-.16-.84-.91-1.65l1.9-.63a.36.36,0,0,1,.36.1,3.66,3.66,0,0,1,1.36,2.68c0,1.58-1.32,2.75-5.43,2.75-3.14,0-4-1.25-4-2.86a16.44,16.44,0,0,1,.16-2.19c-2.13-.11-3-.52-3-1.79a3.06,3.06,0,0,1,.28-1.28l.13-.06,1.72-.06Z"/><path class="cls-1" d="M183.83,183.91c3.87-1.75,5.64-2.32,7.18-2.32,2.45,0,4,1.5,4,3.69a3.89,3.89,0,0,1-2.46,3.7,14.5,14.5,0,0,1-3.6.87h-.26a.38.38,0,0,1-.38-.23l-1-1.74a10.75,10.75,0,0,0,3.82-.66,2.17,2.17,0,0,0,1.57-2.2c0-.95-.62-1.43-1.69-1.43-1.29,0-2.64.47-6.09,2.22h-.16l-.88-1.74Z"/><path class="cls-1" d="M209.12,189c-1.47.11-3,.17-5,.17-3.84,0-5.68-1.15-5.68-3.63,0-1.43,1.2-2.81,2.9-4A41.46,41.46,0,0,1,199,177.8l0-.15,1.94-1,.16,0a41.89,41.89,0,0,0,2.27,3.68,44.91,44.91,0,0,1,4.69-2l.16.06.95,2.07-.07.12c-1.39.46-2.81,1-3.74,1.39a1,1,0,0,0-.43.79,1.19,1.19,0,0,1-1.16,1,1.65,1.65,0,0,1-1.1-.43c-1.25.71-1.81,1.38-1.81,2.12,0,1.05,1.36,1.29,3.25,1.29a48.77,48.77,0,0,0,4.93-.31l.13.09.06,2.26Z"/><path class="cls-1" d="M327.11,122.38l.09-.12h2.35l.12.12,0,2.86,3.4-.93,1.58-.53,1.44,1.28c.18.15.26.25.26.37a.7.7,0,0,1-.11.33,26,26,0,0,1-2.56,3.85c-.21.24-.29.26-.63.12l-1.77-.74a21,21,0,0,0,1.74-2.51l-3.36,1,0,2.73a1.26,1.26,0,0,0,.16.81c.17.21.51.26,1.34.26,1.2,0,2.55-.09,4.44-.23l.12.07,0,2.1-.08.12c-1.47.11-2.95.19-4.37.19-1.83,0-3.06-.06-3.75-.89a3.29,3.29,0,0,1-.43-2.22l0-2.22-1.15.32-2,.63-.18,0-.61-1.92.07-.16,2.16-.55,1.74-.47Z"/><path class="cls-1" d="M349.21,123a9.74,9.74,0,0,0-1.09-1.44l0-.13L349,121h.17a9.89,9.89,0,0,1,1.39,1.81l0,.15-.68.34a12.64,12.64,0,0,1-2.83,7.22,13.64,13.64,0,0,1-5.51,3.73.79.79,0,0,1-.3.09.56.56,0,0,1-.34-.16l-2-1.5a12.13,12.13,0,0,0,5.83-3.45,8.84,8.84,0,0,0,2-4h-5.42l-2.45,0-.14-.1v-2.11l.12-.1,2.44,0Zm.68-2.22.9-.46.16,0a8.7,8.7,0,0,1,1.34,1.76l0,.15-.91.46-.16,0a9.32,9.32,0,0,0-1.33-1.77Z"/><path class="cls-1" d="M353,124.79l1.55-1.67.16,0A17.18,17.18,0,0,1,358,125.2v.15l-1.66,1.85-.15,0a18.8,18.8,0,0,0-3.13-2.3Zm12.41,1.27a.93.93,0,0,1,.06.29c0,.1-.05.16-.16.27a31.2,31.2,0,0,1-10.55,7.07l-.16,0-1.44-2.07,0-.15a29,29,0,0,0,11.34-7.79Z"/><path class="cls-1" d="M373,127.57c-1.22.83-2.48,1.61-3.89,2.39-.32.17-.4.17-.69-.06l-1.71-1.43a27.42,27.42,0,0,0,9.65-6.9h.19l2,1.33,0,.19c-1,1-2,1.88-3,2.64v3.54l.08,4.8h-2.77l.08-4.76Z"/><path class="cls-1" d="M385.2,130.48a18,18,0,0,0,7.92-6.06l1.06,2.14a.48.48,0,0,1,.1.26.43.43,0,0,1-.13.29,22.1,22.1,0,0,1-9.7,6.43.91.91,0,0,1-.34.07.42.42,0,0,1-.27-.13l-1.26-1.09.08-1.45V123l.13-.11h2.28l.13.13Z"/><path class="cls-1" d="M406.8,123a8,8,0,0,0-1.08-1.44l0-.13.9-.46h.15a9.51,9.51,0,0,1,1.4,1.81l0,.15-.68.34a12.64,12.64,0,0,1-2.83,7.22,13.64,13.64,0,0,1-5.51,3.73.79.79,0,0,1-.3.09.56.56,0,0,1-.34-.16l-1.95-1.5a12.13,12.13,0,0,0,5.83-3.45,8.84,8.84,0,0,0,2-4H399l-2.45,0-.15-.1v-2.11l.13-.1,2.44,0Zm.69-2.22.9-.46.16,0a8.7,8.7,0,0,1,1.34,1.76l0,.15-.91.46-.16,0a9.32,9.32,0,0,0-1.33-1.77Z"/><path class="cls-1" d="M410.64,124.79l1.55-1.67.16,0a17.18,17.18,0,0,1,3.25,2.11v.15l-1.66,1.85-.15,0a18.8,18.8,0,0,0-3.13-2.3Zm12.41,1.27a.93.93,0,0,1,.06.29c0,.1-.05.16-.16.27a31.2,31.2,0,0,1-10.55,7.07l-.16,0-1.44-2.07,0-.15a29,29,0,0,0,11.34-7.79Z"/><path d="M120.84,64.46v1.17h-3l.1-8v-6L117.92,48l.16-.13,3.36.07H123c.46-1,.8-1.91,1.18-2.93l.18-.1,2.78.56.12.19c-.38.81-.76,1.56-1.14,2.28h3.4l3.36-.07L133,48l-.06,3.67v5.63l.1,8.32H130V64.46ZM130,50.59h-9.14v2H130Zm0,4.49h-9.14v2.06H130Zm0,4.53h-9.14v2.17H130Z"/><path d="M143.78,45.2l.14-.18h2.72l.14.16V49h3.48l3.38-.07.14.15-.06,3.69v5.7l.1,7.3h-3.08V64.48H140.22v1.24h-3l.1-7v-6L137.28,49l.14-.15,3.38.07h3Zm0,6.45h-3.56v3.49h3.56Zm0,6.12h-3.56v4h3.56Zm7-2.63V51.65h-4v3.49Zm0,6.64v-4h-4v4Z"/><path d="M170.48,57.16a10.78,10.78,0,0,0,.82,1.91,17.56,17.56,0,0,0,1.38-1.82l.18,0L175,58.87v.22c-.8.71-1.54,1.3-2.28,1.88a14.09,14.09,0,0,0,2.6,2l-1.8,2.3a.23.23,0,0,1-.2.08.39.39,0,0,1-.2-.06,14.6,14.6,0,0,1-3.4-3.79l0,1.77c0,.39-.12.52-.48.63a49,49,0,0,1-6.06,1.71l-.18-.13-.74-2.42.12-.18c.82-.1,1.64-.23,2.44-.39V57.16H164l0,1.11c0,2.14-.54,2.57-2,2.73-.28,0-.38,0-.5-.37l-.5-1.41.1,6.61h-2.54l.1-7.63V51h-.52V61h-2.34l.08-6.29V51.31l0-2.75.12-.16,2,.07h.66V45.2l.12-.15h2.28l.1.17v3.25h.76l2-.07.14.16L164,51.31V54.1l0,.63h1v-6l-.06-2.69.14-.15,2,.07h4.64l2.22-.09L174,46v2.23l-.12.18-2.2-.05h-4.1v.76h2.94l2.3,0,.16.15v1.86l-.12.14-2.36-.09h-2.92V52h2.94l2.3,0,.16.15v1.86l-.12.13L170.54,54h-2.92v.76h4.14l3.06-.06.14.15v2.23l-.14.15-3.06,0Zm-9.4,1.17.24,0c.18,0,.28-.11.28-.46V51h-.52Zm6.42-1.17v4.77c.7-.15,1.42-.37,2.12-.59A13.47,13.47,0,0,1,168,57.16Z"/><path d="M188.14,49l2.3-.45.14.13L191,51.4l-.12.17-2.36.32-2.14.35.42,2.56,3.2-.5,2.5-.48.18.11.42,2.71-.1.19-2.4.33-3.3.52.24,1.41.94,5-3.3.72-.72-4.86-.3-1.73-3.54.56-2.44.48-.18-.09-.5-2.73.12-.19,2.54-.35,3.5-.56-.42-2.56-2.14.35-2.34.45-.2-.11-.48-2.7.12-.2,2.44-.33,2.1-.34-.44-2.62.1-.22,2.86-.5.18.15.46,2.67Zm1.56-2,1-.8.2,0a13.69,13.69,0,0,1,2,2.3l0,.22-1.1.84h-.2a13.41,13.41,0,0,0-2-2.34Zm1.88-1.37,1-.8.2,0a12.52,12.52,0,0,1,2,2.23l0,.22-1,.82h-.2a12.37,12.37,0,0,0-2-2.25Z"/><path d="M200.24,57.16l-2.28.76-.2-.07-.66-2.4.06-.18,2.44-.65.68-.19-.88-3,.1-.17,2.36-.74.16.09.88,3,3.66-1.06,1.56-.54,1.62,1.49a.46.46,0,0,1,.2.35.82.82,0,0,1-.1.32,21.85,21.85,0,0,1-2.78,4.42c-.22.24-.3.24-.54.13l-2-1a17.49,17.49,0,0,0,1.74-2.49l-2.64.8.56,2,1.66,5.49-2.74.88-1.44-5.28L201,56.92Z"/><path d="M214.68,54.71V51.87l.18-.13,2.74.07h7.68l2.8-.07.14.18c-.7,6.86-3.72,10.51-9.28,12.59a1.53,1.53,0,0,1-.42.1.63.63,0,0,1-.46-.23l-2.26-2c4.6-1.52,7.6-3.79,8.48-7.52h-6.7l-2.76.06Zm9-4.55H219l-2.44.06-.14-.17V47.26l.18-.13,2.42.06h4.52l2.76-.06.16.15v2.77l-.14.17Z"/><path d="M237.74,51l.1,6.18h-3.36l.1-6.13v-3.8l.16-.15h2.84l.16.18Zm6.72,2.24c0,3.7-.3,5.3-1.44,7.26a10.61,10.61,0,0,1-4.88,4.09.88.88,0,0,1-.38.13c-.1,0-.2-.09-.4-.24L235,62.53a9.47,9.47,0,0,0,5.16-3.68c1-1.56,1.08-2.86,1.08-5.31V46.82l.16-.15h2.94l.16.17Z"/><path d="M262,57.29H253l-3,.06-.14-.17v-3.1l.18-.13,2.86.07h8.92l3.08-.07.16.15v3.08l-.14.17Z"/><rect x="298" y="77" width="51" height="8"/><polygon class="cls-1" points="0.11 210.02 0 210.05 0 249.67 5.5 271 15.83 271 0.11 210.02"/><rect class="cls-3" width="423" height="357"/></g></g></svg>