<svg xmlns="http://www.w3.org/2000/svg" viewBox="0 0 61.17 65.15"><defs><style>.cls-1{fill:#231815;}</style></defs><g id="レイヤー_2" data-name="レイヤー 2"><g id="レイヤー_1-2" data-name="レイヤー 1"><path class="cls-1" d="M45.21,12.72q0,.67-3.3,3.06a43.24,43.24,0,0,0-4.22,3.37l-.85.3L39,15.63a18,18,0,0,0-4.11.9,15.44,15.44,0,0,1-4.46.82c-.1,5.39-.19,8.66-.29,9.8q-.35,7-1.47,9.2l-.28.08c-.71,0-1.27-.45-1.69-1.35a4.83,4.83,0,0,1-.49-2.24c0,.1.11-.57.35-2,0-1,0-2.44.14-4.34,0-.65.26-2.94.63-6.88a57.67,57.67,0,0,0,.35-7v-1h-.07c-.19,0-.75.67-1.68,2Q18.56,24.76,16.73,29.1c.05,1.45.07,2.74.07,3.89,0,.6,0,1.47-.1,2.62s-.11,2-.11,2.54a6.07,6.07,0,0,1-1.33,4.19q-2.12-.45-2.53-3.89c-.1-1.8-.19-3.59-.28-5.39q-1.83,1.42-4.65,4.12-4,3.89-4.57,4.41c-.89-.3-1.29-1.2-1.19-2.69v-.75q4.29-6.28,5.76-8.68a56.74,56.74,0,0,0,4.65-9.35l-5.7,2.1c-1.27,0-3.52-1-6.75-2.77q5.28-.68,14.27-5.09A71.34,71.34,0,0,0,15.12,4c0-.74-.35-1.12-1.06-1.12a4,4,0,0,0-1.19.23L12,2.69A5.68,5.68,0,0,1,17,0,3.87,3.87,0,0,1,20.6,2.32c-1.31,4.09-2,7.1-2,9a13.73,13.73,0,0,1,2.75-.22,3.74,3.74,0,0,1,2.46.89v.15c0,.45-1,1.38-3.1,2.77s-3.09,2.69-3.09,3.89v2.32c0,1,.07,1.82.07,2.32Q20,20.42,24.26,14a38.42,38.42,0,0,1,2.18-4,1.7,1.7,0,0,1,1.4-.74,2.22,2.22,0,0,1,2.32,2.09A18.23,18.23,0,0,1,30.38,15h.56a11,11,0,0,0,5.17-1.72,11.82,11.82,0,0,1,5.23-1.8A6.94,6.94,0,0,1,45.21,12.72ZM9.49,54.16q0,7.79-3.23,9.27c-2-1.14-3-2.37-3-3.66q0-.3,3.52-11.45l1.34.53A9.23,9.23,0,0,1,9.49,54.16Zm51.68-7c0,.84-.8,1.27-2.39,1.27a21.27,21.27,0,0,1-7.21-1.87,21.25,21.25,0,0,0-7.27-1.87,12.1,12.1,0,0,0-4.08.75Q51.61,50.2,51.61,56a9.63,9.63,0,0,1-.14,1.57,17.08,17.08,0,0,1-7.31,5.76,22,22,0,0,1-9,1.87q-15.61,0-21.38-14.66A10,10,0,0,1,12.87,47a3.93,3.93,0,0,1,1.4-2.85q6.9,16.47,19.48,16.46A13,13,0,0,0,44,55.8l.07-.74c.09-2.85-1.81-5.71-5.7-8.61q-2,.22-4.5,2.73t-2.46,4.6L30,55.8a6.48,6.48,0,0,1-1,.08c-1.88,0-3-1.17-3.38-3.52q-.14-3-.21-5.91l1.06.38L29.46,50q7.59-7.63,19.41-7.63Q61.17,42.34,61.17,47.13Zm-7-40q-2,1.11-2,6.35,0,2.17.11,6.55t.1,6.55A63.34,63.34,0,0,1,52,34.71q-.78,5.76-3.37,6.21a9.51,9.51,0,0,1-3.24-3.74,13,13,0,0,0-5.69-1.35,14.13,14.13,0,0,0-8.79,3.52c-.61-.2-.92-.78-.92-1.72A65,65,0,0,0,39,26.41a28.7,28.7,0,0,1-5.69.89,5,5,0,0,1-2.88-1.12c5.71-2.64,9.35-4,10.89-4a23.09,23.09,0,0,1,3.24,1,4.75,4.75,0,0,1,.14,1A2.32,2.32,0,0,1,43,26.33L40.5,27.38q-2.25,1.43-5.7,8.15A13.69,13.69,0,0,1,43,33.06a7.84,7.84,0,0,1,3,.53,4.75,4.75,0,0,0,.71-2.81c0-1.37.14-3.53.28-6.47q.14-2.83.14-9.2a48.7,48.7,0,0,0-.28-6.58Q46.2,4.2,43.59,4.19a8.82,8.82,0,0,0-7.17,3.36H34.1Q40.36.91,45.21.9a13,13,0,0,1,4.57,1.19c2.11.9,3.33,1.83,3.66,2.77Z"/></g></g></svg>